<?xml version="1.0" standalone="no"?>
<!DOCTYPE svg PUBLIC "-//W3C//DTD SVG 1.1//EN" "http://www.w3.org/Graphics/SVG/1.1/DTD/svg11.dtd" >
<svg xmlns="http://www.w3.org/2000/svg" xmlns:xlink="http://www.w3.org/1999/xlink" version="1.1">
<metadata>
Created by FontForge 20170731 at Sat Dec 30 23:28:04 2017
 By Aleksey,,,
Copyright (c) 2017 by Jacob Wise. All rights reserved.
</metadata>
<defs>
<font id="Monarch" horiz-adv-x="623" >
  <font-face 
    font-family="Monarch"
    font-weight="400"
    font-stretch="normal"
    units-per-em="1000"
    panose-1="2 0 0 0 0 0 0 0 0 0"
    ascent="750"
    descent="-250"
    x-height="520"
    cap-height="768"
    bbox="-230 -336 1273.3 1000"
    underline-thickness="50"
    underline-position="-150"
    unicode-range="U+000A-FB03"
  />
<missing-glyph horiz-adv-x="648" 
d="M100 768h601v-1088h-601v1088zM646 -210v867l-221 -433zM179 -256h439l-219 429zM399 275l219 429h-439zM155 650v-852l217 426z" />
    <glyph glyph-name="lf" unicode="lf" horiz-adv-x="588" 
d="M568 520v-61h-115v-459h-80v459h-115v61h115v34.5t-2 35t-7 29t-15 17.5l-45 22q-19 8 -17 28q-34 -17 -60.5 -34.5t-46 -40t-31 -52.5t-14.5 -73v-486h-80v479q0 11 1.5 32t12.5 46t36.5 51.5t73.5 49.5l221 98q22 10 39.5 11t34 -4.5t34 -17t40.5 -27.5l-7 -11
q-23 13 -40.5 14.5t-31.5 -4.5l-114 -51q-5 -2 -5 -7.5t5 -7.5l51 -25q21 -11 34 -33.5t13 -48.5v-24h115z" />
    <glyph glyph-name="lj" unicode="lj" horiz-adv-x="456" 
d="M296 519h80v-561q-1 -14 -5 -34t-17 -43.5t-38.5 -47.5t-68.5 -45l-256 -108l-6 14q86 36 155 79q29 18 57 40t50 47t35.5 52.5t13.5 57.5v549zM242 701q-23 -12 -32 -18.5t-16 -12.5q-18 -17 -37 -51.5t-21 -90.5v-528h-80v521q0 6 2 27t13.5 48t37.5 55.5t74 51.5
l146 62q8 3 16 0l61 -32q5 -3 5 -8.5t-5 -7.5l-65 -35q-4 -2 -8 0l-35 19q-29 14 -56 0z" />
    <glyph glyph-name="es" unicode="es" horiz-adv-x="1173" 
d="M584 173q-37 -69 -86.5 -118t-112.5 -65q-14 -5 -31 -7.5t-38 -2.5q-70 0 -122.5 24t-87.5 63.5t-52.5 89.5t-17.5 102.5t17.5 103t52.5 90t87.5 63.5t122.5 24q53 0 96 -13.5t76 -37.5t56 -56.5t36 -69.5l-442 -172q14 -39 34.5 -72.5t47.5 -57t60.5 -35.5t75.5 -7
q63 11 114.5 48.5t95.5 120.5q21 36 43.5 34.5t41.5 -38.5q22 -44 45.5 -75t53 -51.5t68.5 -30t92 -9.5q27 0 54 7.5t48.5 22.5t35.5 37.5t14 53.5q0 32 -18.5 52t-46 32t-59 17.5t-57.5 7.5q-34 3 -73.5 6.5t-73.5 16.5t-56 39.5t-20 74.5q1 36 20 63.5t49.5 46t68 29
t76.5 13.5q9 1 18 1.5t17 0.5q41 0 76 -11t63.5 -28.5t51 -39t37.5 -42.5l-67 -43q-42 78 -97.5 116.5t-131.5 18.5q-45 -14 -71 -48t-26 -76q0 -29 17.5 -44t45.5 -23t64.5 -10.5t74 -6.5t74 -12t64.5 -25.5t45.5 -47.5t17.5 -79q0 -44 -24 -74.5t-59.5 -49.5t-77 -27.5
t-75.5 -8.5q-99 0 -160 38t-101 120q-4 8 -10.5 22t-14.5 24t-18 10.5t-21 -19.5zM235 509q-51 -17 -79 -49.5t-37.5 -73.5t-5 -87t18.5 -90l351 161q-17 37 -40.5 69t-54.5 52.5t-69 26.5t-84 -9z" />
    <glyph glyph-name="ff" unicode="ff" horiz-adv-x="613" 
d="M593 520v-61h-115v-459h-80v459h-183v-459h-80v459h-115v61h115v34.5t-2 35t-7 29t-15 17.5l-45 22q-19 8 -17 26q0 19 17 28l75 35q21 10 39 15t35 5q18 0 38.5 -6t40.5 -19l42 -27l89 41q23 11 46 11q24 0 47 -13.5t55 -35.5l-7 -11q-29 15 -49 15q-11 0 -23 -5
l-114 -51q-5 -3 -5 -8q0 -6 5 -7l51 -25q21 -11 33.5 -33.5t13.5 -48.5v-24h115zM215 520h183v34.5t-2 35t-7 29t-15 17.5l-45 22q-17 8 -17 25v2q0 26 -16 36.5t-40 2.5l-135 -60q-5 -3 -5 -8q0 -6 5 -7l47 -23q21 -11 33.5 -33.5t13.5 -48.5v-24z" />
    <glyph glyph-name="fi" unicode="fi" horiz-adv-x="540" 
d="M135 0v459h-115v61h115v34.5t-2 35t-7 29t-15 17.5l-45 22q-9 4 -13 11t-4 15.5t4 16t13 11.5l75 35q25 12 45 17.5t39.5 5t41 -7t50.5 -18.5l173 -72q5 -3 5 -8.5t-5 -7.5l-60 -36q-4 -2 -8 0l-65 35q-5 2 -5 8t5 9q14 7 12.5 14t-10.5 14t-23 12.5t-26 8.5
q-13 3 -27 2.5t-26.5 -3.5t-21.5 -6l-12 -4l-102 -46q-5 -2 -5 -7.5t5 -7.5l47 -23q21 -11 34 -33.5t13 -48.5v-24h252v-520h-80v459h-172v-459h-80z" />
    <glyph glyph-name="ffi" unicode="ffi" horiz-adv-x="802" 
d="M753 672q4 -3 4 -9t-4 -7l-60 -36q-1 -1 -4 -1t-4 1l-65 35q-5 2 -5 8q0 8 9 12.5t9 10.5q0 8 -10.5 15t-24.5 12t-27.5 7.5t-19.5 2.5q-23 0 -41.5 -5.5t-23.5 -7.5l-102 -46q-5 -3 -5 -8q0 -6 5 -7l47 -23q21 -11 33.5 -33.5t13.5 -48.5v-24h252v-520h-80v459h-172
v-459h-80v459h-183v-459h-80v459h-115v61h115v34.5t-2 35t-7 29t-15 17.5l-45 22q-17 8 -17 24q0 9 3.5 17t13.5 13l75 35q21 10 39 15t35 5q18 0 38.5 -6t40.5 -19l43 -28l67 33q24 11 43 16.5t38 5.5q20 0 42.5 -6t52.5 -19zM398 520v34.5t-2 35t-7 29t-15 17.5l-45 22
q-17 8 -17 27q0 20 -10 31t-27 11q-9 0 -19 -3l-135 -60q-5 -3 -5 -8q0 -6 5 -7l47 -23q20 -11 33.5 -34t13.5 -48v-24h183z" />
    <glyph glyph-name="li" unicode="li" horiz-adv-x="455" 
d="M295 519h80v-519h-80v519zM241 701q27 14 56 0l35 -19q4 -2 8 0l65 35q5 2 5 7.5t-5 8.5l-61 32q-8 3 -16 0l-146 -62q-48 -23 -74 -51.5t-37.5 -55.5t-13.5 -48t-2 -27v-521h80v528q2 56 21 90.5t37 51.5q7 6 16 12.5t32 18.5z" />
    <glyph glyph-name="ld" unicode="ld" horiz-adv-x="839" 
d="M660 675q43 -21 68.5 -45t38.5 -47.5t17 -43.5t5 -34v-505h-80v76q-44 -36 -97.5 -57t-107.5 -25.5t-105.5 8t-91 44t-63.5 82.5t-24 123q0 71 23.5 124.5t62.5 87.5t90 47.5t105.5 5t108 -39.5t99.5 -87v104q0 40 -23 76.5t-57 66.5t-72.5 53.5t-68.5 38.5
q-53 30 -99.5 28.5t-100.5 -28.5q-23 -11 -42.5 -22t-32.5 -20q-8 -5 -20.5 -16.5t-25 -30.5t-22 -46.5t-10.5 -64.5v-528h-80v521q0 6 2 27t13.5 48t37.5 55.5t74 51.5l118 50q41 18 85 18t86 -17zM709 341q0 25 -22 47.5t-77 54.5q-64 37 -120.5 36.5t-99 -29t-66 -81
t-21.5 -118.5q2 -70 24.5 -119.5t56.5 -78t77 -36.5t86.5 5t83.5 46.5t70 87.5q4 8 6 19.5t2 22.5v143z" />
    <glyph glyph-name="fj" unicode="fj" horiz-adv-x="540" 
d="M387 459h-172v-459h-80v459h-115v61h115v34.5t-2 35t-7 29t-15 17.5l-45 22q-9 4 -13 11t-4 15.5t4 16t13 11.5l75 35q25 12 45 17.5t39.5 5t41 -7t50.5 -18.5l173 -72q5 -3 5 -8.5t-5 -7.5l-60 -36q-4 -2 -8 0l-65 35q-5 2 -5 8t5 9q14 7 12.5 14t-10.5 14t-23 12.5
t-26 8.5q-13 3 -27 2.5t-26.5 -3.5t-21.5 -6l-12 -4l-102 -46q-5 -2 -5 -7.5t5 -7.5l47 -23q21 -11 34 -33.5t13 -48.5v-24h252v-562q-1 -14 -5 -34t-17 -43.5t-38.5 -47.5t-68.5 -45l-256 -108l-6 14q86 36 155 79q29 18 57 40t50 47t35.5 52.5t13.5 57.5v489z" />
    <glyph glyph-name="fu" unicode="fu" horiz-adv-x="859" 
d="M809 520v-520h-79v101q-28 -19 -67.5 -45.5t-90.5 -49.5q-17 -8 -36 -12t-37 -4q-25 0 -49 8.5t-42.5 25t-29.5 39.5t-11 52v344h-152v-459h-80v459h-115v61h115v34.5t-2 35t-7 29t-15 17.5l-45 22q-9 4 -13 11t-4 15.5t4 16t13 11.5q26 11 46 21q17 8 32.5 15t17.5 8
q22 10 39.5 11t34 -4.5t34 -17t40.5 -27.5l-7 -11q-23 13 -40.5 14.5t-31.5 -4.5l-114 -51q-5 -2 -5 -7.5t5 -7.5l51 -25q21 -11 34 -33.5t13 -48.5v-24h231v-374q0 -29 9 -52.5t25.5 -38.5t40.5 -20t54 4q26 8 63 27t72 41q8 5 14 14.5t6 20.5v378h79z" />
    <glyph glyph-name="ra" unicode="ra" horiz-adv-x="945" 
d="M854 0l-25 64q-38 -33 -87.5 -53.5t-102 -27.5t-103 0.5t-90 31t-64 63t-24.5 97.5q0 65 33.5 113.5t87.5 71.5t121.5 15.5t135.5 -53.5l-21 52q-13 29 -30.5 51.5t-41 35t-53 15.5t-67.5 -7q-33 -9 -62.5 -24.5t-56 -29t-49.5 -21.5t-43 -1q-14 4 -27.5 18t-26.5 28.5
t-25.5 25.5t-24.5 10q-12 -2 -26.5 -13t-27 -26.5t-21 -33t-8.5 -30.5v-372h-80v520h80v-99q11 15 26.5 33.5t32 35t32 28t27.5 12.5q16 1 33 -11.5t32.5 -29t29.5 -33t25 -24.5q8 -5 21 -1t28 13q28 17 52 34.5t49 30.5t53.5 18.5t66.5 -0.5q51 -9 93.5 -40.5t60.5 -81.5
l148 -405h-81zM433 175q0 -52 19 -88.5t49.5 -58t69.5 -27t79 4.5t78 36t67 69q7 10 6.5 23t-5.5 24l-47 122q-11 28 -38 40q-68 30 -119.5 31t-87 -20.5t-53.5 -62t-18 -93.5z" />
    <glyph glyph-name="ft" unicode="ft" horiz-adv-x="736" 
d="M716 40q-8 -4 -21 -9.5t-28 -11.5t-29.5 -12t-25.5 -11q-33 -16 -68.5 -16.5t-65.5 12.5t-50.5 40t-22.5 66q-2 26 -1.5 52t0.5 52v258h-189v-460h-80v460h-115v60h115v34.5t-2 35t-7 29t-15 17.5l-45 22q-9 4 -13 11t-4 15.5t4 16t13 11.5q26 11 46 21q17 8 32.5 15
t17.5 8q22 10 39.5 11t34 -4.5t34 -17t40.5 -27.5l-7 -11q-23 13 -40.5 14.5t-31.5 -4.5l-114 -51q-5 -2 -5 -7.5t5 -7.5l51 -25q21 -11 34 -33.5t13 -48.5v-24h189q0 5 2 27t13 50t35 57t69 49l148 63l6 -14q-18 -8 -38 -18q-17 -9 -39 -21t-46 -27q-8 -5 -20.5 -17
t-24 -32t-20 -49t-8.5 -68h196v-60h-180q-9 0 -15 -6t-6 -15v-310q0 -28 8.5 -51.5t25 -39t40 -21.5t53.5 2q9 2 23 6t30 9t31 10t24 9z" />
    <glyph glyph-name="tt" unicode="tt" horiz-adv-x="770" 
d="M750 40q-8 -4 -21 -9.5t-28 -11.5t-29.5 -12t-25.5 -11q-33 -16 -68.5 -16.5t-65.5 12.5t-50.5 40t-22.5 66q-2 26 -1.5 52t0.5 52v258h-242q-9 0 -15 -6t-6 -15v-310q0 -28 8.5 -51.5t25 -39t40 -21.5t53.5 2q9 2 23 6t30 9t31 10t24 9l5 -13q-8 -4 -21 -9.5t-28 -11.5
t-29.5 -12t-25.5 -11q-33 -16 -68.5 -16.5t-65.5 12.5t-50.5 40t-22.5 66q-2 26 -1.5 52t0.5 52v258h-68v60h68q0 5 2 27t13 50t35 57t69 49l148 63l6 -14q-18 -8 -38 -18q-17 -9 -39 -21t-46 -27q-8 -5 -20.5 -17t-24 -32t-20 -49t-8.5 -68h258q0 5 2 27t13 50t35 57t69 49
l148 63l6 -14q-18 -8 -38 -18q-17 -9 -39 -21t-46 -27q-8 -5 -20.5 -17t-24 -32t-20 -49t-8.5 -68h196v-60h-180q-9 0 -15 -6t-6 -15v-310q0 -28 8.5 -51.5t25 -39t40 -21.5t53.5 2q9 2 23 6t30 9t31 10t24 9z" />
    <glyph glyph-name="co" unicode="co" horiz-adv-x="1210" 
d="M898 540q70 0 123 -24t88 -63.5t52.5 -90t17.5 -103t-17.5 -102.5t-53 -89.5t-88 -63.5t-122.5 -24q-71 0 -124 24.5t-88 64.5t-52 91.5t-16 104.5q-17 -44 -37 -86.5t-47 -79.5t-64.5 -65t-89.5 -43q-14 -5 -31 -7.5t-38 -2.5q-70 0 -122.5 24t-87.5 63.5t-52.5 89.5
t-17.5 102.5t17.5 103t52.5 90t87.5 63.5t122.5 24q41 0 76 -11t63.5 -28t51 -38.5t37.5 -42.5l-67 -43q-22 40 -47 70.5t-55 48.5t-65 21.5t-75 -9.5q-51 -17 -79 -49.5t-37.5 -73t-5 -86.5t18.5 -90q16 -45 37 -81t48 -60t60.5 -34.5t75.5 -5.5q40 7 78.5 23.5t72.5 51.5
q28 30 48.5 63.5t36.5 69t30 72.5t29 73q28 65 85 107q33 24 75 37.5t95 13.5zM982 12q54 18 82 51.5t37.5 75.5t3 89.5t-21.5 92.5t-38 86.5t-56 70t-75.5 39t-95.5 -7.5t-81 -51.5t-37 -76t-3.5 -90t20.5 -92.5t39 -86t56.5 -69.5t74.5 -39t95 7.5z" />
    <glyph glyph-name="gg" unicode="gg" horiz-adv-x="1294" 
d="M1073 83q36 35 74 38.5t67.5 -13t46.5 -49t10.5 -70.5t-41.5 -76.5t-109 -67.5l-351 -165l-6 14q79 41 151 82q31 18 63.5 37.5t63 39.5t58 39.5t48.5 37.5q25 22 32 46.5t0 44.5t-24.5 31.5t-39.5 8.5q-25 -5 -49 -21t-48 -37t-49 -44.5t-53 -43t-59 -32t-67 -12.5
q-47 0 -83 17t-59 45q-17 -24 -47.5 -46.5t-77.5 -41.5l-351 -165l-6 14q79 41 151 82q31 18 63.5 37.5t63 39.5t58 39.5t48.5 37.5q25 22 32 46.5t0 44.5t-24.5 31.5t-39.5 8.5q-25 -5 -49 -21t-48 -37t-49 -44.5t-53 -43t-59 -32t-67 -12.5q-44 0 -79.5 15.5t-58 41.5
t-31.5 59t0.5 68t38 68.5t80.5 61.5q-32 30 -48 68t-15.5 77.5t18 77t51.5 67t84.5 47.5t117.5 18q21 0 40.5 -2.5t37.5 -6.5q22 -5 34 -2t26 8q16 5 29 10.5t23 10.5q11 5 20 9l8 -11l-68 -48l6 -3q49 -25 77.5 -64t36 -82t-6 -86.5t-47 -78.5t-88 -57t-128.5 -22
q-51 0 -92.5 10t-73.5 29q-18 11 -35.5 3.5t-27.5 -22.5q-25 -38 -24 -73t18 -61.5t45 -42t58 -15.5q28 0 56.5 7.5t59.5 24t65.5 43t74.5 65.5q21 21 43.5 30t44 9.5t40.5 -7.5t34 -22q14 25 39.5 48.5t63.5 43.5q-33 30 -48.5 68t-15 77.5t18 77t51.5 67t84.5 47.5
t117.5 18q21 0 40.5 -2.5t37.5 -6.5q22 -5 34 -2t26 8q16 5 29 10.5t23 10.5q11 5 20 9l8 -11l-68 -48l6 -3q49 -25 77.5 -64t36 -82t-6 -86.5t-47 -78.5t-88 -57t-128.5 -22q-51 0 -92.5 10t-73.5 29q-18 11 -35.5 3.5t-27.5 -22.5q-25 -38 -24 -73t18 -61.5t45 -42
t58 -15.5q28 0 56.5 7.5t59.5 24t65.5 43t74.5 65.5zM949 515q-54 0 -91 -15.5t-59 -41t-32 -59.5t-10 -70q0 -37 10 -71t32.5 -60.5t59 -42.5t90.5 -16t91 16t59 42.5t31.5 60.5t9.5 71q0 36 -9.5 70t-32 59.5t-59 41t-90.5 15.5zM352 515q-54 0 -91 -15.5t-59 -41
t-32 -59.5t-10 -70q0 -37 10 -71t32.5 -60.5t59 -42.5t90.5 -16t91 16t59 42.5t31.5 60.5t9.5 71q0 36 -9.5 70t-32 59.5t-59 41t-90.5 15.5z" />
    <glyph glyph-name="cc" unicode="cc" horiz-adv-x="1211" 
d="M618 265q-17 -44 -37 -86.5t-47 -79.5t-64.5 -65t-89.5 -43q-14 -5 -31 -7.5t-38 -2.5q-70 0 -122.5 24t-87.5 63.5t-52.5 89.5t-17.5 102.5t17.5 103t52.5 90t87.5 63.5t122.5 24q41 0 76 -11t63.5 -28t51 -38.5t37.5 -42.5l-67 -43q-22 40 -47 70.5t-55 48.5t-65 21.5
t-75 -9.5q-51 -17 -79 -49.5t-37.5 -73t-5 -86.5t18.5 -90q16 -45 37 -81t48 -60t60.5 -34.5t75.5 -5.5q40 7 78.5 23.5t72.5 51.5q28 30 48.5 63.5t36.5 69t30 72.5t29 73zM1059 378q-22 40 -47 70.5t-55 48.5t-65 21.5t-75 -9.5q-51 -17 -79 -49.5t-37.5 -73t-5 -86.5
t18.5 -90q16 -45 37 -81t48 -60t60.5 -34.5t75.5 -5.5q31 6 64.5 18t64 33t57.5 51.5t46 73.5l19 -9q-47 -93 -101.5 -141t-117.5 -64q-14 -5 -31 -7.5t-38 -2.5q-70 0 -122.5 24t-87.5 63.5t-52.5 89.5t-17.5 102.5t17.5 103t52.5 90t87.5 63.5t122.5 24q41 0 76 -11
t63.5 -28t51 -38.5t37.5 -42.5z" />
    <glyph glyph-name="ce" unicode="ce" horiz-adv-x="1210" 
d="M618 265q-17 -44 -37 -86.5t-47 -79.5t-64.5 -65t-89.5 -43q-14 -5 -31 -7.5t-38 -2.5q-70 0 -122.5 24t-87.5 63.5t-52.5 89.5t-17.5 102.5t17.5 103t52.5 90t87.5 63.5t122.5 24q41 0 76 -11t63.5 -28t51 -38.5t37.5 -42.5l-67 -43q-22 40 -47 70.5t-55 48.5t-65 21.5
t-75 -9.5q-51 -17 -79 -49.5t-37.5 -73t-5 -86.5t18.5 -90q16 -45 37 -81t48 -60t60.5 -34.5t75.5 -5.5q40 7 78.5 23.5t72.5 51.5q28 30 48.5 63.5t36.5 69t30 72.5t29 73zM1185 195q-47 -93 -101.5 -141t-117.5 -64q-14 -5 -31 -7.5t-38 -2.5q-70 0 -122.5 24t-87.5 63.5
t-52.5 89.5t-17.5 102.5t17.5 103t52.5 90t87.5 63.5t122.5 24q53 0 96 -13.5t76 -37.5t56 -56.5t36 -69.5l-442 -172q14 -39 34.5 -72.5t47.5 -57t60.5 -35.5t75.5 -7q31 6 64 19.5t63 36t56.5 54.5t45.5 75zM816 509q-51 -17 -79 -49.5t-37.5 -73.5t-5 -87t18.5 -90
l351 161q-17 37 -40.5 69t-54.5 52.5t-69 26.5t-84 -9z" />
    <glyph glyph-name="eo" unicode="eo" horiz-adv-x="1205" 
d="M898 540q70 0 123 -24t88 -63.5t52.5 -90t17.5 -103t-17.5 -102.5t-53 -89.5t-88 -63.5t-122.5 -24q-71 0 -124 24.5t-88 64.5t-52 91.5t-16 104.5q-17 -44 -37 -86.5t-47 -79.5t-64.5 -65t-89.5 -43q-14 -5 -31 -7.5t-38 -2.5q-70 0 -122.5 24t-87.5 63.5t-52.5 89.5
t-17.5 102.5t17.5 102.5t52.5 89.5t87 63.5t122 24q53 0 96 -13.5t76 -37.5t56 -56.5t36 -69.5l-440 -171q16 -42 37 -74.5t47 -53.5t58 -30.5t72 -4.5q40 7 78.5 23.5t72.5 51.5q28 30 48.5 63.5t36.5 69t30 72.5t29 73q28 65 85 107q33 24 75 37.5t95 13.5zM982 12
q54 18 82 51.5t37.5 75.5t3 89.5t-21.5 92.5t-38 86.5t-56 70t-75.5 39t-95.5 -7.5t-81 -51.5t-37 -76t-3.5 -90t20.5 -92.5t39 -86t56.5 -69.5t74.5 -39t95 7.5zM229 509q-51 -17 -78 -49.5t-37 -73t-5.5 -86.5t18.5 -90v-1l350 161q-17 37 -40.5 69t-54.5 52.5t-69 26.5
t-84 -9z" />
    <glyph glyph-name="ec" unicode="ec" horiz-adv-x="1211" 
d="M618 265q-17 -44 -37 -86.5t-47 -79.5t-64.5 -65t-89.5 -43q-14 -5 -31 -7.5t-38 -2.5q-70 0 -122.5 24t-87.5 63.5t-52.5 89.5t-17.5 102.5t17.5 102.5t52.5 89.5t87 63.5t122 24q53 0 96 -13.5t76 -37.5t56 -56.5t36 -69.5l-440 -171q16 -42 37 -74.5t47 -53.5
t58 -30.5t72 -4.5q40 7 78.5 23.5t72.5 51.5q28 30 48.5 63.5t36.5 69t30 72.5t29 73q28 65 85 107zM229 509q-51 -17 -78 -49.5t-37 -73t-5.5 -86.5t18.5 -90v-1l350 161q-17 37 -40.5 69t-54.5 52.5t-69 26.5t-84 -9zM1059 378q-22 40 -47 70.5t-55 48.5t-65 21.5
t-75 -9.5q-51 -17 -79 -49.5t-37.5 -73t-5 -86.5t18.5 -90q16 -45 37 -81t48 -60t60.5 -34.5t75.5 -5.5q31 6 64.5 18t64 33t57.5 51.5t46 73.5l19 -9q-47 -93 -101.5 -141t-117.5 -64q-14 -5 -31 -7.5t-38 -2.5q-70 0 -122.5 24t-87.5 63.5t-52.5 89.5t-17.5 102.5
t17.5 103t52.5 90t87.5 63.5t122.5 24q41 0 76 -11t63.5 -28t51 -38.5t37.5 -42.5z" />
    <glyph glyph-name="ee" unicode="ee" horiz-adv-x="1210" 
d="M618 265q-17 -44 -37 -86.5t-47 -79.5t-64.5 -65t-89.5 -43q-14 -5 -31 -7.5t-38 -2.5q-70 0 -122.5 24t-87.5 63.5t-52.5 89.5t-17.5 102.5t17.5 102.5t52.5 89.5t87 63.5t122 24q53 0 96 -13.5t76 -37.5t56 -56.5t36 -69.5l-440 -171q16 -42 37 -74.5t47 -53.5
t58 -30.5t72 -4.5q40 7 78.5 23.5t72.5 51.5q28 30 48.5 63.5t36.5 69t30 72.5t29 73q28 65 85 107zM229 509q-51 -17 -78 -49.5t-37 -73t-5.5 -86.5t18.5 -90v-1l350 161q-17 37 -40.5 69t-54.5 52.5t-69 26.5t-84 -9zM1185 195q-47 -93 -101.5 -141t-117.5 -64
q-14 -5 -31 -7.5t-38 -2.5q-70 0 -122.5 24t-87.5 63.5t-52.5 89.5t-17.5 102.5t17.5 103t52.5 90t87.5 63.5t122.5 24q53 0 96 -13.5t76 -37.5t56 -56.5t36 -69.5l-442 -172q14 -39 34.5 -72.5t47.5 -57t60.5 -35.5t75.5 -7q31 6 64 19.5t63 36t56.5 54.5t45.5 75zM816 509
q-51 -17 -79 -49.5t-37.5 -73.5t-5 -87t18.5 -90l351 161q-17 37 -40.5 69t-54.5 52.5t-69 26.5t-84 -9z" />
    <glyph glyph-name=".notdef" horiz-adv-x="648" 
d="M100 768h601v-1088h-601v1088zM646 -210v867l-221 -433zM179 -256h439l-219 429zM399 275l219 429h-439zM155 650v-852l217 426z" />
    <glyph glyph-name=".null" horiz-adv-x="0" 
 />
    <glyph glyph-name="nonmarkingreturn" unicode="&#xd;" horiz-adv-x="500" 
 />
    <glyph glyph-name="NULL" horiz-adv-x="0" 
 />
    <glyph glyph-name="NULL" horiz-adv-x="0" 
 />
    <glyph glyph-name="space" unicode=" " horiz-adv-x="390" 
 />
    <glyph glyph-name="exclam" unicode="!" horiz-adv-x="297" 
d="M203 47l-47 -47q-7 -9 -16 0l-47 47q-7 7 0 16l47 47q9 7 16 0l47 -47q9 -9 0 -16zM195 768q-8 -101 -13 -183t-9 -150t-6 -126t-4 -111h-28q-2 53 -4.5 111t-6.5 126t-9.5 150t-12.5 183h93z" />
    <glyph glyph-name="quotedbl" unicode="&#x22;" horiz-adv-x="468" 
d="M203 762q9 -9 0 -16q-9 -10 -17 -25q-7 -14 -14.5 -34.5t-12.5 -51.5h-22q-8 50 -21 75t-20 33l-3 3q-7 7 0 16l47 47q9 7 16 0zM374 762q9 -9 0 -16q-9 -10 -17 -25q-7 -14 -14.5 -34.5t-12.5 -51.5h-22q-8 50 -21 75t-20 33l-3 3q-7 7 0 16l47 47q9 7 16 0z" />
    <glyph glyph-name="numbersign" unicode="#" horiz-adv-x="716" 
d="M626 482h-100l-47 -197h147v-42h-157l-57 -243h-62l58 243h-179l-57 -243h-62l58 243h-78v42h88l47 197h-135v43h146l58 243h60l-58 -243h180l58 243h60l-58 -243h90v-43zM418 285l47 197h-179v0l-47 -197h179z" />
    <glyph glyph-name="dollar" unicode="$" horiz-adv-x="630" 
d="M290 348q-43 6 -85 15t-76 28t-55.5 52t-23.5 87q1 51 22 88.5t55 63t76.5 39.5t86.5 17v62h45v-60q72 -3 135.5 -47.5t108.5 -117.5l-64 -43q-35 78 -79 123t-101 56v-300q45 -7 90 -19t81 -36.5t59 -65.5t24 -107q0 -60 -25 -99.5t-63 -64t-82.5 -35t-83.5 -11.5v-60
h-45v62q-36 1 -71.5 13.5t-67.5 34t-60.5 51.5t-50.5 66l64 43q71 -158 186 -179v344zM513 184q-2 38 -17.5 65t-39.5 45.5t-55.5 29.5t-65.5 17v-338q37 1 70.5 12t58 33.5t38 56.5t11.5 79zM117 542q2 -33 16.5 -54.5t37.5 -35t53.5 -21t65.5 -12.5v295
q-29 -2 -60.5 -12.5t-57.5 -31.5t-42 -53t-13 -75z" />
    <glyph glyph-name="percent" unicode="%" horiz-adv-x="1056" 
d="M777 357q60 0 99.5 -26.5t59.5 -66t19.5 -86t-20 -86t-59.5 -66t-99 -26.5t-99 26.5t-59.5 66t-20 86t19.5 86t59.5 66t99.5 26.5zM824 39q30 9 45 28.5t19.5 44t0.5 51.5t-12 52q-8 23 -21 46t-31.5 39.5t-42.5 23.5t-52 -3q-29 -9 -44 -28.5t-20 -43.5t-1 -50.5
t12 -51.5t21.5 -48.5t32 -40t41.5 -22.5t52 3zM749 768h68l-528 -768h-67zM279 768q60 0 99.5 -26.5t59.5 -66t19.5 -86t-20 -86t-59.5 -66t-99 -26.5t-99 26.5t-59.5 66t-20 86t19.5 86t59.5 66t99.5 26.5zM326 450q30 9 45 28.5t19.5 44t0.5 51.5t-12 52q-8 23 -21 46
t-31.5 39.5t-42.5 23.5t-52 -3q-29 -9 -44 -28.5t-20 -43.5t-1 -50.5t12 -51.5t21.5 -48.5t32 -40t41.5 -22.5t52 3z" />
    <glyph glyph-name="ampersand" unicode="&#x26;" horiz-adv-x="1255" 
d="M558 968q105 0 196 -34t164.5 -95t129 -146.5t90.5 -188.5q19 -57 24 -117.5t-3 -119t-29 -110.5t-54.5 -91t-79.5 -62t-104 -23q-29 0 -59 5.5t-63 19.5t-69.5 37.5t-78.5 59.5q-29 -29 -54.5 -51.5t-51 -38.5t-52.5 -24.5t-58 -8.5q-55 0 -98 16.5t-72.5 45t-45 66.5
t-15.5 80q0 35 11 71.5t34 71t58.5 66t85.5 57.5q-21 61 -16.5 119.5t29.5 104t66.5 73t93.5 27.5t104 -31.5t93 -97.5l-80 -51q-3 36 -17 65.5t-34 50.5t-43.5 32.5t-46.5 11.5q-20 0 -40 -8.5t-36 -25.5t-27 -41.5t-12 -56.5q-3 -45 18.5 -103t57.5 -118.5t82.5 -118.5
t93.5 -103q22 40 35 75.5t20 68.5t10.5 66t7.5 68h113q-7 -23 -26 -61.5t-43.5 -82t-50 -85t-45.5 -70.5q61 -56 115.5 -81.5t100.5 -25.5t83.5 21t65.5 58t45 86t23 105q8 77 -5.5 153.5t-45.5 146.5t-80.5 129.5t-111 102t-137.5 65t-159 17.5q-56 -3 -111.5 -19.5
t-107 -51t-97.5 -88.5t-85 -132q-20 10 -40 19.5t-54 24.5q45 70 102 122t120 86t130.5 51t135.5 17zM371 435q-77 -45 -107.5 -96.5t-30.5 -100.5q0 -38 15 -71.5t40.5 -59t58.5 -40t69 -14.5q20 0 44 1.5t48.5 8t49 20t45.5 37.5q-27 25 -58.5 58t-62.5 73t-60 86t-51 98z
" />
    <glyph glyph-name="quotesingle" unicode="'" horiz-adv-x="179" 
d="M80 660l-37 38q-6 6 0 13l50 50q7 7 12 0l51 -50q6 -7 0 -13l-100 -102l-15 16z" />
    <glyph glyph-name="parenleft" unicode="(" horiz-adv-x="438" 
d="M358 816q-56 -33 -99.5 -90.5t-73 -130t-45 -155.5t-15.5 -168q0 -86 15.5 -169.5t45 -156t73 -130t99.5 -90.5l-8 -16q-75 37 -129.5 99.5t-90 138.5t-53 159.5t-17.5 162.5q0 78 17.5 162t53 160.5t90 139.5t129.5 100z" />
    <glyph glyph-name="parenright" unicode=")" horiz-adv-x="438" 
d="M88 832q75 -37 129.5 -100t90 -139.5t53 -160.5t17.5 -162q0 -79 -17.5 -162.5t-53 -159.5t-90 -138.5t-129.5 -99.5l-8 16q56 33 99.5 90.5t73 130t45 156t15.5 169.5q0 85 -15.5 168t-45 155.5t-73 130t-99.5 90.5z" />
    <glyph glyph-name="asterisk" unicode="*" horiz-adv-x="457" 
d="M318 616q-18 8 -38.5 7t-39.5 -6q13 -15 30 -27t36 -17q12 -3 19 -11.5t9 -19t-0.5 -21t-11.5 -17.5q-11 -9 -23.5 -9.5t-23 4.5t-17.5 15t-6 23q2 19 -5.5 37.5t-17.5 33.5q-11 -15 -18.5 -34t-5.5 -40q0 -11 -6 -20t-15 -14.5t-20.5 -6t-21.5 5.5q-12 7 -17 18.5
t-3.5 23t9.5 20.5t22 12q19 5 35.5 17t27.5 27q-19 5 -40 5.5t-40 -7.5q-12 -4 -23 -1t-19 10t-11.5 17t-0.5 22q3 13 12.5 20.5t21.5 9.5t24 -2.5t19 -15.5q9 -16 26.5 -27t35.5 -18q-1 20 -6.5 39.5t-19.5 33.5q-8 9 -8.5 20t4 20.5t13.5 16t21 8.5q13 1 24 -5.5
t16.5 -16.5t5 -22t-9.5 -22q-13 -15 -18.5 -33.5t-6.5 -38.5q19 7 36.5 18.5t27.5 28.5q7 10 17.5 14t21.5 2.5t20.5 -7.5t14.5 -17q5 -12 1.5 -23.5t-11.5 -20t-20.5 -11.5t-25.5 2z" />
    <glyph glyph-name="plus" unicode="+" horiz-adv-x="675" 
d="M313 359h-223v49h223v221h49v-221h223v-49h-223v-220h-49v220z" />
    <glyph glyph-name="comma" unicode="," horiz-adv-x="270" 
d="M85 19l-32 34q-6 6 0 13l50 50q7 7 13 0l51 -50q6 -7 0 -13l-124 -127l-15 16z" />
    <glyph glyph-name="hyphen" unicode="-" horiz-adv-x="514" 
d="M424 281h-334v73v0v0h334v-73v0v0v0z" />
    <glyph glyph-name="period" unicode="." horiz-adv-x="267" 
d="M163 49l-47 -47q-7 -9 -16 0l-47 47q-7 7 0 16l47 47q9 7 16 0l47 -47q9 -9 0 -16z" />
    <glyph glyph-name="slash" unicode="/" horiz-adv-x="461" 
d="M60 0l291 768h60l-289 -768h-62z" />
    <glyph glyph-name="zero" unicode="0" horiz-adv-x="744" 
d="M371 788q81 0 141.5 -35t101 -91.5t60.5 -129.5t19.5 -148.5t-21 -148.5t-61.5 -129.5t-102 -91.5t-143 -35q-79 0 -138 35t-98.5 91.5t-59 129.5t-19.5 148.5t20 148.5t60 129.5t100 91.5t140 35zM371 768q-60 0 -105.5 -33t-75.5 -87t-45.5 -123t-15.5 -141t14.5 -141
t44.5 -123t74.5 -87t104.5 -33q62 0 108.5 33t77.5 87t46.5 123t15.5 141t-15 141t-45.5 123t-76.5 87t-107 33z" />
    <glyph glyph-name="one" unicode="1" horiz-adv-x="378" 
d="M283 768l-1 -768h-67v635q-34 -23 -60.5 -38.5t-45.5 -26.5q-22 -12 -38 -20l-6 14q31 20 65 50q29 26 65 64t72 90h16z" />
    <glyph glyph-name="two" unicode="2" horiz-adv-x="705" 
d="M165 41q94 2 179 7.5t150 12.5q76 8 141 18v-79h-564q-3 59 14.5 106t48.5 85t72 69.5t85 59.5t87.5 54.5t79.5 55t62 61.5t34 73q7 36 -3.5 68.5t-32 57.5t-49.5 39.5t-55 14.5q-26 0 -54.5 -13.5t-60 -37t-66.5 -54.5t-74 -65l-67 43q47 38 90 66.5t79 47t63.5 28
t45.5 9.5q54 0 102.5 -21t84.5 -54t56 -72.5t16 -76.5q-5 -43 -29.5 -72t-60 -50.5t-75.5 -38t-74 -33.5q-53 -23 -90 -53.5t-62 -63.5t-39.5 -65.5t-22 -59t-9.5 -44.5t-2 -23z" />
    <glyph glyph-name="three" unicode="3" horiz-adv-x="757" 
d="M352 443q24 5 52.5 14t56 23.5t50.5 35.5t34 50q13 34 3 66t-32.5 57.5t-53 41t-57.5 15.5q-26 0 -54.5 -13.5t-60 -37t-66.5 -54.5t-74 -65l-67 43q47 38 90 66.5t79 47t63.5 28t45.5 9.5q54 0 105.5 -24t89.5 -58.5t57 -73t7 -68.5q-11 -27 -27 -43.5t-38.5 -27
t-51 -18.5t-62.5 -18q53 15 96.5 4.5t74.5 -38.5t48 -69t17 -86q0 -46 -22 -94t-62.5 -87t-98.5 -64t-131 -25q-52 0 -97.5 16.5t-82.5 45t-64.5 66.5t-43.5 80l13 6q30 -54 62 -86.5t65.5 -50t68 -23.5t68.5 -6q42 0 84.5 14.5t77 43t56.5 71.5t22 100q0 13 -4 34t-14 42.5
t-27 41t-44 30.5t-64 10.5t-87 -18.5v46v0z" />
    <glyph glyph-name="four" unicode="4" horiz-adv-x="766" 
d="M706 250h-178v-1v-249h-67v250v-1l-401 1l403 518h65v-468v-4q44 2 77 6.5t56 9.5q26 5 45 10v-72zM175 312q85 -11 156 -15t130 -3v433z" />
    <glyph glyph-name="five" unicode="5" horiz-adv-x="743" 
d="M187 508q90 28 174.5 28t150.5 -31.5t107 -94.5t43 -160q1 -46 -20.5 -94t-62.5 -87t-99.5 -64t-131.5 -25q-52 0 -97.5 16.5t-82 45t-64 66.5t-44.5 80l13 6q30 -54 62 -86.5t66 -50t68 -23.5t68 -6q42 0 85.5 14.5t78.5 43t57.5 71.5t21.5 100q-1 71 -31.5 123.5
t-91.5 79t-152 25t-212 -38.5l124 322l1 -1h415v-79q-37 10 -91 19q-46 8 -113.5 14.5t-158.5 8.5z" />
    <glyph glyph-name="six" unicode="6" horiz-adv-x="682" 
d="M494 773q-92 -18 -160.5 -67t-114.5 -116.5t-68.5 -147t-22.5 -159.5q0 -51 11 -103t36.5 -93t67 -66.5t103.5 -24.5q51 1 88 24t62 60t37 83t12 93q0 62 -15 104.5t-40.5 68.5t-59.5 37.5t-71 11.5q-52 0 -96 -12t-82 -32l-6 12q54 30 106.5 50t111.5 20q34 0 74 -14.5
t74.5 -45.5t57.5 -80t23 -118q0 -62 -20.5 -113.5t-57 -88t-88.5 -56.5t-115 -20q-64 0 -117.5 20.5t-92 57.5t-60 88.5t-21.5 112.5q0 101 31.5 190t89 159t139 117t181.5 63z" />
    <glyph glyph-name="seven" unicode="7" horiz-adv-x="593" 
d="M563 709q-74 -46 -137 -123t-109 -172.5t-72 -202t-26 -211.5h-95q16 136 64 266q21 55 50.5 115t70 118t93.5 112t121 99h-463v58h502z" />
    <glyph glyph-name="eight" unicode="8" horiz-adv-x="704" 
d="M421 458q46 -16 86.5 -38.5t71 -52.5t48 -68t17.5 -86q0 -54 -22.5 -97.5t-61.5 -73.5t-91.5 -46t-112.5 -16t-114 16t-94.5 46t-64 73t-23.5 97q0 44 18 82t49 68.5t71.5 52.5t84.5 34q-29 8 -56 22.5t-48 35.5t-33.5 48.5t-12.5 61.5q0 41 20 73t52 53.5t72 33t79 11.5
q44 0 83 -12.5t68 -35.5t46 -54.5t17 -68.5q0 -30 -11.5 -54.5t-31.5 -44.5t-47.5 -35t-58.5 -25zM356 768q-40 0 -70.5 -13.5t-50 -35t-28 -48.5t-3.5 -53q4 -24 19.5 -46.5t40.5 -42t58.5 -34.5t72.5 -23q29 6 49 20.5t32.5 34.5t18 43.5t5.5 47.5q0 69 -39 109.5
t-105 40.5zM356 0q44 0 81.5 14.5t65 42t43 66.5t15.5 87q0 45 -20.5 81t-53.5 63.5t-74.5 46.5t-84.5 30q-44 -7 -78.5 -27.5t-58.5 -50.5t-36.5 -67t-12.5 -77q0 -43 15.5 -81t44 -66.5t67.5 -45t87 -16.5z" />
    <glyph glyph-name="nine" unicode="9" horiz-adv-x="683" 
d="M178 -4q92 15 161 60.5t115 110t69 142.5t23 158q0 52 -10 107t-35 99.5t-67.5 72t-106.5 25.5q-29 -1 -60.5 -12.5t-52.5 -29.5q-43 -36 -63.5 -84t-22.5 -102q-2 -89 35 -139t94.5 -66.5t125.5 -3.5t128 50l7 -11q-34 -19 -70.5 -35.5t-74.5 -27.5t-76 -14.5t-73.5 5
t-67.5 30t-58 60.5q-45 67 -42.5 137t38.5 127t97.5 94t135.5 38q70 1 125 -22.5t93 -67t58 -103.5t20 -131q0 -101 -31.5 -183t-89.5 -143.5t-139 -101t-181 -55.5z" />
    <glyph glyph-name="colon" unicode=":" horiz-adv-x="270" 
d="M103 303l-50 51q-6 6 0 13l50 50q7 7 13 0l51 -50q6 -7 0 -13l-51 -51q-6 -6 -13 0zM103 2l-50 51q-6 6 0 13l50 50q7 7 13 0l51 -50q6 -7 0 -13l-51 -51q-6 -6 -13 0z" />
    <glyph glyph-name="semicolon" unicode=";" horiz-adv-x="272" 
d="M103 303l-50 51q-6 6 0 13l50 50q7 7 13 0l51 -50q6 -7 0 -13l-51 -51q-6 -6 -13 0zM85 19l-32 34q-6 6 0 13l50 50q7 7 13 0l51 -50q6 -7 0 -13l-124 -127l-15 16z" />
    <glyph glyph-name="less" unicode="&#x3c;" horiz-adv-x="562" 
d="M123 362l359 -201v-56l-422 235v44l422 235v-56z" />
    <glyph glyph-name="equal" unicode="=" horiz-adv-x="680" 
d="M90 468v49v0v0h500v-49h-500zM90 251v49v0v0h500v-49h-500z" />
    <glyph glyph-name="greater" unicode="&#x3e;" horiz-adv-x="562" 
d="M80 563v56l422 -235v-44l-422 -235v56l359 201z" />
    <glyph glyph-name="question" unicode="?" horiz-adv-x="659" 
d="M565 571q-12 -46 -34 -77.5t-48.5 -55.5t-54.5 -45.5t-51 -47t-37.5 -60t-14.5 -85.5h-26q0 49 7 85t19 63t26.5 46.5t29.5 34.5q23 23 53 53.5t48 69.5q17 37 16.5 82.5t-18.5 85.5t-52.5 67t-85.5 27q-26 0 -46.5 -7t-42.5 -22t-49.5 -39t-66.5 -58l-67 43
q47 38 86.5 59.5t71.5 32t56.5 13t42.5 2.5q53 0 100.5 -26t81.5 -66t50 -86.5t6 -88.5zM367 49l-47 -47q-7 -9 -16 0l-47 47q-7 7 0 16l47 47q9 7 16 0l47 -47q9 -9 0 -16z" />
    <glyph glyph-name="at" unicode="@" horiz-adv-x="948" 
d="M477 787q83 0 156 -32t127.5 -86.5t86 -128t31.5 -156.5q-2 -56 -20 -116.5t-56 -101.5q-24 -25 -53.5 -37.5t-59 -10.5t-56 19t-44.5 52q-48 -46 -98.5 -59.5t-98.5 -2.5q-38 8 -70.5 29t-54 55.5t-29 84t4.5 115.5q9 51 31 92.5t52.5 70t67.5 41.5t76 5.5t78 -37.5
t74 -87l13 93l75 -2l-41 -299q-2 -20 -3.5 -37t0.5 -31t8 -24t18 -15q22 -9 40 1.5t31.5 30t22 43.5t13.5 42q11 41 14.5 84.5t-1.5 87.5q-6 46 -23 88t-44 77.5t-62 63t-77 42.5q-65 23 -132 16t-127 -40t-108.5 -89.5t-75.5 -132.5q-30 -84 -25 -162.5t36.5 -142.5
t85.5 -110.5t121.5 -67.5t144 -12.5t153.5 54.5l14 -10q-48 -31 -103 -47.5t-117 -16.5q-83 0 -156 31.5t-127.5 86t-86.5 127.5t-32 156q0 85 31.5 159t86.5 129t129 86.5t159 31.5zM318 394q-9 -44 -5.5 -84t16.5 -72t35 -53.5t49 -27.5t55.5 -3t53 15t42.5 34.5t24 55.5
l27 186q3 29 -13 51q-45 59 -90.5 72t-84.5 -6t-68 -64.5t-41 -103.5z" />
    <glyph glyph-name="A" unicode="A" horiz-adv-x="757" 
d="M523 262q-5 11 -16 13t-23 1t-23 -4l-24 -8l-99 -47q-21 -11 -44.5 -19.5t-45.5 -9.5t-40 9t-28 37q-9 -38 -17 -69t-15 -58.5t-13 -53t-10 -53.5h-90l337 768h12l338 -768h-84zM353 654q-10 -21 -24 -52t-30 -68t-33 -77t-32.5 -77t-27.5 -70t-18 -55q-2 -8 7.5 -14.5
t17.5 -5.5q7 1 15 3.5t24 10t45 21.5t78 37q28 13 49 15.5t37.5 -2t28.5 -14t23 -19.5z" />
    <glyph glyph-name="B" unicode="B" horiz-adv-x="660" 
d="M410 478q33 0 71.5 -18t71.5 -50t55 -75.5t22 -93.5q0 -47 -14 -90.5t-47 -77t-87.5 -53.5t-135.5 -20h-286v769h275q38 0 74 -8.5t63.5 -27t44.5 -49t17 -74.5q0 -33 -10 -54t-27 -34.5t-39.5 -23t-47.5 -20.5zM343 21q39 0 73 18t59.5 47.5t40.5 68t17 79.5
q1 30 -9 61.5t-30.5 59t-50.5 48t-69 28.5t-86.5 1t-101.5 -35q-20 -11 -33.5 -29.5t-13.5 -41.5v-307zM450 610q0 28 -10 53t-28.5 43t-45 28.5t-59.5 10.5l-168 -1v-347q17 15 46.5 27t64 24t70 26t64.5 33t47.5 44t18.5 59z" />
    <glyph glyph-name="C" unicode="C" horiz-adv-x="791" 
d="M761 270q-21 -61 -54 -114t-78 -92t-102.5 -61.5t-127.5 -22.5q-92 0 -161.5 34.5t-115.5 91.5t-69 129.5t-23 148.5q0 79 23.5 148t66.5 122.5t103 87t133 42.5q45 5 88 2.5t87.5 -19.5t92 -51.5t100.5 -92.5l-79 -52q-34 57 -70.5 97.5t-80 62.5t-95 23.5t-115.5 -20.5
q-70 -23 -112 -73t-60 -114t-14 -135.5t27 -137.5q19 -51 50.5 -93.5t71 -73.5t86 -48.5t97.5 -17.5q38 0 83 15t88.5 45t82 74.5t63.5 103.5z" />
    <glyph glyph-name="D" unicode="D" horiz-adv-x="756" 
d="M726 384q0 -84 -29 -154t-80.5 -121t-122.5 -79.5t-155 -29.5h-279v768h279q84 0 155 -28t122.5 -78.5t80.5 -121.5t29 -156zM139 19l163 2q76 0 139.5 29t109.5 78.5t71 115t25 138.5q0 65 -25 129.5t-71 116.5t-109.5 84t-139.5 32l-163 -1v-724z" />
    <glyph glyph-name="E" unicode="E" horiz-adv-x="642" 
d="M139 27q97 1 181.5 9t147.5 18q73 11 134 25v-79h-542v768h542v-79q-61 14 -134 25q-63 10 -147.5 17.5t-181.5 9.5v-351q9 18 23.5 32.5t35.5 23t48 10t61 -6.5q42 -10 70 -20t49.5 -14.5t40.5 0.5t44 25l11 -9q-15 -17 -34.5 -32.5t-42 -26t-47.5 -13.5t-52 6
q-59 17 -97 27t-64 3q-19 -5 -31.5 -21.5t-14.5 -35.5v-4v-307z" />
    <glyph glyph-name="F" unicode="F" horiz-adv-x="580" 
d="M570 689q-52 10 -118 18q-57 7 -136.5 13t-176.5 8v-348q19 36 54 53.5t83 5.5q42 -11 70 -21t49.5 -14t40.5 1t44 25l11 -9q-15 -17 -34.5 -32.5t-42 -26t-47.5 -13.5t-52 6q-29 9 -49.5 14.5t-35 8.5t-25.5 3t-22 -2q-20 -4 -32 -19.5t-12 -35.5v-324h-79v768h510v-79
v0z" />
    <glyph glyph-name="G" unicode="G" horiz-adv-x="797" 
d="M549 408q28 17 58 17t57.5 -13t49.5 -36.5t34.5 -52.5t12.5 -61t-16 -62q-1 -1 -1 -2q-25 -44 -60 -83.5t-78.5 -69t-94 -47t-107.5 -17.5q-92 0 -161.5 34.5t-115.5 91.5t-69 129.5t-23 148.5q0 79 23.5 148.5t66.5 123t103 87.5t133 43q45 5 88 2.5t87.5 -19.5
t92 -51.5t100.5 -92.5l-79 -52q-34 57 -70.5 97.5t-80 62.5t-95 23.5t-115.5 -20.5q-70 -23 -111.5 -73.5t-59.5 -115t-14 -136.5t27 -138q19 -51 50 -92.5t70.5 -72t86 -48t97.5 -19.5q40 -2 72.5 5.5t59.5 20.5t49 30.5t40 36.5q22 23 32.5 51t11 55.5t-8.5 52.5t-26 42
q-16 16 -33 24.5t-39.5 8.5t-53 -10t-73.5 -32l-105 -53l-6 14l194 120v0z" />
    <glyph glyph-name="H" unicode="H" horiz-adv-x="682" 
d="M622 768v-768h-79v385q0 11 -6.5 18.5t-17.5 9.5q-17 2 -34.5 -1.5t-45.5 -14.5t-71 -29.5t-110 -46.5q-38 -17 -68.5 -12t-50.5 34v-343h-79v768h79v-385q0 -7 5 -14t14 -7q11 0 24.5 3.5t39.5 14t70 29.5t115 50q38 17 76 7.5t60 -38.5v340h79z" />
    <glyph glyph-name="I" unicode="I" horiz-adv-x="269" 
d="M174 0h-79v768h79v-768z" />
    <glyph glyph-name="J" unicode="J" horiz-adv-x="452" 
d="M392 768v-810q-1 -14 -5 -34t-17 -43.5t-38.5 -47.5t-68.5 -45l-256 -108l-6 14q86 36 155 79q29 18 57 40t50 47t35.5 52.5t13.5 57.5v682q-47 -30 -79.5 -45t-49.5 -22l-177 -75l-6 14q75 38 138 78q27 17 54 37t50.5 41t42 43.5t27.5 44.5h80z" />
    <glyph glyph-name="K" unicode="K" horiz-adv-x="720" 
d="M488 307q30 -41 55 -96.5t59 -115.5t82.5 -118.5t125.5 -104.5l-12 -15q-64 29 -113.5 61.5t-89.5 73t-73 91t-64 113.5q-11 23 -26 47t-32.5 45.5t-37.5 38.5t-42 28q-13 6 -29.5 11t-34 6t-35 -4.5t-32.5 -18.5l-50 -45v-304h-79v768h79v-1v-420q85 85 160 161t132 134
q67 68 123 126h91l-400 -368q34 10 68 7.5t65.5 -15t59 -34t50.5 -51.5z" />
    <glyph glyph-name="L" unicode="L" horiz-adv-x="637" 
d="M144 40q97 1 180 7.5t144 13.5q71 8 129 18v-79h-532v768h79v-728z" />
    <glyph glyph-name="M" unicode="M" horiz-adv-x="1014" 
d="M984 0h-93l-216 713q-50 -194 -97 -377.5t-89 -335.5h-29l-215 713q-16 -62 -28.5 -115t-23.5 -103.5t-21 -101.5t-19.5 -109.5t-19.5 -128t-21 -155.5h-82l195 768h1h83l192 -611l155 611h84z" />
    <glyph glyph-name="N" unicode="N" horiz-adv-x="766" 
d="M645 -10q-25 -11 -46 -11q-31 0 -57.5 18.5t-55.5 56.5q-27 35 -49 85.5t-42.5 109.5t-40 121.5t-41.5 120.5t-47 107.5t-55 82.5q-8 9 -19.5 18t-23.5 17t-24 13t-21 5q-20 0 -20 -26q0 -197 7.5 -331t17.5 -219q11 -99 25 -158h-93v745l67 32q22 11 45 11q17 0 32 -6.5
t32 -19.5q41 -31 73.5 -83t59 -114.5t49 -130.5t44 -132.5t44 -119.5t48.5 -91q4 -6 15 -16.5t24 -20.5t26 -17.5t23 -7.5q9 0 14.5 6.5t5.5 23.5q0 190 -8 323.5t-17 219.5q-11 100 -24 166h93v-750z" />
    <glyph glyph-name="O" unicode="O" horiz-adv-x="800" 
d="M399 788q93 0 162.5 -34.5t116 -91.5t69.5 -129.5t23 -148.5t-23 -148.5t-69.5 -129.5t-116 -91.5t-162.5 -34.5q-92 0 -161.5 34.5t-115.5 91.5t-69 129.5t-23 148.5t23 148.5t69 129.5t115.5 91.5t161.5 34.5zM519 35q70 24 111.5 73.5t58 112t11.5 132t-27 134.5
q-22 66 -59 122t-86.5 92t-110.5 47.5t-131 -12.5q-70 -23 -112.5 -72t-61 -111t-15 -132.5t26.5 -136.5q29 -77 69 -134t89.5 -90.5t108.5 -40.5t128 16z" />
    <glyph glyph-name="P" unicode="P" horiz-adv-x="645" 
d="M139 379q0 -24 9.5 -33t31.5 -9q105 0 174 12.5t109.5 39t57 68.5t16.5 102q0 52 -20.5 86t-53.5 54.5t-75.5 29.5t-87 12t-86.5 1t-75 -3v-360zM610 559q0 -59 -20 -101t-53.5 -70t-77.5 -43.5t-91 -23.5t-94 -10t-88 -1h-47v-310h-79v769h79h121q29 0 65.5 -1.5
t74 -7.5t73.5 -19.5t65 -36.5t48.5 -58.5t23.5 -86.5z" />
    <glyph glyph-name="Q" unicode="Q" horiz-adv-x="865" 
d="M676 111q24 -35 51 -68t61 -63.5t75 -56.5t92 -45l-10 -17q-57 15 -102.5 32t-84 39.5t-72 52.5t-66.5 70q-44 -35 -100.5 -55t-125.5 -20q-92 0 -161.5 34.5t-115.5 91.5t-69 129.5t-23 148.5t23 148.5t69 129.5t115.5 91.5t161.5 34.5q93 0 162.5 -34.5t116 -91.5
t69.5 -129.5t23 -148.5q0 -75 -22 -145.5t-67 -127.5zM279 736q-57 -19 -94.5 -54t-59.5 -80.5t-29 -98t-2.5 -106.5t20 -106t38.5 -96q6 4 16 12t21 16.5t22.5 16.5t20.5 13q24 15 47.5 27t47.5 20q14 5 41.5 10t60.5 3t68.5 -13.5t64.5 -38.5q23 -23 45.5 -53t46.5 -65
q21 34 32.5 75.5t13.5 85.5t-4 89t-21 88q-22 66 -60.5 123t-90 94.5t-113.5 49.5t-132 -12zM182 145q36 -53 85.5 -85t105 -41.5t114 5.5t112.5 56q-17 21 -33 45q-21 28 -44 59t-52.5 54t-67 34t-85.5 1q-32 -8 -68.5 -28.5t-60.5 -43.5q-11 -11 -13 -27t7 -29z" />
    <glyph glyph-name="R" unicode="R" horiz-adv-x="714" 
d="M482 309q30 -41 55 -96.5t59 -115.5t82.5 -118.5t125.5 -104.5l-12 -15q-64 29 -113.5 61.5t-89.5 73t-73 91t-64 113.5q-23 47 -48 76.5t-56.5 46.5t-70.5 24t-90 9h-48v-354h-79v769h200q29 0 64.5 -1t71.5 -7t70.5 -19t61 -36t42.5 -58t16 -86q0 -44 -18 -78.5
t-48 -59.5t-69.5 -40t-81.5 -19q34 -2 62 -13.5t51 -42.5zM180 379q109 -1 174.5 14.5t100 41t45 58.5t10.5 67q0 55 -18.5 90t-48.5 55.5t-69 28.5t-80.5 9.5t-81.5 -1t-73 -3.5v-318q0 -24 9.5 -33t31.5 -9z" />
    <glyph glyph-name="S" unicode="S" horiz-adv-x="731" 
d="M691 208q0 -64 -30.5 -108t-75.5 -71t-97.5 -39t-97.5 -12q-54 0 -107 13t-99 40.5t-83 70.5t-61 102l19 10q28 -58 80 -98.5t112.5 -62.5t123.5 -24t114 17.5t83.5 62.5t32.5 110q0 48 -21.5 76t-57 44.5t-80.5 24.5t-91 17q-23 4 -53 8t-61.5 10.5t-62 18t-54.5 30
t-38.5 47t-14.5 69.5q1 58 30 100t74 69t100.5 40t109.5 13q88 0 165.5 -47t130.5 -127l-74 -45q-46 95 -106.5 143.5t-141.5 48.5q-34 0 -72.5 -10.5t-70.5 -33t-52 -56.5t-17 -82q3 -43 28 -67t63.5 -37t87 -19.5t99 -13.5t98.5 -19.5t85 -37.5t60 -66.5t23 -108.5z
M691 208q0 -64 -30.5 -108t-75.5 -71t-97.5 -39t-97.5 -12q-54 0 -107 13t-99 40.5t-83 70.5t-61 102l19 10q28 -58 80 -98.5t112.5 -62.5t123.5 -24t114 17.5t83.5 62.5t32.5 110q0 48 -21.5 76t-57 44.5t-80.5 24.5t-91 17q-23 4 -53 8t-61.5 10.5t-62 18t-54.5 30
t-38.5 47t-14.5 69.5q1 58 30 100t74 69t100.5 40t109.5 13q88 0 165.5 -47t130.5 -127l-74 -45q-46 95 -106.5 143.5t-141.5 48.5q-34 0 -72.5 -10.5t-70.5 -33t-52 -56.5t-17 -82q3 -43 28 -67t63.5 -37t87 -19.5t99 -13.5t98.5 -19.5t85 -37.5t60 -66.5t23 -108.5z" />
    <glyph glyph-name="T" unicode="T" horiz-adv-x="714" 
d="M320 0v729q-73 -5 -129.5 -11.5t-95.5 -13.5q-46 -8 -80 -16v80h684v-80q-34 8 -79 16q-38 7 -94 13.5t-126 11.5v-729h-80z" />
    <glyph glyph-name="U" unicode="U" horiz-adv-x="751" 
d="M621 768q23 -107 39 -182.5t26.5 -127.5t16.5 -83.5t9 -50t3.5 -27.5t0.5 -16q0 -72 -26 -128t-73 -94.5t-113 -58.5t-146 -20q-74 0 -134 22t-102 58.5t-64.5 85.5t-22.5 103q0 39 10.5 79.5t35 79.5t64 75.5t96.5 68.5q26 17 26 30q0 7 -4 12l-197 174h119l152 -138
q12 -12 12 -24q0 -8 -5.5 -14.5t-13.5 -11.5l-74 -51q-74 -56 -106 -121t-32 -131q0 -54 19.5 -103.5t52.5 -87t76.5 -59.5t91.5 -22q50 0 100 18t90 50.5t65 77.5t25 99q0 4 -0.5 10t-3.5 23t-9 49t-17 88.5t-28 141t-41 206.5h82v0z" />
    <glyph glyph-name="V" unicode="V" horiz-adv-x="756" 
d="M716 570q14 -43 7.5 -87.5t-32.5 -81.5l-291 -401h-93l-272 768h97l234 -681q7 -17 26.5 -20t30.5 11l166 250q35 54 48.5 117t-7.5 124l-69 199h87z" />
    <glyph glyph-name="W" unicode="W" horiz-adv-x="1016" 
d="M974 462q17 -47 10 -95t-35 -89l-194 -278h-68l-104 286l-200 -286h-75l-273 768h94l236 -688q5 -12 17 -13.5t18 9.5l163 266l-148 426h87l239 -688q5 -11 17 -12.5t18 9.5l93 159q28 48 35.5 102.5t-10.5 106.5l-117 323h88z" />
    <glyph glyph-name="X" unicode="X" horiz-adv-x="767" 
d="M632 2l-264 368q-15 -19 -38.5 -49t-53.5 -74.5t-64 -105t-69 -141.5h-108l316 396l-267 374h98l219 -306q32 47 78.5 120.5t94.5 185.5h108l-263 -330l313 -438h-100z" />
    <glyph glyph-name="Y" unicode="Y" horiz-adv-x="709" 
d="M679 769l-260 -366q-8 -11 -16 -26.5t-8 -32.5v-344h-40h-41v344q0 17 -8 32.5t-16 26.5l-260 366h103q30 -70 61 -129.5t60 -108t55 -84.5t46 -59q20 23 46 59t55 84.5t60 108t61 129.5h102z" />
    <glyph glyph-name="Z" unicode="Z" horiz-adv-x="759" 
d="M439 412q-25 -14 -58 -37.5t-68.5 -54t-70 -66t-61.5 -73t-44 -75t-17 -72.5q122 4 231.5 11.5t194.5 15.5q99 9 183 19v-80h-699q0 61 20 110t53 88.5t75 72.5t85.5 61.5t86 54.5t75.5 53q40 32 76.5 69.5t64 76.5t44 76.5t16.5 70.5q-128 -5 -235 -11.5t-187 -14.5
q-93 -9 -169 -18v80h685q0 -79 -26.5 -134.5t-67.5 -96t-91 -70t-96 -56.5z" />
    <glyph glyph-name="bracketleft" unicode="[" horiz-adv-x="340" 
d="M90 768h200v-40h-132v-1009h132v-39h-200v1088z" />
    <glyph glyph-name="backslash" unicode="\" horiz-adv-x="461" 
d="M339 0l-289 768h60l291 -768h-62z" />
    <glyph glyph-name="bracketright" unicode="]" horiz-adv-x="340" 
d="M250 -320h-200v39h132v1009h-132v40h200v-1088z" />
    <glyph glyph-name="asciicircum" unicode="^" horiz-adv-x="634" 
d="M317 858l-201 -359h-56l257 461l257 -461h-56z" />
    <glyph glyph-name="underscore" unicode="_" horiz-adv-x="680" 
d="M40 -249v49v0v0h600v-49h-600z" />
    <glyph glyph-name="grave" unicode="`" horiz-adv-x="288" 
d="M224 824l-174 90l52 46q28 -27 52.5 -49t43.5 -38q22 -18 40 -34z" />
    <glyph glyph-name="a" unicode="a" horiz-adv-x="617" 
d="M526 0l-25 64q-38 -33 -87.5 -53.5t-102 -27.5t-103 0.5t-90 31t-64 63t-24.5 97.5q0 65 33.5 113.5t87.5 71.5t121.5 15.5t135.5 -53.5l-21 52q-13 29 -30.5 51.5t-41 35.5t-53 15.5t-67.5 -7.5q-40 -11 -81 -30t-73 -39l-7 13l132 88q39 25 84 28.5t86 -10t74.5 -43
t48.5 -71.5l148 -405h-81zM105 175q0 -52 19 -88.5t49.5 -58t69.5 -27t79 4.5t78 36t67 69q7 10 6.5 23t-5.5 24l-47 122q-11 28 -38 40q-68 30 -119.5 31t-87 -20.5t-53.5 -62t-18 -93.5z" />
    <glyph glyph-name="b" unicode="b" horiz-adv-x="658" 
d="M403 767l6 -14q-77 -33 -138 -73q-26 -17 -50.5 -38t-44 -44.5t-31 -50t-11.5 -54.5v-104q45 56 99 87t108.5 39.5t105.5 -5t90 -47.5t62.5 -87.5t23.5 -124.5q0 -72 -24 -123t-63.5 -82.5t-91 -44t-105.5 -8t-107.5 25.5t-97.5 57v-76h-80v491v3v11q1 14 5 34t17 43.5
t38 47.5t69 45zM134 198q0 -11 2 -22.5t6 -19.5q29 -54 69.5 -87.5t84 -46.5t86.5 -5t77 36.5t56.5 77.5t24.5 120q2 66 -21.5 118.5t-66 81t-99 29t-120.5 -36.5q-55 -32 -77 -54.5t-22 -47.5v-143z" />
    <glyph glyph-name="c" unicode="c" horiz-adv-x="624" 
d="M472 378q-22 40 -47 70.5t-55 48.5t-65 21.5t-75 -9.5q-51 -17 -79 -49.5t-37.5 -73t-5 -86.5t18.5 -90q16 -45 37 -81t48 -60t60.5 -34.5t75.5 -5.5q31 6 64.5 18t64 33t57.5 51.5t46 73.5l19 -9q-47 -93 -101.5 -141t-117.5 -64q-14 -5 -31 -7.5t-38 -2.5
q-70 0 -122.5 24t-87.5 63.5t-52.5 89.5t-17.5 102.5t17.5 103t52.5 90t87.5 63.5t122.5 24q41 0 76 -11t63.5 -28t51 -38.5t37.5 -42.5z" />
    <glyph glyph-name="d" unicode="d" horiz-adv-x="658" 
d="M475 675q43 -21 68.5 -45t38.5 -47.5t17 -43.5t5 -34v-11v-3v-491h-80v76q-44 -36 -97.5 -57t-107.5 -25.5t-105.5 8t-91 44t-63.5 82.5t-24 123q0 71 23.5 124.5t62.5 87.5t90 47.5t105.5 5t108 -39.5t99.5 -87v104q0 28 -12 54.5t-31.5 50t-44 44.5t-50.5 38
q-61 40 -137 73l6 14zM516 156q4 8 6 19.5t2 22.5v143q0 25 -22 47.5t-77 54.5q-64 37 -120.5 36.5t-99 -29t-66 -81t-21.5 -118.5q2 -70 24.5 -119.5t56.5 -78t77 -36.5t86.5 5t83.5 46.5t70 87.5z" />
    <glyph glyph-name="e" unicode="e" horiz-adv-x="624" 
d="M599 195q-47 -93 -101.5 -141t-117.5 -64q-14 -5 -31 -7.5t-38 -2.5q-70 0 -122.5 24t-87.5 63.5t-52.5 89.5t-17.5 102.5t17.5 103t52.5 90t87.5 63.5t122.5 24q53 0 96 -13.5t76 -37.5t56 -56.5t36 -69.5l-442 -172q14 -39 34.5 -72.5t47.5 -57t60.5 -35.5t75.5 -7
q31 6 64 19.5t63 36t56.5 54.5t45.5 75zM230 509q-51 -17 -79 -49.5t-37.5 -73.5t-5 -87t18.5 -90l351 161q-17 37 -40.5 69t-54.5 52.5t-69 26.5t-84 -9z" />
    <glyph glyph-name="f" unicode="f" horiz-adv-x="350" 
d="M330 520v-61h-115v-459h-80v459h-115v61h115v34.5t-2 35t-7 29t-15 17.5l-45 22q-9 4 -13 11t-4 15.5t4 16t13 11.5q26 11 46 21q17 8 32.5 15t17.5 8q22 10 39.5 11t34 -4.5t34 -17t40.5 -27.5l-7 -11q-23 13 -40.5 14.5t-31.5 -4.5l-114 -51q-5 -2 -5 -7.5t5 -7.5
l51 -25q21 -11 34 -33.5t13 -48.5v-24h115z" />
    <glyph glyph-name="g" unicode="g" horiz-adv-x="697" 
d="M476 83q36 35 74 38.5t67.5 -13t46.5 -49t10.5 -70.5t-41.5 -76.5t-109 -67.5l-351 -165l-6 14q79 41 151 82q31 18 63.5 37.5t63 39.5t58 39.5t48.5 37.5q25 22 32 46.5t0 44.5t-24.5 31.5t-39.5 8.5q-25 -5 -49 -21t-48 -37t-49 -44.5t-53 -43t-59 -32t-67 -12.5
q-44 0 -79.5 15.5t-58 41.5t-31.5 59t0.5 68t38 68.5t80.5 61.5q-32 30 -48 68t-15.5 77.5t18 77t51.5 67t84.5 47.5t117.5 18q21 0 40.5 -2.5t37.5 -6.5q22 -5 34 -2t26 8q16 5 29 10.5t23 10.5q11 5 20 9l8 -11l-68 -48l6 -3q49 -25 77.5 -64t36 -82t-6 -86.5t-47 -78.5
t-88 -57t-128.5 -22q-51 0 -92.5 10t-73.5 29q-18 11 -35.5 3.5t-27.5 -22.5q-25 -38 -24 -73t18 -61.5t45 -42t58 -15.5q28 0 56.5 7.5t59.5 24t65.5 43t74.5 65.5zM352 515q-54 0 -91 -15.5t-59 -41t-32 -59.5t-10 -70q0 -37 10 -71t32.5 -60.5t59 -42.5t90.5 -16t91 16
t59 42.5t31.5 60.5t9.5 71q0 36 -9.5 70t-32 59.5t-59 41t-90.5 15.5z" />
    <glyph glyph-name="h" unicode="h" horiz-adv-x="571" 
d="M530 405q2 -26 1 -52t-1 -52v-301h-80v278v96q0 57 -33.5 86.5t-93.5 15.5q-40 -10 -85 -28.5t-84 -36.5q-14 -7 -18.5 -17.5t-5.5 -18.5v-375h-80v505q1 14 5 34t17 43.5t38 47.5t69 45l220 92l6 -14q-77 -33 -138 -73q-26 -17 -50.5 -38t-44 -44.5t-31 -50t-11.5 -54.5
v-77q18 9 37 18t41.5 19.5t51 23t66.5 29.5q33 16 68 17t64.5 -12t49.5 -40t22 -66z" />
    <glyph glyph-name="i" unicode="i" horiz-adv-x="238" 
d="M158 520h-80v-520h80v520zM188 717l-65 -35q-4 -2 -8 0l-65 35q-5 2 -5 7.5t5 8.5l65 34q4 2 8 0l65 -34q5 -3 5 -8.5t-5 -7.5z" />
    <glyph glyph-name="j" unicode="j" horiz-adv-x="240" 
d="M81 -30q0 -30 -13.5 -57.5t-35.5 -52.5t-50 -47t-57 -40q-69 -43 -155 -79l6 -14l256 108q43 21 68.5 45t38.5 47.5t17 43.5t5 34v562h-80v-550zM190 716l-65 -35q-4 -2 -8 0l-65 35q-5 2 -5 7.5t5 8.5l65 34q4 2 8 0l65 -34q5 -3 5 -8.5t-5 -7.5z" />
    <glyph glyph-name="k" unicode="k" horiz-adv-x="539" 
d="M529 0h-98l-227 282l-70 -34v-248h-80v491v3v11q1 14 5 34t17 43.5t38 47.5t69 45l220 92l6 -14q-77 -33 -138 -73q-26 -17 -50.5 -38t-44 -44.5t-31 -50t-11.5 -54.5v-215l197 92q10 4 19.5 11t15 15.5t5.5 19t-9 22.5l-46 51q-12 12 -21.5 19t-26.5 12h70q23 0 45 -10
t37 -28l28 -34q12 -14 8 -32.5t-21 -26.5l-160 -77z" />
    <glyph glyph-name="l" unicode="l" horiz-adv-x="241" 
d="M55 521q0 6 2 27t13.5 48t37.5 55.5t74 51.5l148 63l6 -14l-10.5 -5t-27.5 -13t-39 -20.5t-46 -27.5q-8 -5 -20.5 -16.5t-25 -30.5t-22 -46.5t-10.5 -64.5v-528h-80v521z" />
    <glyph glyph-name="m" unicode="m" horiz-adv-x="819" 
d="M773 405q2 -26 1 -52t-1 -52v-301h-80v278v96q0 28 -9 51t-25.5 37t-38.5 17.5t-48 -6.5q-24 -10 -52 -27t-52 -34q-21 -15 -21 -41q0 -18 -0.5 -35.5t-0.5 -34.5v-301h-80v278v96q0 28 -9 51t-25.5 37t-38.5 17.5t-48 -6.5q-24 -10 -52 -27t-52 -34q-21 -15 -21 -41
v-371h-80v520h80v-104q23 18 55.5 40.5t71.5 44.5q34 19 67.5 21.5t61 -9t46 -36.5t23.5 -61q25 18 60.5 42.5t68.5 42.5q35 19 70 21.5t62.5 -10.5t46 -40.5t20.5 -66.5z" />
    <glyph glyph-name="n" unicode="n" horiz-adv-x="575" 
d="M530 0h-80v374q0 44 -16 66t-41.5 29t-58 1.5t-65 -16.5t-63 -25t-52.5 -24q-15 -7 -19.5 -18.5t-4.5 -19.5v-367h-80v520h80v-104q18 9 37 18t41.5 19.5t51 23t66.5 29.5q33 16 68 17t64.5 -12t49.5 -40t22 -66v-405z" />
    <glyph glyph-name="o" unicode="o" 
d="M311 540q70 0 123 -24t88 -63.5t52.5 -90t17.5 -103t-17.5 -102.5t-53 -89.5t-88 -63.5t-122.5 -24t-122.5 24t-87.5 63.5t-52.5 89.5t-17.5 102.5t17.5 103t52.5 90t87.5 63.5t122.5 24zM395 12q54 18 82 51.5t37.5 75.5t3 89.5t-21.5 92.5t-38 86.5t-56 70t-75.5 39
t-95.5 -7.5t-81 -51.5t-37 -76t-3.5 -90t20.5 -92.5t39 -86t56.5 -69.5t74.5 -39t95 7.5z" />
    <glyph glyph-name="p" unicode="p" horiz-adv-x="649" 
d="M125 -320h-80v840h80v-131q45 56 99 87t108.5 39.5t105.5 -5t90 -47.5t62.5 -87.5t23.5 -124.5q0 -72 -24 -123t-63.5 -82.5t-91 -44t-105.5 -8t-107.5 25.5t-97.5 57v-396zM125 187q0 -14 4 -27t11 -24q29 -47 69 -75.5t82.5 -38.5t84.5 -0.5t76 38t55.5 76t23.5 115.5
q2 66 -21.5 118.5t-66 81t-99 29t-120.5 -36.5q-53 -31 -75 -52.5t-24 -44.5v-159z" />
    <glyph glyph-name="q" unicode="q" horiz-adv-x="770" 
d="M609 -140q0 -8 -2 -19t-13 -32q18 19 38.5 33.5t40.5 26t38 20t32 14.5l7 -17q0 -1 -16.5 -8.5t-51.5 -31.5q-26 -19 -52 -44q-23 -22 -50 -52.5t-51 -69.5v396q-44 -36 -97.5 -57t-107.5 -25.5t-105.5 8t-91 44t-63.5 82.5t-24 123q0 71 23.5 124.5t62.5 87.5t90 47.5
t105.5 5t108 -39.5t99.5 -87v131h80v-660zM514 136q7 11 11 24t4 27v159q-2 23 -24 44.5t-75 52.5q-64 37 -120.5 36.5t-99 -29t-66 -81t-21.5 -118.5q2 -67 23.5 -115t55.5 -76.5t76 -38t84.5 0.5t82.5 38.5t69 75.5z" />
    <glyph glyph-name="r" unicode="r" horiz-adv-x="385" 
d="M299 406q-14 4 -25.5 16t-22 24t-21 21t-22.5 8q-12 -2 -26.5 -13t-27 -26.5t-21 -33t-8.5 -30.5v-372h-80v520h80v-99q11 15 26.5 33.5t32 35t32 28t27.5 12.5q22 1 38 -11.5t30 -29t29 -30t35 -13.5q2 0 10 2q-16 -14 -31 -25q-14 -9 -28.5 -15.5t-26.5 -1.5z" />
    <glyph glyph-name="s" unicode="s" horiz-adv-x="563" 
d="M132 388q0 -29 17.5 -44t45.5 -23t64.5 -10.5t74 -6.5t74 -12t64.5 -25.5t45.5 -47.5t17.5 -79q0 -44 -24 -74.5t-59.5 -49.5t-77 -27.5t-75.5 -8.5q-43 0 -84 9t-77 28t-65.5 49t-47.5 71l17 9q24 -41 59 -66t71.5 -38.5t70.5 -17.5t57 -4q27 0 54 7.5t48.5 22.5
t35.5 37.5t14 53.5q0 32 -18.5 52t-46 32t-59 17.5t-57.5 7.5q-34 3 -73.5 6.5t-73.5 16.5t-56 39.5t-20 74.5q1 36 20 63.5t49.5 46t68 29t76.5 13.5q9 1 18 1.5t17 0.5q41 0 76 -11t63.5 -28.5t51 -39t37.5 -42.5l-67 -43q-42 78 -97.5 116.5t-131.5 18.5q-45 -14 -71 -48
t-26 -76z" />
    <glyph glyph-name="t" unicode="t" horiz-adv-x="435" 
d="M415 40q-8 -4 -21 -9.5t-28 -11.5t-29.5 -12t-25.5 -11q-33 -16 -68.5 -16.5t-65.5 12.5t-50.5 40t-22.5 66q-2 26 -1.5 52t0.5 52v258h-68v60h68q0 5 2 27t13 50t35 57t69 49l148 63l6 -14q-18 -8 -38 -18q-17 -9 -39 -21t-46 -27q-8 -5 -20.5 -17t-24 -32t-20 -49
t-8.5 -68h196v-60h-180q-9 0 -15 -6t-6 -15v-221v-89q0 -28 8.5 -51.5t25 -39t40 -21.5t53.5 2q9 2 23 6t30 9t31 10t24 9z" />
    <glyph glyph-name="u" unicode="u" horiz-adv-x="537" 
d="M487 520v-520h-79v101q-28 -19 -67.5 -45.5t-90.5 -49.5q-17 -8 -36 -12t-37 -4q-25 0 -49 8.5t-42.5 25t-29.5 39.5t-11 52v405h79v-374q0 -29 9 -52.5t25.5 -38.5t40.5 -20t54 4q26 8 63 27t72 41q8 5 14 14.5t6 20.5v378h79z" />
    <glyph glyph-name="v" unicode="v" horiz-adv-x="549" 
d="M509 418q10 -28 9.5 -57t-13.5 -55l-223 -306h-88l-185 520h92l152 -447q2 -5 7 -9.5t12 -6.5t14 0t12 10l145 194q8 10 10 31.5t-7 47.5l-64 180h92l35 -102v0z" />
    <glyph glyph-name="w" unicode="w" horiz-adv-x="764" 
d="M715 324q10 -27 8 -55.5t-14 -54.5l-143 -214h-85l-60 169l-116 -169h-85l-185 520h89l153 -447q2 -5 7 -9.5t11 -6.5t13 0t12 10l95 118l-119 335h89l153 -447q1 -5 6.5 -9.5t12 -6.5t13.5 0t12 10l74 96q8 14 10.5 28.5t-2.5 31.5l-106 297h89l68 -196v0z" />
    <glyph glyph-name="x" unicode="x" horiz-adv-x="608" 
d="M476 0l-154 193q-7 8 -18 8t-18 -8l-154 -193h-97l213 259q5 5 5 13t-5 14l-188 234h89l139 -174q6 -8 16 -8t16 8l138 174h90l-188 -234q-5 -6 -5 -14t5 -13l213 -259h-97z" />
    <glyph glyph-name="y" unicode="y" horiz-adv-x="537" 
d="M487 -42q-1 -14 -5 -34t-17 -43.5t-38.5 -47.5t-68.5 -45l-256 -108l-6 14q86 36 155 79q29 18 57 40t50 47t35.5 52.5t13.5 57.5v132v-1q-28 -19 -67 -41.5t-90 -45.5q-33 -15 -68 -16t-64.5 12t-49.5 39.5t-22 65.5q-2 26 -1 51.5t1 51.5v302h80v-278v-96
q0 -29 8.5 -52t25 -37.5t40 -19t53.5 4.5q26 8 63 25.5t72 39.5q8 5 13.5 14.5t5.5 20.5v378h80v-562z" />
    <glyph glyph-name="z" unicode="z" horiz-adv-x="560" 
d="M323 279q-25 -14 -58 -42.5t-63 -63.5t-50.5 -72.5t-20.5 -70.5q78 4 148 12.5t124 16.5q62 10 116 21v-80h-479q0 68 30 113.5t73 78t90 58t81 52.5q27 22 48.5 46.5t36 49t22.5 48t8 43.5q-78 -5 -146.5 -13t-120.5 -16q-61 -10 -112 -20v80h470q0 -60 -19 -98.5
t-48 -64t-64 -43t-66 -35.5z" />
    <glyph glyph-name="braceleft" unicode="{" horiz-adv-x="387" 
d="M50 223q0 5 3 9t8 5q13 3 30 9.5t32 20t25.5 34.5t10.5 54v241q0 43 11.5 73.5t32.5 52t51.5 36t68.5 24.5l4 -13q-25 -10 -43.5 -20.5t-31 -25.5t-18.5 -36.5t-6 -53.5v-255q0 -37 -15.5 -64t-37.5 -45.5t-46 -29.5t-41 -16q17 -5 41 -16t46 -29.5t37.5 -45.5t15.5 -64
v-256q0 -32 6 -53t18.5 -36t31 -25.5t43.5 -20.5l-4 -13q-38 10 -68.5 24t-51.5 36t-32.5 52.5t-11.5 73.5v241q0 33 -10.5 54t-25.5 34.5t-32 20t-30 9.5q-5 1 -8 5t-3 9z" />
    <glyph glyph-name="bar" unicode="|" horiz-adv-x="248" 
d="M158 -320h-68v1088h68v-1088z" />
    <glyph glyph-name="braceright" unicode="}" horiz-adv-x="387" 
d="M337 223q0 -5 -3 -9t-8 -5q-13 -3 -30 -9.5t-32 -20t-25.5 -34.5t-10.5 -54v-241q0 -43 -11.5 -73.5t-32.5 -52.5t-51.5 -36t-68.5 -24l-4 13q25 10 43.5 20.5t31 25.5t18.5 36t6 53v256q0 37 15.5 64t37.5 45.5t46 29.5t41 16q-17 5 -41 16t-46 29.5t-37.5 45.5
t-15.5 64v255q0 32 -6 53.5t-18.5 36.5t-31 25.5t-43.5 20.5l4 13q38 -10 68.5 -24.5t51.5 -36t32.5 -52t11.5 -73.5v-241q0 -33 10.5 -54t25.5 -34.5t32 -20t30 -9.5q5 -1 8 -5t3 -9z" />
    <glyph glyph-name="asciitilde" unicode="~" horiz-adv-x="715" 
d="M433 248q-37 11 -80 31.5t-97 31.5q-46 9 -91 -5t-93 -53l-12 8q25 33 54.5 58.5t61.5 40.5t65.5 19t65.5 -6q45 -14 89 -32.5t90 -28.5q19 -4 43 0.5t46.5 13.5t41 19t26.5 18l12 -9q-45 -58 -103.5 -87.5t-118.5 -18.5z" />
    <glyph glyph-name="exclamdown" unicode="&#xa1;" horiz-adv-x="297" 
d="M94 721l47 47q7 9 16 0l47 -47q7 -7 0 -16l-47 -47q-9 -7 -16 0l-47 47q-9 9 0 16zM195 0q-8 101 -13 183t-9 150t-6.5 126t-4.5 111h-28q-2 -53 -4 -111t-6 -126t-9 -150t-13 -183h93z" />
    <glyph glyph-name="cent" unicode="&#xa2;" 
d="M270 -86v70q-80 9 -133 51t-80 100.5t-27 125t26.5 125t80 101t133.5 51.5v71h45v-68q40 -1 74 -12t62 -28t50 -38t37 -42l-67 -43q-31 57 -69.5 94t-86.5 45v-490h16t16 2q31 6 64.5 18t64 33t57.5 51.5t46 73.5l19 -9q-47 -93 -101.5 -141t-117.5 -64
q-14 -4 -29.5 -6.5t-34.5 -3.5v-67h-45zM126 210q24 -68 58.5 -113t85.5 -62v483q-10 -1 -20 -3.5t-21 -5.5q-51 -17 -79 -49.5t-37.5 -73t-5 -86.5t18.5 -90z" />
    <glyph glyph-name="sterling" unicode="&#xa3;" horiz-adv-x="748" 
d="M157 40q97 1 184.5 7.5t154.5 13.5q78 8 145 18v-79h-571l84 351h-62v18q17 1 33.5 1.5t33.5 1.5l53 217q12 57 35.5 97t57 65.5t75.5 37t91 11.5q52 0 104 -31.5t93 -97.5l-80 -51q-3 36 -17 65.5t-34 50.5t-43.5 32.5t-46.5 11.5q-19 0 -41 -8t-43.5 -30t-41.5 -61
t-36 -102l-44 -202q56 5 100.5 8.5t76.5 7.5q37 4 66 8v-50h-250z" />
    <glyph glyph-name="currency" unicode="&#xa4;" horiz-adv-x="561" 
d="M496 327q0 -39 -13.5 -73.5t-36.5 -62.5l79 -79l-31 -34l-81 81q-27 -21 -60.5 -33t-71.5 -12t-71 12t-60 33l-80 -80l-34 31l81 81q-23 28 -36 62.5t-13 73.5q0 38 12 71.5t32 60.5l-82 82l32 32l82 -81q28 23 63 36.5t74 13.5t74 -13t63 -36l81 81l32 -32l-81 -81
q22 -28 34 -62t12 -72zM387 181q25 21 38 49.5t15 60.5t-6.5 65t-26.5 62q-21 31 -50.5 52t-62 28.5t-65.5 0t-62 -33.5q-23 -23 -34 -51.5t-12 -59.5t8.5 -62.5t28.5 -59.5t47 -48t59.5 -28t63.5 -3t59 28z" />
    <glyph glyph-name="yen" unicode="&#xa5;" horiz-adv-x="709" 
d="M154 378h151l-15 25l-260 366h103q30 -70 61 -129.5t60 -108t55 -84.5t46 -59q20 23 46 59t55 84.5t60 108t61 129.5h102l-260 -366q-4 -5 -8 -11.5t-7 -13.5h150v-45h-159v-89h159v-44h-159v-200h-81v200h-160v44h160v89h-160v45z" />
    <glyph glyph-name="brokenbar" unicode="&#xa6;" horiz-adv-x="248" 
d="M90 769h68v-323h-68v323zM90 323h68v-323h-68v323z" />
    <glyph glyph-name="section" unicode="&#xa7;" horiz-adv-x="615" 
d="M453 102q20 -11 38.5 -24.5t32.5 -30t22.5 -37.5t8.5 -47q0 -57 -23 -96.5t-59.5 -64t-81.5 -36t-88 -11.5q-37 0 -78.5 15.5t-78.5 41t-65.5 57.5t-40.5 65l64 35q37 -93 93 -140.5t128 -47.5q32 0 62.5 9t54.5 29.5t38.5 52.5t14.5 78q0 30 -17.5 50.5t-46 35.5
t-64.5 26t-74 23t-74 26.5t-64.5 36.5t-46 53t-17.5 76q0 38 19 77.5t51 87.5q-20 10 -38 23t-32 30t-22.5 38t-8.5 47q0 57 23 96.5t59.5 64t81 36t88.5 11.5q42 0 82 -15.5t75 -41t62.5 -57.5t43.5 -66l-64 -34q-38 93 -93 140.5t-128 47.5q-32 0 -62.5 -9t-54 -29.5
t-38 -52.5t-14.5 -78q0 -33 17.5 -55t45.5 -37t64.5 -25.5t74 -21t74 -24.5t64.5 -35t45.5 -52.5t17.5 -77.5q0 -38 -19.5 -76.5t-51.5 -86.5zM180 432q-20 -39 -27 -70.5t-7 -56.5q0 -37 12.5 -62t34 -41.5t50.5 -27.5t61 -20t65.5 -19t65.5 -24q20 39 27 70.5t7 56.5
q0 37 -12.5 61.5t-34 41t-50 27.5t-60.5 20t-66 19t-66 25z" />
    <glyph glyph-name="dieresis" unicode="&#xa8;" horiz-adv-x="436" 
d="M153 894l-47 -47q-7 -9 -16 0l-47 47q-7 7 0 16l47 47q9 7 16 0l47 -47q9 -9 0 -16zM392 894l-47 -47q-7 -9 -16 0l-47 47q-7 7 0 16l47 47q9 7 16 0l47 -47q9 -9 0 -16z" />
    <glyph glyph-name="copyright" unicode="&#xa9;" horiz-adv-x="863" 
d="M431 782q84 0 157 -31.5t127.5 -86t86 -127.5t31.5 -156t-31.5 -156t-86 -127.5t-127.5 -86t-157 -31.5q-83 0 -156 31.5t-127.5 86t-86 127.5t-31.5 156t31.5 156t86 127.5t127.5 86t156 31.5zM594 48q45 21 80.5 54.5t60 75t37.5 89t13 97.5q0 42 -10 84t-30 84h1
q-25 51 -61.5 91t-80 68t-92.5 42.5t-98 14.5q-74 0 -144 -33v1q-45 -23 -80.5 -56.5t-60 -74.5t-37.5 -88.5t-13 -97.5q0 -86 39 -170h-1q25 -51 61 -90.5t79.5 -67.5t92 -42.5t99.5 -14.5q74 0 145 34zM667 325q-14 -39 -34.5 -72.5t-49 -58t-64.5 -39t-79 -14.5
q-58 0 -101 21.5t-72 56.5t-43.5 80.5t-14.5 92.5q0 49 14.5 92.5t41.5 76.5t64.5 54t83.5 27q37 3 67.5 -2t58 -18.5t53.5 -34.5t54 -49l-58 -38q-19 32 -41 57t-48 39.5t-57.5 16.5t-70.5 -12q-58 -20 -84 -68t-26 -107q0 -49 17 -98q12 -30 30.5 -55.5t42 -44t51 -29.5
t57.5 -11q23 0 50 9.5t53 28t49.5 46.5t39.5 64z" />
    <glyph glyph-name="ordfeminine" unicode="&#xaa;" horiz-adv-x="485" 
d="M382 397l-17 42q-35 -26 -79.5 -41t-89.5 -15q-33 0 -63 8t-53 25.5t-36.5 44t-13.5 63.5q0 32 11.5 59t32 46.5t48.5 30t60 10.5q25 0 54.5 -8.5t57.5 -25.5l-11 28q-14 32 -37 51.5t-57 19.5q-17 0 -38 -6q-28 -8 -57.5 -22t-54.5 -29l-7 15l95 64q18 11 37.5 16.5
t37.5 5.5q45 0 83 -24.5t55 -67.5l105 -290h-63zM89 524q0 -30 9.5 -53t25 -38t36 -22.5t43.5 -7.5q36 0 73.5 19t63.5 58q5 6 4 14.5t-4 16.5l-33 86q-3 8 -10 15.5t-15 11.5q-52 22 -88 22q-52 0 -78.5 -34t-26.5 -88z" />
    <glyph glyph-name="guillemotleft" unicode="&#xab;" horiz-adv-x="470" 
d="M410 457l-109 -170l109 -170l-13 -8q-33 37 -64 71q-27 29 -56 59t-50 48q21 18 50 48t56 59q31 33 64 71zM243 457l-109 -170l109 -170l-13 -8q-33 37 -64 71q-27 29 -56 59t-50 48q21 18 50 48t56 59q31 33 64 71z" />
    <glyph glyph-name="logicalnot" unicode="&#xac;" horiz-adv-x="640" 
d="M520 365h-450v49h500v-214h-50v165z" />
    <glyph glyph-name="registered" unicode="&#xae;" horiz-adv-x="863" 
d="M431 782q84 0 157 -31.5t127.5 -86t86 -127.5t31.5 -156t-31.5 -156t-86 -127.5t-127.5 -86t-157 -31.5q-83 0 -156 31.5t-127.5 86t-86 127.5t-31.5 156t31.5 156t86 127.5t127.5 86t156 31.5zM475 381q21 0 36.5 -10.5t27.5 -26t21 -34.5t17 -35q18 -38 44 -82.5
t64 -79.5q48 49 74 114t26 137t-28.5 141t-78.5 123t-117.5 87t-146.5 33q-69 0 -129.5 -27.5t-106.5 -74.5t-72.5 -111t-26.5 -136q0 -73 28 -142t77.5 -123t117 -87t147.5 -33q55 0 112 20t103 59q-27 16 -49 34.5t-40.5 41t-34 49t-30.5 58.5q-13 28 -27.5 45.5t-32.5 28
t-40.5 14.5t-51.5 6h-24v-219h-57v484h124q27 0 61 -2.5t65 -15t52 -39t21 -75.5q0 -24 -11 -45.5t-29 -38t-40.5 -26.5t-44.5 -12zM354 395q63 0 101 9t57.5 23.5t25.5 33.5t6 40q0 35 -12 56t-32 32.5t-45.5 15.5t-53.5 4q-17 0 -34 -0.5t-33 -1.5v-191q0 -21 20 -21z" />
    <glyph glyph-name="macron" unicode="&#xaf;" horiz-adv-x="489" 
d="M70 851v49v0v0h349v-49h-349z" />
    <glyph glyph-name="degree" unicode="&#xb0;" horiz-adv-x="280" 
d="M40 666q0 21 7.5 39t21 32t31.5 22t39 8t39 -8t32 -22t22 -32t8 -39t-8 -39t-22 -31.5t-32 -21t-39 -7.5q-42 0 -70.5 28.5t-28.5 70.5zM81 650q8 -28 30.5 -42.5t48.5 -6.5q24 7 36 31t4 52t-31 43.5t-49 8.5q-25 -8 -36 -33t-3 -53z" />
    <glyph glyph-name="plusminus" unicode="&#xb1;" horiz-adv-x="700" 
d="M100 0v49v0v0h500v-49h-500zM324 275h-223v49h223v171h49v-171h223v-49h-223v-170h-49v170z" />
    <glyph glyph-name="twosuperior" unicode="&#xb2;" horiz-adv-x="436" 
d="M242 531q-33 -15 -55 -35.5t-34.5 -42t-18.5 -40.5t-7 -30q63 2 124.5 7.5t124.5 12.5v-57h-315q-1 39 12 69t33.5 53t47 41.5t52.5 34.5q37 23 69 50t42 58q3 20 -1.5 36t-14 27.5t-23 18t-27.5 6.5q-23 0 -53.5 -23t-82.5 -69l-48 33q57 45 98.5 65t61.5 20
q29 0 55 -12t46.5 -30.5t32.5 -41t12 -43.5q-6 -35 -41.5 -59t-89.5 -49z" />
    <glyph glyph-name="threesuperior" unicode="&#xb3;" horiz-adv-x="456" 
d="M210 597q13 2 28 6.5t29 12t25.5 18t17.5 23.5q5 18 0 34t-15.5 27t-24.5 17.5t-27 6.5q-15 0 -29.5 -7t-29 -18t-29 -25t-28.5 -27h1l-15 -16q-7 4 -15 9q-7 5 -17 10.5t-21 13.5q55 44 98 65t63 21q29 0 56.5 -13t48 -32.5t32 -41t7.5 -38.5q-18 -35 -51 -46
q37 -8 59.5 -40t22.5 -70q0 -26 -12 -52.5t-34.5 -48.5t-54.5 -35.5t-72 -13.5q-59 0 -100.5 35t-62.5 84q5 2 9 5l7 3.5t4 2.5q16 -29 33 -46.5t34.5 -27t34.5 -13t34 -3.5q21 0 42.5 7t38.5 21t27.5 35t10.5 50q0 9 -3 22t-10.5 25t-21.5 21t-35 9q-9 0 -23 -2.5t-34 -9.5
z" />
    <glyph glyph-name="acute" unicode="&#xb4;" horiz-adv-x="385" 
d="M60 612q40 25 79 52q33 23 69.5 51t64.5 55l52 -46l-257 -125z" />
    <glyph glyph-name="mu" unicode="&#xb5;" horiz-adv-x="552" 
d="M60 520h79v-374q0 -29 9 -52.5t25.5 -38.5t40.5 -20t54 4q26 8 63 27t72 41q8 5 14 14.5t6 20.5v378h79v-520h-79v101q-28 -19 -67.5 -45.5t-90.5 -49.5q-17 -8 -36 -12t-37 -4q-26 0 -54 10v-319h-78v839z" />
    <glyph glyph-name="paragraph" unicode="&#xb6;" horiz-adv-x="701" 
d="M621 723h-70v-1043h-45v1043h-124v-1043h-45v624l-55 -1q-48 0 -90.5 18t-74 49.5t-49.5 74t-18 90.5t18 90.5t49.5 74t74 50t90.5 18.5h339v-45z" />
    <glyph glyph-name="periodcentered" unicode="&#xb7;" horiz-adv-x="220" 
d="M103 244l-50 51q-6 6 0 13l50 50q7 7 13 0l51 -50q6 -7 0 -13l-51 -51q-6 -6 -13 0z" />
    <glyph glyph-name="cedilla" unicode="&#xb8;" horiz-adv-x="245" 
d="M151 -18q-3 -12 -10 -21.5t-14.5 -16.5t-14 -11.5t-7.5 -5.5q42 3 66 -16.5t24 -51.5q0 -33 -23.5 -51.5t-56.5 -18.5q-9 0 -19 2.5t-19 5.5t-16.5 6t-10.5 5l8 17q10 -5 25 -9t28 -6q20 -2 34.5 12t14.5 37t-14.5 38t-37.5 15h-7.5t-8.5 -1q-3 -1 -7 1q-7 5 -2 13
q2 4 8.5 18.5t10.5 38.5h49z" />
    <glyph glyph-name="onesuperior" unicode="&#xb9;" horiz-adv-x="252" 
d="M192 767v-420h-52v331l-69 -44q-2 3 -4 7l-4 6t-3 7q18 13 37 31q17 15 36 35.5t37 46.5h22z" />
    <glyph glyph-name="ordmasculine" unicode="&#xba;" horiz-adv-x="520" 
d="M260 781q50 0 87.5 -17t62.5 -45t37.5 -64t12.5 -73q0 -38 -12.5 -74t-37.5 -64t-62.5 -45t-87.5 -17t-87.5 17t-62.5 45t-37.5 64t-12.5 74q0 37 12.5 73t37.5 64t62.5 45t87.5 17zM317 410q49 16 68 48.5t19 73.5q0 22 -4.5 45.5t-12.5 46.5q-9 26 -22 50.5t-30 43.5
t-39 30.5t-49 11.5q-21 0 -42 -7q-48 -17 -67 -50t-19 -74q0 -44 17 -90q9 -26 22 -50.5t30.5 -44t39 -31t48.5 -11.5q19 0 41 8z" />
    <glyph glyph-name="guillemotright" unicode="&#xbb;" horiz-adv-x="470" 
d="M73 465q32 -38 64 -71q26 -29 55.5 -59t50.5 -48q-21 -18 -50.5 -48t-55.5 -59q-32 -34 -64 -71l-13 8l109 170l-109 170zM240 465q32 -38 64 -71q26 -29 55.5 -59t50.5 -48q-21 -18 -50.5 -48t-55.5 -59q-32 -34 -64 -71l-13 8l109 170l-109 170z" />
    <glyph glyph-name="onequarter" unicode="&#xbc;" horiz-adv-x="863" 
d="M616 767h63l-526 -767h-63zM225 767v-420h-52v331l-69 -44q-2 3 -4 7l-4 6t-3 7q18 13 37 31q17 15 36 35.5t37 46.5h22zM773 132h-95v-132h-50v132h-220l225 288h45v-252q34 4 60.5 10.5t34.5 9.5v-56zM494 174q39 -4 73.5 -6t60.5 -1v200z" />
    <glyph glyph-name="onehalf" unicode="&#xbd;" horiz-adv-x="875" 
d="M225 767v-420h-52v331l-69 -44q-2 3 -4 7l-4 6t-3 7q19 13 38 31q17 15 36 35.5t36 46.5h22zM651 184q-33 -14 -55 -34.5t-34.5 -42t-18.5 -40.5t-7 -31q63 2 124.5 8t124.5 13v-57h-315q-1 39 12 69t33.5 53t47 41t52.5 34q38 24 69.5 50.5t41.5 58.5q4 20 -0.5 36
t-14.5 27.5t-23.5 18t-27.5 6.5q-23 0 -53.5 -23t-82.5 -69l-48 32q57 45 98.5 65.5t61.5 20.5q29 0 55 -12t46.5 -30.5t32.5 -41t12 -43.5q-6 -35 -41.5 -59t-89.5 -50zM616 767h63l-526 -767h-63z" />
    <glyph glyph-name="threequarters" unicode="&#xbe;" horiz-adv-x="968" 
d="M240 597q13 2 28 6.5t29 12t25.5 18t17.5 23.5q5 18 0 34t-15.5 27t-24.5 17.5t-27 6.5q-15 0 -29.5 -7t-29 -18t-29 -25t-28.5 -27h1l-15 -16q-7 4 -15 9q-7 5 -17 10.5t-21 13.5q55 44 98 65t63 21q29 0 56.5 -13t48 -32.5t32 -41t7.5 -38.5q-18 -35 -51 -46
q37 -8 59.5 -40t22.5 -70q0 -26 -12 -52.5t-34.5 -48.5t-54.5 -35.5t-72 -13.5q-59 0 -100.5 35t-62.5 84q5 2 9 5l7 3.5t4 2.5q16 -29 33 -46.5t34.5 -27t34.5 -13t34 -3.5q21 0 42.5 7t38.5 21t27.5 35t10.5 50q0 9 -3 22t-10.5 25t-21.5 21t-35 9q-9 0 -23 -2.5t-34 -9.5
zM721 767h63l-527 -767h-62zM878 132h-95v-132h-50v132h-220l225 288h45v-252q33 4 60 10.5t35 9.5v-56zM599 174q39 -4 73 -6t61 -1v200z" />
    <glyph glyph-name="questiondown" unicode="&#xbf;" horiz-adv-x="629" 
d="M44 247q-11 -42 5.5 -88.5t50.5 -86.5t81.5 -66t100.5 -26q18 0 42.5 2.5t56.5 13t71.5 32t86.5 59.5l-67 43q-39 -35 -66.5 -59t-49.5 -39t-42.5 -21.5t-46.5 -6.5q-51 0 -85.5 27t-52.5 67t-18.5 85.5t16.5 82.5q18 39 48 69.5t53 53.5q15 15 29.5 34.5t26.5 46.5
t19 63t7 85h-26q0 -51 -14.5 -85.5t-37.5 -60t-51 -47t-54.5 -45.5t-49 -55.5t-33.5 -77.5zM242 769l47 47q7 9 16 0l47 -47q7 -7 0 -16l-47 -47q-9 -7 -16 0l-47 47q-9 9 0 16z" />
    <glyph glyph-name="Agrave" unicode="&#xc0;" horiz-adv-x="757" 
d="M523 262q-5 11 -16 13t-23 1t-23 -4l-24 -8l-99 -47q-21 -11 -44.5 -19.5t-45.5 -9.5t-40 9t-28 37q-9 -38 -17 -69t-15 -58.5t-13 -53t-10 -53.5h-90l337 768h12l338 -768h-84zM353 654q-10 -21 -24 -52t-30 -68t-33 -77t-32.5 -77t-27.5 -70t-18 -55q-2 -8 7.5 -14.5
t17.5 -5.5q7 1 15 3.5t24 10t45 21.5t78 37q28 13 49 15.5t37.5 -2t28.5 -14t23 -19.5zM369 824l-174 90l52 46q28 -27 52.5 -49t43.5 -38q22 -18 40 -34z" />
    <glyph glyph-name="Aacute" unicode="&#xc1;" horiz-adv-x="757" 
d="M523 262q-5 11 -16 13t-23 1t-23 -4l-24 -8l-99 -47q-21 -11 -44.5 -19.5t-45.5 -9.5t-40 9t-28 37q-9 -38 -17 -69t-15 -58.5t-13 -53t-10 -53.5h-90l337 768h12l338 -768h-84zM353 654q-10 -21 -24 -52t-30 -68t-33 -77t-32.5 -77t-27.5 -70t-18 -55q-2 -8 7.5 -14.5
t17.5 -5.5q7 1 15 3.5t24 10t45 21.5t78 37q28 13 49 15.5t37.5 -2t28.5 -14t23 -19.5zM363 839q18 16 40 34q19 16 43.5 38t52.5 49l52 -46l-174 -90z" />
    <glyph glyph-name="Acircumflex" unicode="&#xc2;" horiz-adv-x="757" 
d="M208 835q31 20 62 41q26 18 55 40.5t51 43.5q22 -21 51 -43.5t55 -40.5q31 -21 62 -41l-8 -13l-160 80l-160 -80zM523 262q-5 11 -16 13t-23 1t-23 -4l-24 -8l-99 -47q-21 -11 -44.5 -19.5t-45.5 -9.5t-40 9t-28 37q-9 -38 -17 -69t-15 -58.5t-13 -53t-10 -53.5h-90
l337 768h12l338 -768h-84zM353 654q-10 -21 -24 -52t-30 -68t-33 -77t-32.5 -77t-27.5 -70t-18 -55q-2 -8 7.5 -14.5t17.5 -5.5q7 1 15 3.5t24 10t45 21.5t78 37q28 13 49 15.5t37.5 -2t28.5 -14t23 -19.5z" />
    <glyph glyph-name="Atilde" unicode="&#xc3;" horiz-adv-x="757" 
d="M428 875q-32 9 -64 19t-64.5 13.5t-64.5 -4t-63 -33.5l-12 8q42 52 89.5 71.5t112.5 -0.5q37 -11 68 -19.5t57 -10t49 5t43 26.5l12 -9q-14 -17 -31 -32.5t-37.5 -26t-44 -13.5t-50.5 5zM523 262q-5 11 -16 13t-23 1t-23 -4l-24 -8l-99 -47q-21 -11 -44.5 -19.5
t-45.5 -9.5t-40 9t-28 37q-9 -38 -17 -69t-15 -58.5t-13 -53t-10 -53.5h-90l337 768h12l338 -768h-84zM353 654q-10 -21 -24 -52t-30 -68t-33 -77t-32.5 -77t-27.5 -70t-18 -55q-2 -8 7.5 -14.5t17.5 -5.5q7 1 15 3.5t24 10t45 21.5t78 37q28 13 49 15.5t37.5 -2t28.5 -14
t23 -19.5z" />
    <glyph glyph-name="Adieresis" unicode="&#xc4;" horiz-adv-x="757" 
d="M638 0h84l-338 768h-12l-337 -768h90q4 28 10 53.5t13 53t15 58.5t17 69q10 -27 28 -37t40 -9t45.5 9.5t44.5 19.5l99 47l24 8q11 3 23 4t23 -1t16 -13zM513 287q-11 10 -23 19.5t-28.5 14t-37.5 2t-49 -15.5q-49 -23 -78 -37t-45 -21.5t-24 -10t-15 -3.5
q-8 -1 -17.5 5.5t-7.5 14.5q6 22 18 55t27.5 70t32.5 77t33 77t30 68t24 52zM316 894l-47 -47q-7 -9 -16 0l-47 47q-7 7 0 16l47 47q9 7 16 0l47 -47q9 -9 0 -16zM555 894l-47 -47q-7 -9 -16 0l-47 47q-7 7 0 16l47 47q9 7 16 0l47 -47q9 -9 0 -16z" />
    <glyph glyph-name="Aring" unicode="&#xc5;" horiz-adv-x="792" 
d="M523 262q-5 11 -16 13t-23 1t-23 -4l-24 -8l-99 -47q-21 -11 -44.5 -19.5t-45.5 -9.5t-40 9t-28 37q-9 -38 -17 -69t-15 -58.5t-13 -53t-10 -53.5h-90l337 768h12l338 -768h-84zM353 654q-10 -21 -24 -52t-30 -68t-33 -77t-32.5 -77t-27.5 -70t-18 -55q-2 -8 7.5 -14.5
t17.5 -5.5q7 1 15 3.5t24 10t45 21.5t78 37q28 13 49 15.5t37.5 -2t28.5 -14t23 -19.5zM311 893q0 28 20 48t47 20q28 0 48 -20t20 -48q0 -27 -20 -47t-48 -20q-27 0 -47 20t-20 47zM347 873q11 -17 28 -23t30 3q14 9 14 26.5t-11 34.5t-27 23t-30 -4q-13 -8 -14 -25.5
t10 -34.5z" />
    <glyph glyph-name="AE" unicode="&#xc6;" horiz-adv-x="1156" 
d="M1116 689q-61 14 -134 25q-63 10 -147.5 17.5t-181.5 9.5v-351q9 18 23.5 32.5t35.5 23t48 10t61 -6.5q42 -10 70 -20t49.5 -14.5t40.5 0.5t44 25l11 -9q-15 -17 -34.5 -32.5t-42 -26t-47.5 -13.5t-52 6q-59 17 -97 27t-64 3q-19 -5 -31.5 -21.5t-14.5 -35.5v-4v-307
q97 1 181.5 9t147.5 18q73 11 134 25v-79h-542v245q0 18 -8.5 25t-21 7.5t-26.5 -4t-26 -9.5l-96 -47q-20 -11 -43 -19.5t-44.5 -9.5t-39.5 9.5t-28 38.5q-32 -59 -57.5 -119t-39.5 -117h-134l554 768h552v-79zM432 307q27 13 48.5 15t38.5 -3.5t30.5 -16t24.5 -23.5v449
q-36 -50 -77 -105.5t-83 -114.5t-82 -120.5t-75 -123.5q-6 -9 -1 -18.5t16 -10.5h2q7 1 15 3.5t23.5 10t43.5 21.5t76 37z" />
    <glyph glyph-name="Ccedilla" unicode="&#xc7;" horiz-adv-x="791" 
d="M761 270q-20 -58 -50.5 -108.5t-72 -88.5t-94 -62.5t-116.5 -29.5q-3 -11 -10 -20.5t-14.5 -16.5t-14 -11.5t-7.5 -5.5q42 3 66 -16.5t24 -51.5q0 -33 -23.5 -51.5t-56.5 -18.5q-9 0 -19 2.5t-19 5.5t-16.5 6t-10.5 5l8 17q10 -5 25 -9t28 -6q20 -2 34.5 12t14.5 37
t-14.5 38t-37.5 15h-7.5t-8.5 -1q-3 -1 -7 1q-7 5 -2 13q2 4 8.5 18.5t10.5 37.5q-87 4 -152.5 39.5t-109 92t-65.5 127t-22 144.5q0 79 23.5 148t66.5 122.5t103 87t133 42.5q45 5 88 2.5t87.5 -19.5t92 -51.5t100.5 -92.5l-79 -52q-34 57 -70.5 97.5t-80 62.5t-95 23.5
t-115.5 -20.5q-70 -23 -112 -73t-60 -114t-14 -135.5t27 -137.5q19 -51 50.5 -93.5t71 -73.5t86 -48.5t97.5 -17.5q38 0 83 15t88.5 45t82 74.5t63.5 103.5z" />
    <glyph glyph-name="Egrave" unicode="&#xc8;" horiz-adv-x="642" 
d="M139 27q97 1 181.5 9t147.5 18q73 11 134 25v-79h-542v768h542v-79q-61 14 -134 25q-63 10 -147.5 17.5t-181.5 9.5v-351q9 18 23.5 32.5t35.5 23t48 10t61 -6.5q42 -10 70 -20t49.5 -14.5t40.5 0.5t44 25l11 -9q-15 -17 -34.5 -32.5t-42 -26t-47.5 -13.5t-52 6
q-59 17 -97 27t-64 3q-19 -5 -31.5 -21.5t-14.5 -35.5v-4v-307zM394 824l-174 90l52 46q28 -27 52.5 -49t43.5 -38q22 -18 40 -34z" />
    <glyph glyph-name="Eacute" unicode="&#xc9;" horiz-adv-x="642" 
d="M139 27q97 1 181.5 9t147.5 18q73 11 134 25v-79h-542v768h542v-79q-61 14 -134 25q-63 10 -147.5 17.5t-181.5 9.5v-351q9 18 23.5 32.5t35.5 23t48 10t61 -6.5q42 -10 70 -20t49.5 -14.5t40.5 0.5t44 25l11 -9q-15 -17 -34.5 -32.5t-42 -26t-47.5 -13.5t-52 6
q-59 17 -97 27t-64 3q-19 -5 -31.5 -21.5t-14.5 -35.5v-4v-307zM285 824q18 16 40 34q19 16 43.5 38t52.5 49l52 -46l-174 -90z" />
    <glyph glyph-name="Ecircumflex" unicode="&#xca;" horiz-adv-x="642" 
d="M163 835q31 20 62 41q26 18 55 40.5t51 43.5q22 -21 51 -43.5t55 -40.5q31 -21 62 -41l-8 -13l-160 80l-160 -80zM139 27q97 1 181.5 9t147.5 18q73 11 134 25v-79h-542v768h542v-79q-61 14 -134 25q-63 10 -147.5 17.5t-181.5 9.5v-351q9 18 23.5 32.5t35.5 23t48 10
t61 -6.5q42 -10 70 -20t49.5 -14.5t40.5 0.5t44 25l11 -9q-15 -17 -34.5 -32.5t-42 -26t-47.5 -13.5t-52 6q-59 17 -97 27t-64 3q-19 -5 -31.5 -21.5t-14.5 -35.5v-4v-307z" />
    <glyph glyph-name="Edieresis" unicode="&#xcb;" horiz-adv-x="642" 
d="M270 894l-47 -47q-7 -9 -16 0l-47 47q-7 7 0 16l47 47q9 7 16 0l47 -47q9 -9 0 -16zM509 894l-47 -47q-7 -9 -16 0l-47 47q-7 7 0 16l47 47q9 7 16 0l47 -47q9 -9 0 -16zM139 334v4q2 19 14.5 35.5t31.5 21.5q26 7 64 -3t97 -27q27 -9 52 -6t47.5 13.5t42 26t34.5 32.5
l-11 9q-25 -20 -44 -25t-40.5 -0.5t-49.5 14.5t-70 20q-34 8 -61 6.5t-48 -10t-35.5 -23t-23.5 -32.5v351q97 -2 181.5 -9.5t147.5 -17.5q73 -11 134 -25v79h-542v-768h542v79q-61 -14 -134 -25q-63 -10 -147.5 -18t-181.5 -9v307z" />
    <glyph glyph-name="Igrave" unicode="&#xcc;" horiz-adv-x="282" 
d="M187 0h-79v768h79v-768zM149 824l-174 90l52 46q28 -27 52.5 -49t43.5 -38q22 -18 40 -34z" />
    <glyph glyph-name="Iacute" unicode="&#xcd;" horiz-adv-x="268" 
d="M174 0h-79v768h79v-768zM125 839q18 16 40 34q19 16 43.5 38t52.5 49l52 -46l-174 -90z" />
    <glyph glyph-name="Icircumflex" unicode="&#xce;" horiz-adv-x="266" 
d="M-35 857q31 20 62 41q26 18 55 40.5t51 43.5q22 -21 51 -43.5t55 -40.5q31 -21 62 -41l-8 -13l-160 80l-160 -80zM173 0h-79v768h79v-768z" />
    <glyph glyph-name="Idieresis" unicode="&#xcf;" horiz-adv-x="281" 
d="M108 894l-47 -47q-7 -9 -16 0l-47 47q-7 7 0 16l47 47q9 7 16 0l47 -47q9 -9 0 -16zM282 894l-47 -47q-7 -9 -16 0l-47 47q-7 7 0 16l47 47q9 7 16 0l47 -47q9 -9 0 -16zM176 768h-79v-768h79v768z" />
    <glyph glyph-name="Eth" unicode="&#xd0;" horiz-adv-x="797" 
d="M767 384q0 -84 -29 -154t-80.5 -121t-122.5 -79.5t-155 -29.5h-279v358h-101v67h101v343h279q84 0 155 -28t122.5 -78.5t80.5 -121.5t29 -156zM180 425h154v-67h-154v-339l163 2q76 0 139.5 29t109.5 78.5t71 115t25 138.5q0 65 -25 129.5t-71 116.5t-109.5 84t-139.5 32
l-163 -1v-318z" />
    <glyph glyph-name="Ntilde" unicode="&#xd1;" horiz-adv-x="766" 
d="M447 875q-32 9 -64 19t-64.5 13.5t-64.5 -4t-63 -33.5l-12 8q42 52 89.5 71.5t112.5 -0.5q37 -11 68 -19.5t57 -10t49 5t43 26.5l12 -9q-14 -17 -31 -32.5t-37.5 -26t-44 -13.5t-50.5 5zM645 -10q-25 -11 -46 -11q-31 0 -57.5 18.5t-55.5 56.5q-27 35 -49 85.5
t-42.5 109.5t-40 121.5t-41.5 120.5t-47 107.5t-55 82.5q-8 9 -19.5 18t-23.5 17t-24 13t-21 5q-20 0 -20 -26q0 -197 7.5 -331t17.5 -219q11 -99 25 -158h-93v745l67 32q22 11 45 11q17 0 32 -6.5t32 -19.5q41 -31 73.5 -83t59 -114.5t49 -130.5t44 -132.5t44 -119.5
t48.5 -91q4 -6 15 -16.5t24 -20.5t26 -17.5t23 -7.5q9 0 14.5 6.5t5.5 23.5q0 190 -8 323.5t-17 219.5q-11 100 -24 166h93v-750z" />
    <glyph glyph-name="Ograve" unicode="&#xd2;" horiz-adv-x="800" 
d="M399 788q93 0 162.5 -34.5t116 -91.5t69.5 -129.5t23 -148.5t-23 -148.5t-69.5 -129.5t-116 -91.5t-162.5 -34.5q-92 0 -161.5 34.5t-115.5 91.5t-69 129.5t-23 148.5t23 148.5t69 129.5t115.5 91.5t161.5 34.5zM519 35q70 24 111.5 73.5t58 112t11.5 132t-27 134.5
q-22 66 -59 122t-86.5 92t-110.5 47.5t-131 -12.5q-70 -23 -112.5 -72t-61 -111t-15 -132.5t26.5 -136.5q29 -77 69 -134t89.5 -90.5t108.5 -40.5t128 16zM409 824l-174 90l52 46q28 -27 52.5 -49t43.5 -38q22 -18 40 -34z" />
    <glyph glyph-name="Oacute" unicode="&#xd3;" horiz-adv-x="800" 
d="M399 788q93 0 162.5 -34.5t116 -91.5t69.5 -129.5t23 -148.5t-23 -148.5t-69.5 -129.5t-116 -91.5t-162.5 -34.5q-92 0 -161.5 34.5t-115.5 91.5t-69 129.5t-23 148.5t23 148.5t69 129.5t115.5 91.5t161.5 34.5zM519 35q70 24 111.5 73.5t58 112t11.5 132t-27 134.5
q-22 66 -59 122t-86.5 92t-110.5 47.5t-131 -12.5q-70 -23 -112.5 -72t-61 -111t-15 -132.5t26.5 -136.5q29 -77 69 -134t89.5 -90.5t108.5 -40.5t128 16zM326 839q18 16 40 34q19 16 43.5 38t52.5 49l52 -46l-174 -90z" />
    <glyph glyph-name="Ocircumflex" unicode="&#xd4;" horiz-adv-x="800" 
d="M212 857q31 20 62 41q26 18 55 40.5t51 43.5q22 -21 51 -43.5t55 -40.5q31 -21 62 -41l-8 -13l-160 80l-160 -80zM399 788q93 0 162.5 -34.5t116 -91.5t69.5 -129.5t23 -148.5t-23 -148.5t-69.5 -129.5t-116 -91.5t-162.5 -34.5q-92 0 -161.5 34.5t-115.5 91.5t-69 129.5
t-23 148.5t23 148.5t69 129.5t115.5 91.5t161.5 34.5zM519 35q70 24 111.5 73.5t58 112t11.5 132t-27 134.5q-22 66 -59 122t-86.5 92t-110.5 47.5t-131 -12.5q-70 -23 -112.5 -72t-61 -111t-15 -132.5t26.5 -136.5q29 -77 69 -134t89.5 -90.5t108.5 -40.5t128 16z" />
    <glyph glyph-name="Otilde" unicode="&#xd5;" horiz-adv-x="800" 
d="M435 875q-32 9 -64 19t-64.5 13.5t-64.5 -4t-63 -33.5l-12 8q42 52 89.5 71.5t112.5 -0.5q37 -11 68 -19.5t57 -10t49 5t43 26.5l12 -9q-14 -17 -31 -32.5t-37.5 -26t-44 -13.5t-50.5 5zM399 788q93 0 162.5 -34.5t116 -91.5t69.5 -129.5t23 -148.5t-23 -148.5
t-69.5 -129.5t-116 -91.5t-162.5 -34.5q-92 0 -161.5 34.5t-115.5 91.5t-69 129.5t-23 148.5t23 148.5t69 129.5t115.5 91.5t161.5 34.5zM519 35q70 24 111.5 73.5t58 112t11.5 132t-27 134.5q-22 66 -59 122t-86.5 92t-110.5 47.5t-131 -12.5q-70 -23 -112.5 -72t-61 -111
t-15 -132.5t26.5 -136.5q29 -77 69 -134t89.5 -90.5t108.5 -40.5t128 16z" />
    <glyph glyph-name="Odieresis" unicode="&#xd6;" horiz-adv-x="800" 
d="M331 894l-47 -47q-7 -9 -16 0l-47 47q-7 7 0 16l47 47q9 7 16 0l47 -47q9 -9 0 -16zM570 894l-47 -47q-7 -9 -16 0l-47 47q-7 7 0 16l47 47q9 7 16 0l47 -47q9 -9 0 -16zM399 788q-92 0 -161.5 -34.5t-115.5 -91.5t-69 -129.5t-23 -148.5t23 -148.5t69 -129.5
t115.5 -91.5t161.5 -34.5q93 0 162.5 34.5t116 91.5t69.5 129.5t23 148.5t-23 148.5t-69.5 129.5t-116 91.5t-162.5 34.5zM519 35q-69 -23 -128 -16t-108.5 40.5t-89.5 90.5t-69 134q-23 66 -26.5 136.5t15 132.5t61 111t112.5 72q70 24 131 12.5t110.5 -47.5t86.5 -92
t59 -122q22 -65 27 -134.5t-11.5 -132t-58 -112t-111.5 -73.5z" />
    <glyph glyph-name="multiply" unicode="&#xd7;" horiz-adv-x="635" 
d="M283 383l-193 193l35 35l193 -193l191 191l34 -35l-191 -191l193 -193l-34 -35l-193 193l-191 -191l-35 35z" />
    <glyph glyph-name="Oslash" unicode="&#xd8;" horiz-adv-x="800" 
d="M111 0l531 768h38l-529 -768h-40zM399 788q93 0 162.5 -34.5t116 -91.5t69.5 -129.5t23 -148.5t-23 -148.5t-69.5 -129.5t-116 -91.5t-162.5 -34.5q-92 0 -161.5 34.5t-115.5 91.5t-69 129.5t-23 148.5t23 148.5t69 129.5t115.5 91.5t161.5 34.5zM519 35
q70 24 111.5 73.5t58 112t11.5 132t-27 134.5q-22 66 -59 122t-86.5 92t-110.5 47.5t-131 -12.5q-70 -23 -112.5 -72t-61 -111t-15 -132.5t26.5 -136.5q29 -77 69 -134t89.5 -90.5t108.5 -40.5t128 16z" />
    <glyph glyph-name="Ugrave" unicode="&#xd9;" horiz-adv-x="751" 
d="M621 768q23 -107 39 -182.5t26.5 -127.5t16.5 -83.5t9 -50t3.5 -27.5t0.5 -16q0 -72 -26 -128t-73 -94.5t-113 -58.5t-146 -20q-74 0 -134 22t-102 58.5t-64.5 85.5t-22.5 103q0 39 10.5 79.5t35 79.5t64 75.5t96.5 68.5q26 17 26 30q0 7 -4 12l-197 174h119l152 -138
q12 -12 12 -24q0 -8 -5.5 -14.5t-13.5 -11.5l-74 -51q-74 -56 -106 -121t-32 -131q0 -54 19.5 -103.5t52.5 -87t76.5 -59.5t91.5 -22q50 0 100 18t90 50.5t65 77.5t25 99q0 4 -0.5 10t-3.5 23t-9 49t-17 88.5t-28 141t-41 206.5h82zM411 824l-174 90l52 46q28 -27 52.5 -49
t43.5 -38q22 -18 40 -34z" />
    <glyph glyph-name="Uacute" unicode="&#xda;" horiz-adv-x="751" 
d="M621 768q23 -107 39 -182.5t26.5 -127.5t16.5 -83.5t9 -50t3.5 -27.5t0.5 -16q0 -72 -26 -128t-73 -94.5t-113 -58.5t-146 -20q-74 0 -134 22t-102 58.5t-64.5 85.5t-22.5 103q0 39 10.5 79.5t35 79.5t64 75.5t96.5 68.5q26 17 26 30q0 7 -4 12l-197 174h119l152 -138
q12 -12 12 -24q0 -8 -5.5 -14.5t-13.5 -11.5l-74 -51q-74 -56 -106 -121t-32 -131q0 -54 19.5 -103.5t52.5 -87t76.5 -59.5t91.5 -22q50 0 100 18t90 50.5t65 77.5t25 99q0 4 -0.5 10t-3.5 23t-9 49t-17 88.5t-28 141t-41 206.5h82zM333 839q18 16 40 34q19 16 43.5 38
t52.5 49l52 -46l-174 -90z" />
    <glyph glyph-name="Ucircumflex" unicode="&#xdb;" horiz-adv-x="751" 
d="M203 857q31 20 62 41q26 18 55 40.5t51 43.5q22 -21 51 -43.5t55 -40.5q31 -21 62 -41l-8 -13l-160 80l-160 -80zM621 768q23 -107 39 -182.5t26.5 -127.5t16.5 -83.5t9 -50t3.5 -27.5t0.5 -16q0 -72 -26 -128t-73 -94.5t-113 -58.5t-146 -20q-74 0 -134 22t-102 58.5
t-64.5 85.5t-22.5 103q0 39 10.5 79.5t35 79.5t64 75.5t96.5 68.5q26 17 26 30q0 7 -4 12l-197 174h119l152 -138q12 -12 12 -24q0 -8 -5.5 -14.5t-13.5 -11.5l-74 -51q-74 -56 -106 -121t-32 -131q0 -54 19.5 -103.5t52.5 -87t76.5 -59.5t91.5 -22q50 0 100 18t90 50.5
t65 77.5t25 99q0 4 -0.5 10t-3.5 23t-9 49t-17 88.5t-28 141t-41 206.5h82z" />
    <glyph glyph-name="Udieresis" unicode="&#xdc;" horiz-adv-x="751" 
d="M621 768h-82q24 -122 41 -206.5t28 -141t17 -88.5t9 -49t3.5 -23t0.5 -10q0 -54 -25 -99t-65 -77.5t-90 -50.5t-100 -18q-48 0 -91.5 22t-76.5 59.5t-52.5 87t-19.5 103.5q0 66 32 131t106 121l74 51q8 5 13.5 11.5t5.5 14.5q0 12 -12 24l-152 138h-119l197 -174
q4 -5 4 -12q0 -13 -26 -30q-57 -32 -96.5 -68.5t-64 -75.5t-35 -79.5t-10.5 -79.5q0 -54 22.5 -103t64.5 -85.5t102 -58.5t134 -22q80 0 146 20t113 58.5t73 94.5t26 128q0 7 -0.5 16t-3.5 27.5t-9 50t-16.5 83.5t-26.5 127.5t-39 182.5zM310 894l-47 -47q-7 -9 -16 0
l-47 47q-7 7 0 16l47 47q9 7 16 0l47 -47q9 -9 0 -16zM549 894l-47 -47q-7 -9 -16 0l-47 47q-7 7 0 16l47 47q9 7 16 0l47 -47q9 -9 0 -16z" />
    <glyph glyph-name="Yacute" unicode="&#xdd;" horiz-adv-x="709" 
d="M679 769l-260 -366q-8 -11 -16 -26.5t-8 -32.5v-344h-40h-41v344q0 17 -8 32.5t-16 26.5l-260 366h103q30 -70 61 -129.5t60 -108t55 -84.5t46 -59q20 23 46 59t55 84.5t60 108t61 129.5h102zM234 842q40 25 79 52q33 23 69.5 51t64.5 55l52 -46l-257 -125z" />
    <glyph glyph-name="Thorn" unicode="&#xde;" horiz-adv-x="626" 
d="M140 653h120q29 0 64.5 -1.5t71.5 -7.5t70 -19.5t61.5 -36.5t46 -58.5t22.5 -86.5q0 -59 -19.5 -101t-52.5 -70t-77.5 -43.5t-95.5 -23.5t-105 -10t-106 -1v-194h-80v768h80v-115zM523 443q0 52 -19.5 85.5t-51 53t-72 27.5t-83 10t-83.5 -0.5t-74 -3.5v-362
q2 -16 12 -21.5t28 -5.5q105 0 171.5 11.5t105 37.5t52.5 67t14 101z" />
    <glyph glyph-name="germandbls" unicode="&#xdf;" horiz-adv-x="583" 
d="M60 -162q56 28 108 55q22 11 45 23.5t45 24t41 22.5t34 19q66 38 100.5 108.5t32.5 153.5q-1 31 -7.5 61t-21 56t-38.5 48t-60 37q-44 18 -61.5 29t-17.5 25q0 19 14 33t30.5 32t30.5 44.5t14 69.5q0 16 -4.5 32.5t-14.5 30t-26 21.5t-39 8q-46 0 -71 -24.5t-37 -60.5
t-14.5 -77.5t-3.5 -74.5v-534h-79v581q0 9 2 28.5t9 42.5t21 47t38.5 44t60 32.5t86.5 12.5q39 0 65.5 -13t42.5 -32t23 -41.5t7 -41.5q0 -36 -15 -64.5t-32 -50t-31 -36.5t-12 -24t19 -17t42 -20t53.5 -29.5t52.5 -44.5t40 -66.5t16 -95.5q0 -68 -20 -114t-48.5 -76
t-59 -46t-51.5 -25q-11 -5 -29.5 -12.5t-41.5 -17.5t-49.5 -21t-52.5 -22q-61 -26 -130 -54z" />
    <glyph glyph-name="agrave" unicode="&#xe0;" horiz-adv-x="617" 
d="M526 0l-25 64q-38 -33 -87.5 -53.5t-102 -27.5t-103 0.5t-90 31t-64 63t-24.5 97.5q0 65 33.5 113.5t87.5 71.5t121.5 15.5t135.5 -53.5l-21 52q-13 29 -30.5 51.5t-41 35.5t-53 15.5t-67.5 -7.5q-40 -11 -81 -30t-73 -39l-7 13l132 88q39 25 84 28.5t86 -10t74.5 -43
t48.5 -71.5l148 -405h-81zM105 175q0 -52 19 -88.5t49.5 -58t69.5 -27t79 4.5t78 36t67 69q7 10 6.5 23t-5.5 24l-47 122q-11 28 -38 40q-68 30 -119.5 31t-87 -20.5t-53.5 -62t-18 -93.5zM312 632l-174 90l52 46q28 -27 52.5 -49t43.5 -38q22 -18 40 -34z" />
    <glyph glyph-name="aacute" unicode="&#xe1;" horiz-adv-x="617" 
d="M526 0l-25 64q-38 -33 -87.5 -53.5t-102 -27.5t-103 0.5t-90 31t-64 63t-24.5 97.5q0 65 33.5 113.5t87.5 71.5t121.5 15.5t135.5 -53.5l-21 52q-13 29 -30.5 51.5t-41 35.5t-53 15.5t-67.5 -7.5q-40 -11 -81 -30t-73 -39l-7 13l132 88q39 25 84 28.5t86 -10t74.5 -43
t48.5 -71.5l148 -405h-81zM105 175q0 -52 19 -88.5t49.5 -58t69.5 -27t79 4.5t78 36t67 69q7 10 6.5 23t-5.5 24l-47 122q-11 28 -38 40q-68 30 -119.5 31t-87 -20.5t-53.5 -62t-18 -93.5zM233 647q18 16 40 34q19 16 43.5 38t52.5 49l52 -46l-174 -90z" />
    <glyph glyph-name="acircumflex" unicode="&#xe2;" horiz-adv-x="617" 
d="M110 643q31 20 62 41q26 18 55 40.5t51 43.5q22 -21 51 -43.5t55 -40.5q31 -21 62 -41l-8 -13l-160 80l-160 -80zM526 0l-25 64q-38 -33 -87.5 -53.5t-102 -27.5t-103 0.5t-90 31t-64 63t-24.5 97.5q0 65 33.5 113.5t87.5 71.5t121.5 15.5t135.5 -53.5l-21 52
q-13 29 -30.5 51.5t-41 35.5t-53 15.5t-67.5 -7.5q-40 -11 -81 -30t-73 -39l-7 13l132 88q39 25 84 28.5t86 -10t74.5 -43t48.5 -71.5l148 -405h-81zM105 175q0 -52 19 -88.5t49.5 -58t69.5 -27t79 4.5t78 36t67 69q7 10 6.5 23t-5.5 24l-47 122q-11 28 -38 40
q-68 30 -119.5 31t-87 -20.5t-53.5 -62t-18 -93.5z" />
    <glyph glyph-name="atilde" unicode="&#xe3;" horiz-adv-x="617" 
d="M526 0l-25 64q-38 -33 -87.5 -53.5t-102 -27.5t-103 0.5t-90 31t-64 63t-24.5 97.5q0 65 33.5 113.5t87.5 71.5t121.5 15.5t135.5 -53.5l-21 52q-13 29 -30.5 51.5t-41 35.5t-53 15.5t-67.5 -7.5q-40 -11 -81 -30t-73 -39l-7 13l132 88q39 25 84 28.5t86 -10t74.5 -43
t48.5 -71.5l148 -405h-81zM105 175q0 -52 19 -88.5t49.5 -58t69.5 -27t79 4.5t78 36t67 69q7 10 6.5 23t-5.5 24l-47 122q-11 28 -38 40q-68 30 -119.5 31t-87 -20.5t-53.5 -62t-18 -93.5zM336 624q-32 9 -64 19t-64.5 13.5t-64.5 -4t-63 -33.5l-12 8q42 52 89.5 71.5
t112.5 -0.5q37 -11 68 -19.5t57 -10t49 5t43 26.5l12 -9q-14 -17 -31 -32.5t-37.5 -26t-44 -13.5t-50.5 5z" />
    <glyph glyph-name="adieresis" unicode="&#xe4;" horiz-adv-x="617" 
d="M607 0l-148 405q-15 42 -48.5 71.5t-74.5 43t-86 10t-84 -28.5l-132 -88l7 -13q32 20 73 39t81 30q38 10 67.5 7.5t53 -15.5t41 -35.5t30.5 -51.5l21 -52q-68 46 -135.5 53.5t-121.5 -15.5t-87.5 -71.5t-33.5 -113.5q0 -58 24.5 -97.5t64 -63t90 -31t103 -0.5t102 27.5
t87.5 53.5l25 -64h81zM105 175q0 53 18 93.5t53.5 62t87 20.5t119.5 -31q27 -12 38 -40l47 -122q5 -11 5.5 -24t-6.5 -23q-29 -43 -67 -69t-78 -36t-79 -4.5t-69.5 27t-49.5 58t-19 88.5zM237 678l-47 -47q-7 -9 -16 0l-47 47q-7 7 0 16l47 47q9 7 16 0l47 -47q9 -9 0 -16z
M447 678l-47 -47q-7 -9 -16 0l-47 47q-7 7 0 16l47 47q9 7 16 0l47 -47q9 -9 0 -16z" />
    <glyph glyph-name="aring" unicode="&#xe5;" horiz-adv-x="617" 
d="M526 0l-25 64q-38 -33 -87.5 -53.5t-102 -27.5t-103 0.5t-90 31t-64 63t-24.5 97.5q0 65 33.5 113.5t87.5 71.5t121.5 15.5t135.5 -53.5l-21 52q-13 29 -30.5 51.5t-41 35.5t-53 15.5t-67.5 -7.5q-40 -11 -81 -30t-73 -39l-7 13l132 88q39 25 84 28.5t86 -10t74.5 -43
t48.5 -71.5l148 -405h-81zM105 175q0 -52 19 -88.5t49.5 -58t69.5 -27t79 4.5t78 36t67 69q7 10 6.5 23t-5.5 24l-47 122q-11 28 -38 40q-68 30 -119.5 31t-87 -20.5t-53.5 -62t-18 -93.5zM209 700q0 28 20 48t47 20q28 0 48 -20t20 -48q0 -27 -20 -47t-48 -20q-27 0 -47 20
t-20 47zM245 680q11 -17 28 -23t30 3q14 9 14 26.5t-11 34.5t-27 23t-30 -4q-13 -8 -14 -25.5t10 -34.5z" />
    <glyph glyph-name="ae" unicode="&#xe6;" horiz-adv-x="1043" 
d="M1018 195q-47 -93 -101.5 -141t-117.5 -64q-14 -5 -31 -7.5t-38 -2.5q-39 0 -72.5 7.5t-62.5 21.5q-26 14 -47.5 32t-38.5 40l-8 -8q-38 -37 -87.5 -60t-102 -30.5t-103 0t-90 32.5t-64 66.5t-24.5 102.5q0 65 33.5 113.5t87.5 71.5t121.5 15.5t135.5 -53.5l-21 52
q-13 29 -30.5 51.5t-41 35.5t-53 15.5t-67.5 -7.5q-40 -11 -81 -30t-73 -39l-7 13l132 88q39 25 84 28.5t86 -10t74.5 -43t48.5 -71.5l14 -37q14 34 37.5 64t55.5 52t73 34.5t91 12.5q53 0 96 -13.5t76 -37.5t56 -56.5t36 -69.5l-442 -172q14 -39 34.5 -72.5t47.5 -57
t60.5 -35.5t75.5 -7q31 6 64 19.5t63 36t56.5 54.5t45.5 75zM649 509q-51 -17 -79 -49.5t-37.5 -73.5t-5 -87t18.5 -90l351 161q-17 37 -40.5 69t-54.5 52.5t-69 26.5t-84 -9zM467 120q4 5 5 10.5t1 10.5l-18 60l-34 88q-11 28 -38 40q-68 30 -119.5 31t-87 -20.5t-53.5 -62
t-18 -93.5q0 -54 19 -93t49.5 -61.5t69.5 -28t79 5.5t78 39t67 74z" />
    <glyph glyph-name="ccedilla" unicode="&#xe7;" horiz-adv-x="624" 
d="M472 378q-22 40 -47 70.5t-55 48.5t-65 21.5t-75 -9.5q-51 -17 -79 -49.5t-37.5 -73t-5 -86.5t18.5 -90q16 -45 37 -81t48 -60t60.5 -34.5t75.5 -5.5q31 6 64.5 18t64 33t57.5 51.5t46 73.5l19 -9q-47 -93 -101.5 -141t-117.5 -64q-20 -6 -43 -9q-3 -12 -10 -21.5
t-14.5 -16.5t-14 -11.5t-7.5 -5.5q42 3 66 -16.5t24 -51.5q0 -33 -23.5 -51.5t-56.5 -18.5q-9 0 -19 2.5t-19 5.5t-16.5 6t-10.5 5l8 17q10 -5 25 -9t28 -6q20 -2 34.5 12t14.5 37t-14.5 38t-37.5 15h-7.5t-8.5 -1q-3 -1 -7 1q-7 5 -2 13q2 4 8.5 18.5t10.5 38.5
q-66 4 -114.5 30.5t-81 66.5t-47.5 89.5t-14 101t19.5 100.5t53.5 87t86.5 61t120.5 23q41 0 76 -11t63.5 -28t51 -38.5t37.5 -42.5z" />
    <glyph glyph-name="egrave" unicode="&#xe8;" horiz-adv-x="624" 
d="M599 195q-47 -93 -101.5 -141t-117.5 -64q-14 -5 -31 -7.5t-38 -2.5q-70 0 -122.5 24t-87.5 63.5t-52.5 89.5t-17.5 102.5t17.5 103t52.5 90t87.5 63.5t122.5 24q53 0 96 -13.5t76 -37.5t56 -56.5t36 -69.5l-442 -172q14 -39 34.5 -72.5t47.5 -57t60.5 -35.5t75.5 -7
q31 6 64 19.5t63 36t56.5 54.5t45.5 75zM230 509q-51 -17 -79 -49.5t-37.5 -73.5t-5 -87t18.5 -90l351 161q-17 37 -40.5 69t-54.5 52.5t-69 26.5t-84 -9zM330 632l-174 90l52 46q28 -27 52.5 -49t43.5 -38q22 -18 40 -34z" />
    <glyph glyph-name="eacute" unicode="&#xe9;" horiz-adv-x="624" 
d="M599 195q-47 -93 -101.5 -141t-117.5 -64q-14 -5 -31 -7.5t-38 -2.5q-70 0 -122.5 24t-87.5 63.5t-52.5 89.5t-17.5 102.5t17.5 103t52.5 90t87.5 63.5t122.5 24q53 0 96 -13.5t76 -37.5t56 -56.5t36 -69.5l-442 -172q14 -39 34.5 -72.5t47.5 -57t60.5 -35.5t75.5 -7
q31 6 64 19.5t63 36t56.5 54.5t45.5 75zM230 509q-51 -17 -79 -49.5t-37.5 -73.5t-5 -87t18.5 -90l351 161q-17 37 -40.5 69t-54.5 52.5t-69 26.5t-84 -9zM248 647q18 16 40 34q19 16 43.5 38t52.5 49l52 -46l-174 -90z" />
    <glyph glyph-name="ecircumflex" unicode="&#xea;" horiz-adv-x="624" 
d="M136 643q31 20 62 41q26 18 55 40.5t51 43.5q22 -21 51 -43.5t55 -40.5q31 -21 62 -41l-8 -13l-160 80l-160 -80zM599 195q-47 -93 -101.5 -141t-117.5 -64q-14 -5 -31 -7.5t-38 -2.5q-70 0 -122.5 24t-87.5 63.5t-52.5 89.5t-17.5 102.5t17.5 103t52.5 90t87.5 63.5
t122.5 24q53 0 96 -13.5t76 -37.5t56 -56.5t36 -69.5l-442 -172q14 -39 34.5 -72.5t47.5 -57t60.5 -35.5t75.5 -7q31 6 64 19.5t63 36t56.5 54.5t45.5 75zM230 509q-51 -17 -79 -49.5t-37.5 -73.5t-5 -87t18.5 -90l351 161q-17 37 -40.5 69t-54.5 52.5t-69 26.5t-84 -9z" />
    <glyph glyph-name="edieresis" unicode="&#xeb;" horiz-adv-x="624" 
d="M580 204q-19 -43 -45.5 -75t-56.5 -54.5t-63 -36t-64 -19.5q-42 -5 -75.5 7t-60.5 35.5t-47.5 57t-34.5 72.5l442 172q-13 37 -36 69.5t-56 56.5t-76 37.5t-96 13.5q-70 0 -122.5 -24t-87.5 -63.5t-52.5 -90t-17.5 -103t17.5 -102.5t52.5 -89.5t87.5 -63.5t122.5 -24
q21 0 38 2.5t31 7.5q63 16 117.5 64t101.5 141zM230 509q46 15 84 9t69 -26.5t54.5 -52.5t40.5 -69l-351 -161q-14 44 -18.5 90t5 87t37.5 73.5t79 49.5zM232 678l-47 -47q-7 -9 -16 0l-47 47q-7 7 0 16l47 47q9 7 16 0l47 -47q9 -9 0 -16zM471 678l-47 -47q-7 -9 -16 0
l-47 47q-7 7 0 16l47 47q9 7 16 0l47 -47q9 -9 0 -16z" />
    <glyph glyph-name="igrave" unicode="&#xec;" horiz-adv-x="228" 
d="M153 0h-80v520h80v-520zM119 632l-174 90l52 46q28 -27 52.5 -49t43.5 -38q22 -18 40 -34z" />
    <glyph glyph-name="iacute" unicode="&#xed;" horiz-adv-x="229" 
d="M155 0h-80v520h80v-520zM96 647q18 16 40 34q19 16 43.5 38t52.5 49l52 -46l-174 -90z" />
    <glyph glyph-name="icircumflex" unicode="&#xee;" horiz-adv-x="236" 
d="M-50 643q31 20 62 41q26 18 55 40.5t51 43.5q22 -21 51 -43.5t55 -40.5q31 -21 62 -41l-8 -13l-160 80l-160 -80zM161 0h-80v520h80v-520z" />
    <glyph glyph-name="idieresis" unicode="&#xef;" horiz-adv-x="211" 
d="M73 678l-47 -47q-7 -9 -16 0l-47 47q-7 7 0 16l47 47q9 7 16 0l47 -47q9 -9 0 -16zM247 678l-47 -47q-7 -9 -16 0l-47 47q-7 7 0 16l47 47q9 7 16 0l47 -47q9 -9 0 -16zM144 520h-80v-520h80v520z" />
    <glyph glyph-name="eth" unicode="&#xf0;" 
d="M586 324q12 -59 1 -120.5t-45.5 -111t-92 -81t-138.5 -31.5q-70 0 -122.5 24t-87.5 63.5t-52.5 89.5t-17.5 102.5t17.5 103t52.5 90t87.5 63.5t122.5 24q32 0 61 -5.5t54 -15.5q-29 51 -66 95t-89 76l-114 -65l-11 18l104 61q-22 12 -41 21.5l-33 16.5q-17 8 -31 14l6 14
l124 -52l91 53l12 -19l-77 -45q75 -31 127 -83t85.5 -108.5t50.5 -108.5t22 -83zM395 12q54 18 82 51.5t37.5 75.5t3 89.5t-21.5 92.5t-38 86.5t-56 70t-75.5 39t-95.5 -7.5t-81 -51.5t-37 -76t-3.5 -90t20.5 -92.5t39 -86t56.5 -69.5t74.5 -39t95 7.5z" />
    <glyph glyph-name="ntilde" unicode="&#xf1;" horiz-adv-x="575" 
d="M530 0h-80v374q0 44 -16 66t-41.5 29t-58 1.5t-65 -16.5t-63 -25t-52.5 -24q-15 -7 -19.5 -18.5t-4.5 -19.5v-367h-80v520h80v-104q18 9 37 18t41.5 19.5t51 23t66.5 29.5q33 16 68 17t64.5 -12t49.5 -40t22 -66v-405zM354 624q-32 9 -64 19t-64.5 13.5t-64.5 -4
t-63 -33.5l-12 8q42 52 89.5 71.5t112.5 -0.5q37 -11 68 -19.5t57 -10t49 5t43 26.5l12 -9q-14 -17 -31 -32.5t-37.5 -26t-44 -13.5t-50.5 5z" />
    <glyph glyph-name="ograve" unicode="&#xf2;" 
d="M311 540q70 0 123 -24t88 -63.5t52.5 -90t17.5 -103t-17.5 -102.5t-53 -89.5t-88 -63.5t-122.5 -24t-122.5 24t-87.5 63.5t-52.5 89.5t-17.5 102.5t17.5 103t52.5 90t87.5 63.5t122.5 24zM395 12q54 18 82 51.5t37.5 75.5t3 89.5t-21.5 92.5t-38 86.5t-56 70t-75.5 39
t-95.5 -7.5t-81 -51.5t-37 -76t-3.5 -90t20.5 -92.5t39 -86t56.5 -69.5t74.5 -39t95 7.5zM331 632l-174 90l52 46q28 -27 52.5 -49t43.5 -38q22 -18 40 -34z" />
    <glyph glyph-name="oacute" unicode="&#xf3;" 
d="M311 540q70 0 123 -24t88 -63.5t52.5 -90t17.5 -103t-17.5 -102.5t-53 -89.5t-88 -63.5t-122.5 -24t-122.5 24t-87.5 63.5t-52.5 89.5t-17.5 102.5t17.5 103t52.5 90t87.5 63.5t122.5 24zM395 12q54 18 82 51.5t37.5 75.5t3 89.5t-21.5 92.5t-38 86.5t-56 70t-75.5 39
t-95.5 -7.5t-81 -51.5t-37 -76t-3.5 -90t20.5 -92.5t39 -86t56.5 -69.5t74.5 -39t95 7.5zM226 647q18 16 40 34q19 16 43.5 38t52.5 49l52 -46l-174 -90z" />
    <glyph glyph-name="ocircumflex" unicode="&#xf4;" 
d="M134 643q31 20 62 41q26 18 55 40.5t51 43.5q22 -21 51 -43.5t55 -40.5q31 -21 62 -41l-8 -13l-160 80l-160 -80zM311 540q70 0 123 -24t88 -63.5t52.5 -90t17.5 -103t-17.5 -102.5t-53 -89.5t-88 -63.5t-122.5 -24t-122.5 24t-87.5 63.5t-52.5 89.5t-17.5 102.5
t17.5 103t52.5 90t87.5 63.5t122.5 24zM395 12q54 18 82 51.5t37.5 75.5t3 89.5t-21.5 92.5t-38 86.5t-56 70t-75.5 39t-95.5 -7.5t-81 -51.5t-37 -76t-3.5 -90t20.5 -92.5t39 -86t56.5 -69.5t74.5 -39t95 7.5z" />
    <glyph glyph-name="otilde" unicode="&#xf5;" 
d="M370 624q-32 9 -64 19t-64.5 13.5t-64.5 -4t-63 -33.5l-12 8q42 52 89.5 71.5t112.5 -0.5q37 -11 68 -19.5t57 -10t49 5t43 26.5l12 -9q-14 -17 -31 -32.5t-37.5 -26t-44 -13.5t-50.5 5zM311 540q70 0 123 -24t88 -63.5t52.5 -90t17.5 -103t-17.5 -102.5t-53 -89.5
t-88 -63.5t-122.5 -24t-122.5 24t-87.5 63.5t-52.5 89.5t-17.5 102.5t17.5 103t52.5 90t87.5 63.5t122.5 24zM395 12q54 18 82 51.5t37.5 75.5t3 89.5t-21.5 92.5t-38 86.5t-56 70t-75.5 39t-95.5 -7.5t-81 -51.5t-37 -76t-3.5 -90t20.5 -92.5t39 -86t56.5 -69.5t74.5 -39
t95 7.5z" />
    <glyph glyph-name="odieresis" unicode="&#xf6;" 
d="M241 678l-47 -47q-7 -9 -16 0l-47 47q-7 7 0 16l47 47q9 7 16 0l47 -47q9 -9 0 -16zM480 678l-47 -47q-7 -9 -16 0l-47 47q-7 7 0 16l47 47q9 7 16 0l47 -47q9 -9 0 -16zM311 540q-70 0 -122.5 -24t-87.5 -63.5t-52.5 -90t-17.5 -103t17.5 -102.5t52.5 -89.5t87.5 -63.5
t122.5 -24t122.5 24t88 63.5t53 89.5t17.5 102.5t-17.5 103t-52.5 90t-88 63.5t-123 24zM395 12q-53 -18 -95 -7.5t-74.5 39t-56.5 69.5t-39 86t-20.5 92.5t3.5 90t37 76t81 51.5t95.5 7.5t75.5 -39t56 -70t38 -86.5t21.5 -92.5t-3 -89.5t-37.5 -75.5t-82 -51.5z" />
    <glyph glyph-name="divide" unicode="&#xf7;" horiz-adv-x="680" 
d="M590 360v49h-500v-49h500zM335 518l-50 51q-6 6 0 13l50 50q7 7 13 0l51 -50q6 -7 0 -13l-51 -51q-6 -6 -13 0zM335 138l-50 51q-6 6 0 13l50 50q7 7 13 0l51 -50q6 -7 0 -13l-51 -51q-6 -6 -13 0z" />
    <glyph glyph-name="oslash" unicode="&#xf8;" 
d="M106 -22l389 563h39l-388 -563h-40zM311 540q70 0 123 -24t88 -63.5t52.5 -90t17.5 -103t-17.5 -102.5t-53 -89.5t-88 -63.5t-122.5 -24t-122.5 24t-87.5 63.5t-52.5 89.5t-17.5 102.5t17.5 103t52.5 90t87.5 63.5t122.5 24zM395 12q54 18 82 51.5t37.5 75.5t3 89.5
t-21.5 92.5t-38 86.5t-56 70t-75.5 39t-95.5 -7.5t-81 -51.5t-37 -76t-3.5 -90t20.5 -92.5t39 -86t56.5 -69.5t74.5 -39t95 7.5z" />
    <glyph glyph-name="ugrave" unicode="&#xf9;" horiz-adv-x="537" 
d="M327 632l-174 90l52 46q28 -27 52.5 -49t43.5 -38q22 -18 40 -34zM487 520v-520h-79v101q-28 -19 -67.5 -45.5t-90.5 -49.5q-17 -8 -36 -12t-37 -4q-25 0 -49 8.5t-42.5 25t-29.5 39.5t-11 52v405h79v-374q0 -29 9 -52.5t25.5 -38.5t40.5 -20t54 4q26 8 63 27t72 41
q8 5 14 14.5t6 20.5v378h79z" />
    <glyph glyph-name="uacute" unicode="&#xfa;" horiz-adv-x="537" 
d="M204 647q18 16 40 34q19 16 43.5 38t52.5 49l52 -46l-174 -90zM487 520v-520h-79v101q-28 -19 -67.5 -45.5t-90.5 -49.5q-17 -8 -36 -12t-37 -4q-25 0 -49 8.5t-42.5 25t-29.5 39.5t-11 52v405h79v-374q0 -29 9 -52.5t25.5 -38.5t40.5 -20t54 4q26 8 63 27t72 41
q8 5 14 14.5t6 20.5v378h79z" />
    <glyph glyph-name="ucircumflex" unicode="&#xfb;" horiz-adv-x="537" 
d="M98 643q31 20 62 41q26 18 55 40.5t51 43.5q22 -21 51 -43.5t55 -40.5q31 -21 62 -41l-8 -13l-160 80l-160 -80zM487 520v-520h-79v101q-28 -19 -67.5 -45.5t-90.5 -49.5q-17 -8 -36 -12t-37 -4q-25 0 -49 8.5t-42.5 25t-29.5 39.5t-11 52v405h79v-374q0 -29 9 -52.5
t25.5 -38.5t40.5 -20t54 4q26 8 63 27t72 41q8 5 14 14.5t6 20.5v378h79z" />
    <glyph glyph-name="udieresis" unicode="&#xfc;" horiz-adv-x="537" 
d="M208 678l-47 -47q-7 -9 -16 0l-47 47q-7 7 0 16l47 47q9 7 16 0l47 -47q9 -9 0 -16zM447 678l-47 -47q-7 -9 -16 0l-47 47q-7 7 0 16l47 47q9 7 16 0l47 -47q9 -9 0 -16zM408 520v-378q0 -11 -6 -20.5t-14 -14.5q-35 -22 -72 -41t-63 -27q-30 -9 -54 -4t-40.5 20
t-25.5 38.5t-9 52.5v374h-79v-405q0 -29 11 -52t29.5 -39.5t42.5 -25t49 -8.5q18 0 37 4t36 12q51 23 90.5 49.5t67.5 45.5v-101h79v520h-79z" />
    <glyph glyph-name="yacute" unicode="&#xfd;" horiz-adv-x="537" 
d="M487 -42q-1 -14 -5 -34t-17 -43.5t-38.5 -47.5t-68.5 -45l-256 -108l-6 14q86 36 155 79q29 18 57 40t50 47t35.5 52.5t13.5 57.5v132v-1q-28 -19 -67 -41.5t-90 -45.5q-33 -15 -68 -16t-64.5 12t-49.5 39.5t-22 65.5q-2 26 -1 51.5t1 51.5v302h80v-278v-96
q0 -29 8.5 -52t25 -37.5t40 -19t53.5 4.5q26 8 63 25.5t72 39.5q8 5 13.5 14.5t5.5 20.5v378h80v-562zM223 647q18 16 40 34q19 16 43.5 38t52.5 49l52 -46l-174 -90z" />
    <glyph glyph-name="thorn" unicode="&#xfe;" horiz-adv-x="644" 
d="M134 -320h-80v1088h80v-393q45 61 97.5 96t105.5 45t102 -4t87 -49.5t60.5 -92.5t22.5 -133q0 -70 -23 -120.5t-61 -82t-87.5 -44.5t-102 -9t-105 24.5t-96.5 56.5v-382zM134 173q0 -14 4 -27t11 -24q29 -47 67.5 -75.5t80 -38.5t81.5 -0.5t72 38t52.5 76t23.5 115.5
q3 72 -16.5 121t-52 77t-75.5 35t-87.5 -6.5t-86.5 -46.5t-74 -85v-159z" />
    <glyph glyph-name="ydieresis" unicode="&#xff;" horiz-adv-x="537" 
d="M487 520h-80v-378q0 -11 -5.5 -20.5t-13.5 -14.5q-35 -22 -72 -39.5t-63 -25.5q-30 -9 -53.5 -4.5t-40 19t-25 37.5t-8.5 52v96v278h-80v-302q0 -26 -1 -51.5t1 -51.5q2 -39 22 -65.5t49.5 -39.5t64.5 -12t68 16q51 23 90 45.5t67 41.5v1v-132q0 -30 -13.5 -57.5
t-35.5 -52.5t-50 -47t-57 -40q-69 -43 -155 -79l6 -14l256 108q43 21 68.5 45t38.5 47.5t17 43.5t5 34v562zM209 678l-47 -47q-7 -9 -16 0l-47 47q-7 7 0 16l47 47q9 7 16 0l47 -47q9 -9 0 -16zM448 678l-47 -47q-7 -9 -16 0l-47 47q-7 7 0 16l47 47q9 7 16 0l47 -47
q9 -9 0 -16z" />
    <glyph glyph-name="dotlessi" unicode="&#x131;" horiz-adv-x="260" 
d="M170 0h-80v0v0v519h80v-519z" />
    <glyph glyph-name="Lslash" unicode="&#x141;" horiz-adv-x="762" 
d="M269 433l194 86l7 -14l-201 -98v-367q97 1 180 7.5t144 13.5q71 8 129 18v-79h-532v369l-72 -35q-10 -5 -19.5 -11.5t-15 -15t-5.5 -19t9 -22.5l44 -46q12 -12 21.5 -19t26.5 -12h-70q-23 0 -45 10t-37 28l-28 34q-12 14 -8 32.5t21 26.5l178 78v370h79v-335z" />
    <glyph glyph-name="lslash" unicode="&#x142;" horiz-adv-x="470" 
d="M470 505l-201 -97v-53v-355h-80v355v14l-71 -35q-10 -5 -19.5 -11.5t-15 -15t-5.5 -19t9 -22.5l44 -46q12 -12 21.5 -19t26.5 -12h-70q-23 0 -45 10t-37 28l-28 34q-12 14 -8 32.5t21 26.5l177 79v38v84q0 6 2 27t13.5 48t37.5 55.5t74 51.5l148 63l6 -14l-10.5 -5
t-27.5 -13t-39 -20.5t-46 -27.5q-8 -5 -20.5 -16.5t-25 -30.5t-22 -46.5t-10.5 -64.5v-91v-3l194 85z" />
    <glyph glyph-name="OE" unicode="&#x152;" horiz-adv-x="1151" 
d="M648 549v-159q7 14 16.5 25.5t23.5 19.5q15 10 34 15.5t43 4.5q22 0 51 -6q42 -10 70 -20t49.5 -14.5t40.5 0.5t44 25l11 -9q-15 -17 -34.5 -32.5t-42 -26t-47.5 -13.5t-52 6q-25 8 -46 13.5t-39 10.5q-23 6 -41.5 8t-32.5 -2h-2q-19 -5 -31.5 -21.5t-14.5 -35.5v-4v-204
v-55v-48q97 1 181.5 9t147.5 18q73 11 134 25v-79h-542v18q-36 -18 -78.5 -28t-91.5 -10q-92 0 -161.5 34.5t-115.5 91.5t-69 129.5t-23 148.5t23 148.5t69 129.5t115.5 91.5t161.5 34.5q49 0 91.5 -10t78.5 -28v18h542v-79q-61 14 -134 25q-63 10 -147.5 17.5t-181.5 9.5
v-47v-145zM569 621q0 23 -10 43.5t-29 34.5q-51 38 -112 49.5t-132 -12.5q-70 -23 -112.5 -72t-61 -111t-15 -132.5t26.5 -136.5q29 -77 69 -134t89.5 -90.5t108.5 -40.5t128 16h1q22 8 35.5 31t13.5 60v495z" />
    <glyph glyph-name="oe" unicode="&#x153;" horiz-adv-x="1109" 
d="M1084 196q-47 -93 -101.5 -141t-117.5 -64q-14 -5 -31 -7.5t-38 -2.5q-89 0 -149.5 37.5t-92.5 95.5q-33 -58 -93.5 -95.5t-149.5 -37.5q-70 0 -122.5 24t-87.5 63.5t-52.5 89.5t-17.5 102.5t17.5 103t52.5 90t87.5 63.5t122.5 24q89 0 149.5 -37.5t93.5 -94.5
q32 57 92.5 94.5t149.5 37.5q53 0 96 -13.5t76 -37.5t56 -56.5t36 -69.5l-442 -172q14 -39 34.5 -72.5t47.5 -57t60.5 -35.5t75.5 -7q31 6 64 19.5t63 36t56.5 54.5t45.5 75zM395 13q40 13 66 35.5t39.5 51t17 61.5t-0.5 68q-2 23 -7.5 46.5t-13.5 46.5q-15 45 -38 86.5
t-56 70t-75.5 39t-95.5 -7.5t-81 -51.5t-37 -76t-3.5 -90t20.5 -92.5t39 -86t56.5 -69.5t74.5 -39t95 7.5zM715 510q-51 -17 -79 -49.5t-37.5 -73.5t-5 -87t18.5 -90l351 161q-17 37 -40.5 69t-54.5 52.5t-69 26.5t-84 -9z" />
    <glyph glyph-name="Scaron" unicode="&#x160;" horiz-adv-x="731" 
d="M208 982l160 -80l160 80l8 -13l-62 -42q-26 -18 -55 -40t-51 -43q-22 21 -51 43t-55 40l-62 42zM691 208q0 -64 -30.5 -108t-75.5 -71t-97.5 -39t-97.5 -12q-54 0 -107 13t-99 40.5t-83 70.5t-61 102l19 10q28 -58 80 -98.5t112.5 -62.5t123.5 -24t114 17.5t83.5 62.5
t32.5 110q0 48 -21.5 76t-57 44.5t-80.5 24.5t-91 17q-23 4 -53 8t-61.5 10.5t-62 18t-54.5 30t-38.5 47t-14.5 69.5q1 58 30 100t74 69t100.5 40t109.5 13q88 0 165.5 -47t130.5 -127l-74 -45q-46 95 -106.5 143.5t-141.5 48.5q-34 0 -72.5 -10.5t-70.5 -33t-52 -56.5
t-17 -82q3 -43 28 -67t63.5 -37t87 -19.5t99 -13.5t98.5 -19.5t85 -37.5t60 -66.5t23 -108.5z" />
    <glyph glyph-name="scaron" unicode="&#x161;" horiz-adv-x="563" 
d="M129 768l160 -80l160 80l8 -13l-62 -42q-26 -18 -55 -40t-51 -43q-22 21 -51 43t-55 40l-62 42zM132 388q0 -29 17.5 -44t45.5 -23t64.5 -10.5t74 -6.5t74 -12t64.5 -25.5t45.5 -47.5t17.5 -79q0 -44 -24 -74.5t-59.5 -49.5t-77 -27.5t-75.5 -8.5q-43 0 -84 9t-77 28
t-65.5 49t-47.5 71l17 9q24 -41 59 -66t71.5 -38.5t70.5 -17.5t57 -4q27 0 54 7.5t48.5 22.5t35.5 37.5t14 53.5q0 32 -18.5 52t-46 32t-59 17.5t-57.5 7.5q-34 3 -73.5 6.5t-73.5 16.5t-56 39.5t-20 74.5q1 36 20 63.5t49.5 46t68 29t76.5 13.5q9 1 18 1.5t17 0.5
q41 0 76 -11t63.5 -28.5t51 -39t37.5 -42.5l-67 -43q-42 78 -97.5 116.5t-131.5 18.5q-45 -14 -71 -48t-26 -76z" />
    <glyph glyph-name="Ydieresis" unicode="&#x178;" horiz-adv-x="709" 
d="M288 894l-47 -47q-7 -9 -16 0l-47 47q-7 7 0 16l47 47q9 7 16 0l47 -47q9 -9 0 -16zM527 894l-47 -47q-7 -9 -16 0l-47 47q-7 7 0 16l47 47q9 7 16 0l47 -47q9 -9 0 -16zM577 769q-30 -70 -61 -129.5t-60 -108t-55 -84.5t-46 -59q-20 23 -46 59t-55 84.5t-60 108
t-61 129.5h-103l260 -366q8 -11 16 -26.5t8 -32.5v-344h41h40v344q0 17 8 32.5t16 26.5l260 366h-102z" />
    <glyph glyph-name="Zcaron" unicode="&#x17d;" horiz-adv-x="759" 
d="M218 982l160 -80l160 80l8 -13l-62 -42q-26 -18 -55 -40t-51 -43q-22 21 -51 43t-55 40l-62 42zM439 412q-25 -14 -58 -37.5t-68.5 -54t-70 -66t-61.5 -73t-44 -75t-17 -72.5q122 4 231.5 11.5t194.5 15.5q99 9 183 19v-80h-699q0 61 20 110t53 88.5t75 72.5t85.5 61.5
t86 54.5t75.5 53q40 32 76.5 69.5t64 76.5t44 76.5t16.5 70.5q-128 -5 -235 -11.5t-187 -14.5q-93 -9 -169 -18v80h685q0 -79 -26.5 -134.5t-67.5 -96t-91 -70t-96 -56.5z" />
    <glyph glyph-name="zcaron" unicode="&#x17e;" horiz-adv-x="560" 
d="M136 768l160 -80l160 80l8 -13l-62 -42q-26 -18 -55 -40t-51 -43q-22 21 -51 43t-55 40l-62 42zM323 279q-25 -14 -58 -42.5t-63 -63.5t-50.5 -72.5t-20.5 -70.5q78 4 148 12.5t124 16.5q62 10 116 21v-80h-479q0 68 30 113.5t73 78t90 58t81 52.5q27 22 48.5 46.5t36 49
t22.5 48t8 43.5q-78 -5 -146.5 -13t-120.5 -16q-61 -10 -112 -20v80h470q0 -60 -19 -98.5t-48 -64t-64 -43t-66 -35.5z" />
    <glyph glyph-name="florin" unicode="&#x192;" horiz-adv-x="491" 
d="M306 461q0 -126 0.5 -213t0.5 -144.5v-90.5v-50v-23v-10q0 -62 -17 -108.5t-48 -78.5t-75 -48t-97 -16v15q48 0 78.5 21t47.5 52t23.5 65.5t6.5 61.5v567h-115v61h115v34.5t-2 35t-7 29t-15 17.5l-45 22q-19 8 -17 26q0 15 23 30t52 27t54 19t30 7q24 0 47 -13.5
t55 -35.5l-7 -11q-29 15 -49 15q-11 0 -23 -5l-114 -51q-5 -3 -5 -8q0 -6 5 -7l51 -25q21 -11 33.5 -33.5t13.5 -48.5v-24h115v-61h-115v0z" />
    <glyph glyph-name="circumflex" unicode="&#x2c6;" horiz-adv-x="436" 
d="M50 643q31 20 62 41q26 18 55 40.5t51 43.5q22 -21 51 -43.5t55 -40.5q31 -21 62 -41l-8 -13l-160 80l-160 -80z" />
    <glyph glyph-name="caron" unicode="&#x2c7;" horiz-adv-x="436" 
d="M386 947l-62 -42q-26 -18 -55 -40t-51 -43q-22 21 -51 43t-55 40l-62 42l8 13l160 -80l160 80z" />
    <glyph glyph-name="breve" unicode="&#x2d8;" horiz-adv-x="432" 
d="M382 755q-35 -48 -75 -73t-91 -25t-90.5 25t-75.5 73l21 13q30 -35 66 -50.5t79 -15.5t79 15.5t66 50.5l21 -13v0z" />
    <glyph glyph-name="dotaccent" unicode="&#x2d9;" horiz-adv-x="220" 
d="M103 654l-50 51q-6 6 0 13l50 50q7 7 13 0l51 -50q6 -7 0 -13l-51 -51q-6 -6 -13 0z" />
    <glyph glyph-name="ring" unicode="&#x2da;" horiz-adv-x="235" 
d="M50 700q0 28 20 48t47 20q28 0 48 -20t20 -48q0 -27 -20 -47t-48 -20q-27 0 -47 20t-20 47zM86 680q11 -17 28 -23t30 3q14 9 14 26.5t-11 34.5t-27 23t-30 -4q-13 -8 -14 -25.5t10 -34.5z" />
    <glyph glyph-name="ogonek" unicode="&#x2db;" horiz-adv-x="251" 
d="M201 -193q-21 -11 -45.5 -16t-46.5 -2t-37.5 14.5t-19.5 34.5t3.5 43.5t21 38.5t31 32.5t34.5 26.5l31 1q-11 -8 -22.5 -19t-21 -24t-16.5 -25.5t-10 -22.5q-8 -26 -4.5 -42.5t16 -24.5t32.5 -7t46 9z" />
    <glyph glyph-name="tilde" unicode="&#x2dc;" horiz-adv-x="571" 
d="M338 624q-32 9 -64 19t-64.5 13.5t-64.5 -4t-63 -33.5l-12 8q42 52 89.5 71.5t112.5 -0.5q37 -11 68 -19.5t57 -10t49 5t43 26.5l12 -9q-14 -17 -31 -32.5t-37.5 -26t-44 -13.5t-50.5 5z" />
    <glyph glyph-name="hungarumlaut" unicode="&#x2dd;" horiz-adv-x="491" 
d="M60 683q27 19 55 41q24 19 52.5 43.5t54.5 53.5l54 -43l-207 -108zM215 683q27 19 55 41q24 19 52.5 43.5t54.5 53.5l54 -43l-207 -108z" />
    <glyph glyph-name="endash" unicode="&#x2013;" horiz-adv-x="620" 
d="M70 258v63v0v0h480v-63h-480z" />
    <glyph glyph-name="emdash" unicode="&#x2014;" horiz-adv-x="873" 
d="M70 258v63v0v0h733v-63h-733z" />
    <glyph glyph-name="quoteleft" unicode="&#x2018;" horiz-adv-x="299" 
d="M169 749l37 -38q6 -6 0 -13l-50 -50q-7 -7 -12 0l-51 50q-6 7 0 13l100 102l15 -16z" />
    <glyph glyph-name="quoteright" unicode="&#x2019;" horiz-adv-x="299" 
d="M130 660l-37 38q-6 6 0 13l50 50q7 7 12 0l51 -50q6 -7 0 -13l-100 -102l-15 16z" />
    <glyph glyph-name="quotesinglbase" unicode="&#x201a;" horiz-adv-x="260" 
d="M90 15l-37 38q-6 6 0 13l50 50q7 7 12 0l51 -50q6 -7 0 -13l-100 -102l-15 16z" />
    <glyph glyph-name="quotedblleft" unicode="&#x201c;" horiz-adv-x="466" 
d="M169 749l37 -38q6 -6 0 -13l-50 -50q-7 -7 -12 0l-51 50q-6 7 0 13l100 102l15 -16zM336 749l37 -38q6 -6 0 -13l-50 -50q-7 -7 -12 0l-51 50q-6 7 0 13l100 102l15 -16z" />
    <glyph glyph-name="quotedblright" unicode="&#x201d;" horiz-adv-x="470" 
d="M130 660l-37 38q-6 6 0 13l50 50q7 7 12 0l51 -50q6 -7 0 -13l-100 -102l-15 16zM301 660l-37 38q-6 6 0 13l50 50q7 7 12 0l51 -50q6 -7 0 -13l-100 -102l-15 16z" />
    <glyph glyph-name="quotedblbase" unicode="&#x201e;" horiz-adv-x="470" 
d="M130 14l-37 38q-6 6 0 13l50 50q7 7 12 0l51 -50q6 -7 0 -13l-100 -102l-15 16zM301 14l-37 38q-6 6 0 13l50 50q7 7 12 0l51 -50q6 -7 0 -13l-100 -102l-15 16z" />
    <glyph glyph-name="dagger" unicode="&#x2020;" horiz-adv-x="602" 
d="M301 -305q-3 104 -6.5 183.5t-7.5 140t-7.5 104t-8 77t-9.5 59.5t-10 50q-3 12 2 27q15 43 25 87t13 90q-46 -3 -90 -13t-87 -25q-8 -3 -16 -3q-20 0 -34.5 14.5t-13.5 35.5q1 18 13.5 31t31.5 15q10 0 19 -3q43 -16 87 -26t90 -12q-3 45 -13 89t-25 87q-3 9 -3 17
q0 20 14.5 34.5t35.5 13.5q21 1 35.5 -13.5t14.5 -34.5q0 -8 -3 -17q-15 -43 -25 -87t-13 -89q46 2 90 12t87 26q9 3 19 3q19 -2 31.5 -15t13.5 -31q1 -21 -13.5 -35.5t-34.5 -14.5q-9 0 -16 3q-43 15 -87 25t-90 13q3 -46 13 -90t25 -87q5 -15 2 -27q-5 -24 -10 -50
t-9.5 -59.5t-8 -77t-7.5 -104t-7.5 -140t-6.5 -183.5z" />
    <glyph glyph-name="daggerdbl" unicode="&#x2021;" horiz-adv-x="602" 
d="M503 -25q20 0 34.5 -14.5t13.5 -35.5q-1 -18 -13.5 -31t-31.5 -15q-10 0 -19 3q-43 16 -87 26t-90 12q3 -45 13 -89t25 -87q3 -9 3 -17q0 -20 -14.5 -34.5t-35.5 -13.5q-21 -1 -35.5 13.5t-14.5 34.5q0 8 3 17q15 43 25 87t13 89q-46 -2 -90 -12t-87 -26q-9 -3 -19 -3
q-19 2 -31.5 15t-13.5 31q-1 21 13.5 35.5t34.5 14.5q8 0 16 -3q43 -15 87 -25t90 -13q-2 23 -5 63t-8 83.5t-11.5 83t-13.5 60.5q7 21 13.5 60.5t11.5 82.5t8 83t5 63q-46 -3 -90 -13t-87 -25q-8 -3 -16 -3q-20 0 -34.5 14.5t-13.5 35.5q1 18 13.5 31t31.5 15q10 0 19 -3
q43 -16 87 -26t90 -12q-3 45 -13 89t-25 87q-3 9 -3 17q0 20 14.5 34.5t35.5 13.5q21 1 35.5 -13.5t14.5 -34.5q0 -8 -3 -17q-15 -43 -25 -87t-13 -89q46 2 90 12t87 26q9 3 19 3q19 -2 31.5 -15t13.5 -31q1 -21 -13.5 -35.5t-34.5 -14.5q-9 0 -16 3q-43 15 -87 25t-90 13
q1 -23 4.5 -63t8.5 -83t11 -82.5t14 -60.5q-8 -21 -14 -60.5t-11 -83t-8.5 -83.5t-4.5 -63q46 3 90 13t87 25q7 3 16 3z" />
    <glyph glyph-name="bullet" unicode="&#x2022;" horiz-adv-x="384" 
d="M277 339l-81 -80q-5 -7 -13 -7t-14 7l-81 80q-5 5 -5 13t5 15l81 81q6 5 14 5t13 -5l81 -81q7 -7 7 -15t-7 -13z" />
    <glyph glyph-name="ellipsis" unicode="&#x2026;" horiz-adv-x="836" 
d="M173 49l-47 -47q-7 -9 -16 0l-47 47q-7 7 0 16l47 47q9 7 16 0l47 -47q9 -9 0 -16zM472 49l-47 -47q-7 -9 -16 0l-47 47q-7 7 0 16l47 47q9 7 16 0l47 -47q9 -9 0 -16zM772 49l-47 -47q-7 -9 -16 0l-47 47q-7 7 0 16l47 47q9 7 16 0l47 -47q9 -9 0 -16z" />
    <glyph glyph-name="perthousand" unicode="&#x2030;" horiz-adv-x="1318" 
d="M256 767q44 0 77 -19t55.5 -50t33.5 -70.5t11 -80.5q0 -42 -11.5 -81t-34 -70t-56 -49.5t-78.5 -18.5q-44 0 -76 18.5t-54 49t-32.5 69.5t-10.5 81q0 41 11 81t33 71t55 50t77 19zM256 735q-29 0 -50.5 -16.5t-35.5 -43t-21.5 -60.5t-7.5 -69t7 -68.5t21.5 -59.5
t35.5 -42t49 -16q30 0 51.5 16t36 42.5t21.5 60t7 68.5t-7 69t-21 60.5t-35.5 42.5t-50.5 16zM695 439q44 0 77 -19t55 -50t33 -70.5t11 -79.5q0 -42 -11 -81.5t-33.5 -70t-56 -49.5t-78.5 -19q-44 0 -76.5 18.5t-54 49t-32.5 70t-11 80.5t11 81t33 71t55.5 50t77.5 19z
M695 407q-29 0 -50.5 -16t-36 -42.5t-21.5 -60.5t-7 -70q0 -35 7 -68t21.5 -59t35.5 -42t49 -16q29 0 51 16t36.5 42t21.5 60t7 69t-7 68.5t-21 60t-35.5 42.5t-50.5 16zM1062 439q44 0 77 -19t55 -50t33 -70.5t11 -79.5q0 -42 -11 -81.5t-33.5 -70t-56 -49.5t-78.5 -19
q-44 0 -76.5 18.5t-54 49t-32.5 70t-11 80.5t11 81t33 71t55.5 50t77.5 19zM1062 407q-29 0 -50.5 -16t-36 -42.5t-21.5 -60.5t-7 -70q0 -35 7 -68t21.5 -59t35.5 -42t49 -16q29 0 51 16t36.5 42t21.5 60t7 69t-7 68.5t-21.5 60t-36 42.5t-49.5 16zM708 767h64l-527 -767
h-62z" />
    <glyph glyph-name="guilsinglleft" unicode="&#x2039;" horiz-adv-x="283" 
d="M233 457l-109 -170l109 -170l-13 -8q-33 37 -64 71q-27 29 -56 59t-50 48q21 18 50 48t56 59q31 33 64 71z" />
    <glyph glyph-name="guilsinglright" unicode="&#x203a;" horiz-adv-x="303" 
d="M73 465q32 -38 64 -71q26 -29 55.5 -59t50.5 -48q-21 -18 -50.5 -48t-55.5 -59q-32 -34 -64 -71l-13 8l109 170l-109 170z" />
    <glyph glyph-name="fraction" unicode="&#x2044;" horiz-adv-x="689" 
d="M576 767h63l-527 -767h-62z" />
    <glyph glyph-name="Euro" unicode="&#x20ac;" horiz-adv-x="792" 
d="M328 706q-44 -17 -75.5 -44.5t-51.5 -62.5t-30 -76t-12 -84q54 4 98.5 8.5t76.5 8.5q37 4 66 8v-49l-241 -1q0 -26 3 -50.5t8 -49.5q52 4 94.5 8.5t72.5 7.5q35 4 63 7v-48l-223 -1q11 -41 33.5 -89.5t55.5 -90.5t75.5 -69.5t95.5 -26.5q37 1 72 15t65 38t54.5 56
t39.5 67l74 -50q-44 -50 -83.5 -81t-76.5 -49t-73 -24t-73 -5q-75 0 -133.5 25t-101 67.5t-69 98.5t-36.5 118h-65l-1 17l63 3q-2 15 -3 30.5t-1 30.5q0 11 0.5 22.5t1.5 22.5h-60l-1 18l64 3q9 61 33.5 116t63 97.5t90 70t115.5 35.5q42 5 83 2.5t82.5 -18.5t86 -49.5
t94.5 -89.5l-74 -51q-32 55 -66.5 94.5t-75.5 60.5t-89.5 22.5t-108.5 -19.5z" />
    <glyph glyph-name="trademark" unicode="&#x2122;" horiz-adv-x="977" 
d="M234 396v344q-34 -2 -60 -5.5t-45 -6.5q-22 -4 -39 -8v48h333l-3 -45l-36 6q-18 2 -44 5.5t-59 5.5v-344h-47zM907 396h-56l-97 322q-23 -88 -44 -171.5t-41 -150.5h-22l-97 324q-11 -43 -18.5 -76.5t-14 -69t-12.5 -77t-14 -101.5h-50l96 372h47l86 -274l70 274h48z" />
    <glyph glyph-name="arrowleft" unicode="&#x2190;" horiz-adv-x="722" 
d="M357 605l-132 -222q27 0 61 0.5t71 1t74.5 1.5t72.5 2q82 2 168 5v-72q-86 2 -168 5q-35 1 -72.5 1.5t-74.5 1.5t-71 1.5t-61 0.5l132 -223l-19 -11q-53 55 -103 104q-21 21 -44 43t-44.5 43t-41.5 39t-35 31q15 13 35 31t41.5 39t44.5 43t44 43q50 49 103 104z" />
    <glyph glyph-name="arrowright" unicode="&#x2192;" horiz-adv-x="722" 
d="M384 617q53 -55 103 -104q21 -21 44 -43t44.5 -43t41.5 -39t35 -31q-15 -13 -35 -31t-41.5 -39t-44.5 -43t-44 -43q-50 -49 -103 -104l-19 11l132 223q-28 0 -62 -0.5t-70.5 -1.5t-74 -1.5t-72.5 -1.5q-82 -3 -168 -5v72q86 -3 168 -5q35 -1 72.5 -2t74 -1.5t70.5 -1
t62 -0.5l-132 222z" />
    <glyph glyph-name="minus" unicode="&#x2212;" horiz-adv-x="700" 
d="M100 365v49v0v0h500v-49h-500z" />
    <glyph glyph-name="_0024" horiz-adv-x="341" 
 />
    <glyph glyph-name="_0142" horiz-adv-x="0" 
 />
    <glyph glyph-name="b.alt" horiz-adv-x="658" 
d="M134 768v-379q45 56 99 87t108.5 39.5t105.5 -5t90 -47.5t62.5 -87.5t23.5 -124.5q0 -72 -24 -123t-63.5 -82.5t-91 -44t-105.5 -8t-107.5 25.5t-97.5 57v-76h-80v768h80zM134 198q0 -11 2 -22.5t6 -19.5q29 -54 69.5 -87.5t84 -46.5t86.5 -5t77 36.5t56.5 77.5t24.5 120
q2 66 -21.5 118.5t-66 81t-99 29t-120.5 -36.5q-55 -32 -77 -54.5t-22 -47.5v-143z" />
    <glyph glyph-name="d.alt" horiz-adv-x="658" 
d="M604 768v-768h-80v76q-44 -36 -97.5 -57t-107.5 -25.5t-105.5 8t-91 44t-63.5 82.5t-24 123q0 71 23.5 124.5t62.5 87.5t90 47.5t105.5 5t108 -39.5t99.5 -87v379h80zM516 156q4 8 6 19.5t2 22.5v143q0 25 -22 47.5t-77 54.5q-64 37 -120.5 36.5t-99 -29t-66 -81
t-21.5 -118.5q2 -70 24.5 -119.5t56.5 -78t77 -36.5t86.5 5t83.5 46.5t70 87.5z" />
    <glyph glyph-name="h.alt" horiz-adv-x="571" 
d="M530 405q2 -26 1 -52t-1 -52v-301h-80v278v96q0 57 -33.5 86.5t-93.5 15.5q-40 -10 -85 -28.5t-84 -36.5q-14 -7 -18.5 -17.5t-5.5 -18.5v-375h-80v768h80v-352q18 9 37 18t41.5 19.5t51 23t66.5 29.5q33 16 68 17t64.5 -12t49.5 -40t22 -66z" />
    <glyph glyph-name="k.alt" horiz-adv-x="539" 
d="M529 0h-98l-227 282l-70 -34v-248h-80v768h80v-490l197 92q10 4 19.5 11t15 15.5t5.5 19t-9 22.5l-46 51q-12 12 -21.5 19t-26.5 12h70q23 0 45 -10t37 -28l28 -34q12 -14 8 -32.5t-21 -26.5l-160 -77z" />
    <glyph glyph-name="l.alt" horiz-adv-x="188" 
d="M54 768h80v-768h-80v768z" />
    <glyph glyph-name="t.alt" horiz-adv-x="435" 
d="M415 40q-8 -4 -21 -9.5t-28 -11.5t-29.5 -12t-25.5 -11q-33 -16 -68.5 -16.5t-65.5 12.5t-50.5 40t-22.5 66q-2 26 -1.5 52t0.5 52v258h-68v60h68v80l77 33v-113h196v-60h-180q-9 0 -15 -6t-6 -15v-221v-89q0 -28 8.5 -51.5t25 -39t40 -21.5t53.5 2q9 2 23 6t30 9t31 10
t24 9z" />
    <glyph glyph-name="a.sc" horiz-adv-x="537" 
d="M360 163q-9 19 -20 17.5t-30 -7.5q-31 -15 -57 -26q-23 -10 -44 -17.5t-29 -7.5q-11 0 -20 3t-17 13l-13 -51q-5 -21 -9.5 -44t-8.5 -43h-82l228 520h20l229 -520h-75zM251 413q-9 -21 -22 -51t-26.5 -61.5t-25.5 -62t-19 -52.5q-3 -10 -1.5 -13t6 -2.5t11.5 4l13 6.5
q3 2 7.5 4t12 6t21 10.5t34.5 17.5q25 11 46 11q13 0 30 -15z" />
    <glyph glyph-name="b.sc" horiz-adv-x="470" 
d="M383 406q0 -20 -7 -33.5t-18 -23.5t-24 -16.5t-26 -11.5q22 -4 46.5 -17.5t44.5 -34t33 -47t13 -55.5q0 -33 -9.5 -63t-32 -53t-60 -37t-93.5 -14h-195v520h189q26 0 51 -6t44.5 -19.5t31.5 -35.5t12 -53zM248 33q24 0 44.5 10.5t36 28.5t24.5 41.5t10 48.5q1 21 -7 42.5
t-23.5 39t-38.5 28.5t-53 11q-20 0 -43 -5.5t-48 -18.5q-11 -5 -18 -15t-7 -23v-189zM309 406q0 33 -22.5 56t-61.5 23l-100 -1v-198q12 6 28 12t33 12q21 7 43 15.5t40 20t29 26t11 34.5z" />
    <glyph glyph-name="c.sc" horiz-adv-x="551" 
d="M526 184q-15 -43 -37.5 -80t-53.5 -64.5t-70 -43t-86 -15.5q-63 0 -110.5 23t-79 61.5t-47 88t-15.5 100.5q0 53 16.5 99.5t46 82.5t70.5 59t89 30q9 2 20 2.5t21 0.5q25 0 50 -5.5t51 -19t54 -37t60 -58.5l-69 -45q-35 59 -73.5 91.5t-87.5 32.5q-41 0 -74.5 -15.5
t-58 -42t-38 -63t-13.5 -78.5t13.5 -86t40 -80.5t65.5 -59.5t89 -23q24 0 52.5 10.5t56 30.5t52.5 50.5t42 69.5z" />
    <glyph glyph-name="d.sc" horiz-adv-x="532" 
d="M507 260q0 -57 -19.5 -104t-54 -81.5t-82.5 -54t-105 -20.5h-191v519h191q57 0 105 -19t82.5 -53t54 -81.5t19.5 -105.5zM125 32q25 0 48.5 0.5t48.5 0.5q48 0 87.5 18t68 48.5t44 71.5t15.5 87q0 40 -15.5 80.5t-44 73t-68 52.5t-87.5 20l-97 -1v-451z" />
    <glyph glyph-name="e.sc" horiz-adv-x="462" 
d="M125 37q61 1 115.5 6.5t96.5 12.5q48 8 90 17v-73h-372v520h372v-66q-40 8 -88 14q-41 5 -96 9.5t-118 5.5l-1 -199q14 20 25 26.5t33 6.5q16 0 33 -4.5t34.5 -10t34 -10t33.5 -4.5q15 0 42 21l20 -18q-12 -13 -26.5 -25t-31 -20.5t-35.5 -11t-38 4.5q-41 11 -65 16.5
t-42 -0.5q-13 -4 -16 -28v-190z" />
    <glyph glyph-name="f.sc" horiz-adv-x="412" 
d="M407 454q-92 14 -159 21.5t-122 7.5v-206q13 26 33.5 30t44 -2t48 -15t44.5 -9q16 0 44 21l20 -18q-12 -13 -26.5 -25t-31 -20.5t-35.5 -11t-38 3.5q-19 5 -34.5 10.5t-24.5 7.5q-15 4 -29 -2t-15 -26v-221h-71v520h352v-66z" />
    <glyph glyph-name="g.sc" horiz-adv-x="552" 
d="M369 276q24 17 51 13.5t49.5 -20t37.5 -42t15 -53.5q0 -23 -12 -47q-17 -30 -41 -56t-53 -46t-63.5 -31.5t-73.5 -11.5q-62 0 -109 23t-78 61t-46.5 87.5t-15.5 100.5q0 54 19 103.5t53.5 87.5t82.5 60.5t106 22.5q25 0 49.5 -5.5t51 -19t54.5 -37t60 -58.5l-70 -45
q-34 59 -72 91t-87 32q-60 0 -99.5 -27t-59.5 -70.5t-21 -97t14 -106.5v1q25 -64 75.5 -103.5t113.5 -42.5q50 -2 82.5 16.5t54.5 41.5q13 13 19 36t3 45.5t-16 38.5t-39 16q-7 0 -16.5 -2.5t-26.5 -9t-44 -19.5t-70 -34l-10 26z" />
    <glyph glyph-name="h.sc" horiz-adv-x="496" 
d="M441 521v-521h-71v261q0 8 -4 10.5t-10 2t-13 -3t-13 -4.5q-17 -7 -48 -20t-85 -35q-17 -8 -37.5 -9.5t-33.5 18.5v-220h-71v521h71v-261q0 -9 9 -6.5t19 6.5q13 5 37 16t53 23q20 9 33.5 14.5t22.5 8t14 3.5t9 1q13 0 22 -3t25 -19v217h71z" />
    <glyph glyph-name="i.sc" horiz-adv-x="250" 
d="M90 520h70v-520h-70v520z" />
    <glyph glyph-name="j.sc" horiz-adv-x="368" 
d="M313 520v-612q-1 -11 -4 -27t-13 -34.5t-30 -37.5t-55 -36l-200 -84l-10 29q66 26 119 58q22 13 43.5 29t38 34t27 37.5t10.5 40.5v505q-9 -14 -24 -25t-41 -23t-65.5 -27.5t-97.5 -40.5l-11 28q59 28 108 59q21 13 42 28t39.5 31.5t32.5 33.5t21 34h70z" />
    <glyph glyph-name="k.sc" horiz-adv-x="483" 
d="M352 216q27 -38 44 -76t37.5 -74.5t51 -71.5t83.5 -65l-18 -25q-45 21 -79.5 43.5t-62 50t-49.5 61t-42 75.5q-14 29 -37 57t-49 40q-17 8 -37.5 10.5t-37.5 -11.5l-30 -26v-204h-71v520l71 -1v-260q52 53 99 100t82 83q41 42 77 78h86l-255 -235h7q38 0 71.5 -18.5
t58.5 -50.5z" />
    <glyph glyph-name="l.sc" horiz-adv-x="461" 
d="M131 45q62 1 115.5 5.5t93.5 9.5q47 5 86 12v-72h-366v520h71v-475z" />
    <glyph glyph-name="m.sc" horiz-adv-x="698" 
d="M673 0h-82l-132 436l-114 -436h-35l-131 437q-13 -51 -23 -96t-19 -94.5t-18 -108.5t-19 -138h-75l132 520h70l117 -372l94 372h70z" />
    <glyph glyph-name="n.sc" horiz-adv-x="550" 
d="M450 -5q-16 -8 -35 -8q-36 0 -62.5 28t-46 67.5t-32.5 81t-22 68.5q-8 23 -18 54t-22 62.5t-27 60t-33 46.5q-9 9 -21 16q-2 1 -7 3t-10 3t-9 0.5t-4 -5.5q0 -128 5.5 -216.5t13.5 -145.5q8 -67 19 -110h-84v501l49 24q17 8 34 8q21 0 47 -20q43 -33 70 -87.5t48 -116.5
t40.5 -124t49.5 -110q2 -4 10.5 -13t18 -16t17 -8.5t7.5 10.5q0 123 -5.5 211.5t-11.5 146.5q-8 68 -17 114h83v-504z" />
    <glyph glyph-name="o.sc" horiz-adv-x="554" 
d="M276 528q64 0 111.5 -23.5t79 -62t47 -88t15.5 -101.5t-16 -101.5t-47.5 -88t-79 -62t-110.5 -23.5t-110 23.5t-78.5 62t-47 88t-15.5 101.5t15.5 101.5t47 88t78.5 62t110 23.5zM350 37q44 15 69.5 45t36 69t7 82t-17.5 84t-36.5 76t-53 57t-68 28.5t-80.5 -8.5
q-44 -14 -70 -44t-37.5 -68.5t-9 -82t16.5 -84.5q18 -47 42 -82.5t54.5 -56t67.5 -25t79 9.5z" />
    <glyph glyph-name="p.sc" horiz-adv-x="462" 
d="M125 256q0 -17 17 -17q66 0 109 7.5t68.5 23.5t36 41.5t10.5 62.5q0 36 -16.5 57.5t-42.5 33.5t-58 15.5t-63 3.5q-15 0 -29.5 -0.5t-31.5 -1.5v-226zM432 374q0 -62 -29.5 -96.5t-75 -51.5t-99.5 -21t-103 -3v-202h-70v520h139q30 0 69 -3t75.5 -17t63 -43t30.5 -82v-1z
" />
    <glyph glyph-name="q.sc" horiz-adv-x="577" 
d="M276 528q64 0 111.5 -23.5t79 -62t47 -88t15.5 -101.5q0 -48 -13 -93t-39 -82q37 -50 79 -87.5t106 -61.5l-17 -27q-72 18 -123.5 48.5t-93.5 76.5q-29 -23 -67 -36t-85 -13q-63 0 -110 23.5t-78.5 62t-47 88t-15.5 101.5t15.5 101.5t47 88t78.5 62t110 23.5zM398 181
q13 -13 24.5 -27t22.5 -31q19 43 18 94.5t-18 99.5q-14 41 -36.5 76t-53 57t-68 28.5t-80.5 -8.5q-44 -14 -70 -44t-37.5 -68.5t-9 -82t16.5 -84.5q5 -12 9.5 -23t9.5 -22q25 17 42 27.5t29 17.5t20.5 11t17.5 7q39 13 84.5 8t78.5 -36zM350 37q14 5 26 11t23 14
q-16 21 -32.5 42t-36 37.5t-43 25.5t-54.5 6q-20 -4 -42.5 -17.5t-36.5 -26.5q-5 -5 -7 -9.5t1 -10.5q36 -53 87 -73.5t115 1.5z" />
    <glyph glyph-name="r.sc" horiz-adv-x="477" 
d="M349 219q11 -16 20.5 -36.5t20.5 -42.5q12 -26 26.5 -53.5t34 -55t46.5 -53.5t65 -48l-17 -24q-45 20 -79.5 43t-62 50.5t-50 61t-42.5 75.5q-14 27 -30 45t-35 28.5t-43 15t-55 5.5h-22v-230h-71v521h140q29 0 67.5 -2.5t73 -16t58 -43t23.5 -82.5q0 -26 -10.5 -47
t-28 -37.5t-39.5 -27t-45 -14.5q14 -2 30.5 -12t24.5 -20zM142 266q68 -1 109 8t62.5 24.5t28 36t6.5 41.5q0 46 -22 68.5t-55 31t-72 7.5t-73 -2v-197q0 -11 4 -14.5t12 -3.5z" />
    <glyph glyph-name="s.sc" horiz-adv-x="525" 
d="M490 133q-2 -41 -22 -72t-50.5 -51t-67 -30t-70.5 -10q-47 0 -83.5 12.5t-65.5 34t-52.5 52t-43.5 66.5l29 14q13 -30 37.5 -54.5t56 -41t67 -25t69.5 -5.5q23 2 45 10t39.5 22t28 34.5t10.5 46.5q0 40 -25 59t-61 28t-76.5 13.5t-70.5 13.5q-27 8 -49.5 18.5t-39.5 25
t-26.5 35t-9.5 49.5q3 40 25 68.5t54 46.5t69 26.5t70 8.5q34 0 63.5 -11.5t55 -30t48 -41.5t42.5 -46l-64 -40q-12 25 -28 48.5t-35.5 42t-43 29.5t-51.5 11q-24 0 -48 -7t-43.5 -20t-32 -32.5t-12.5 -44.5q0 -30 25.5 -47.5t60.5 -28.5q28 -8 59.5 -13t62 -10.5t58 -14.5
t48.5 -26t34 -44t14 -69z" />
    <glyph glyph-name="t.sc" horiz-adv-x="485" 
d="M210 0v475q-45 -4 -81.5 -7.5t-62.5 -6.5q-31 -4 -56 -7v66h465v-66q-23 3 -52 7q-25 3 -61 6.5t-81 7.5v-475h-71z" />
    <glyph glyph-name="u.sc" horiz-adv-x="529" 
d="M434 520q24 -109 37 -171.5t19 -95.5t7.5 -45t1.5 -19q0 -50 -18 -88.5t-50.5 -65t-78 -40.5t-100.5 -14q-51 0 -92 15t-70 41t-44.5 59.5t-15.5 71.5q0 53 33 109t108 100q4 2 6.5 8.5t-5.5 12.5l-139 122h110l103 -94q10 -11 10 -23q0 -14 -17 -25q-25 -16 -49.5 -35
t-43.5 -42t-30.5 -51.5t-11.5 -62.5q0 -35 12 -66t32.5 -54t47.5 -37t56 -14q31 0 62.5 11t57 31.5t41 48.5t15.5 62q0 2 -0.5 6t-2.5 15.5t-6 33.5t-11.5 60t-19 95.5t-28.5 140.5h74v0z" />
    <glyph glyph-name="v.sc" horiz-adv-x="528" 
d="M496 383q11 -29 5.5 -60t-22.5 -58l-193 -265h-72l-184 520h84l154 -451q3 -8 9 -8.5t10 4.5l110 164q20 32 29 71t-4 77l-48 143h76z" />
    <glyph glyph-name="w.sc" horiz-adv-x="698" 
d="M664 314q9 -24 9 -46t-7 -43t-19 -40l-130 -185h-56l-63 176q-30 -43 -61.5 -88.5t-61.5 -87.5h-60l-185 520h82l151 -445q2 -5 7 -6t7 3l99 163l-98 285h76l155 -446q2 -6 6 -6t7 4l57 97q16 29 21.5 62t-5.5 65l-82 224h77z" />
    <glyph glyph-name="x.sc" horiz-adv-x="553" 
d="M435 0l-169 234l-2 -3q-22 -28 -59 -82t-78 -149h-97l213 267q-44 60 -90 126.5t-89 126.5h88l136 -192q20 32 49 77.5t58 114.5h96l-178 -224l210 -296h-88z" />
    <glyph glyph-name="y.sc" horiz-adv-x="510" 
d="M485 520l-181 -252q-5 -8 -9 -15.5t-4 -18.5v-234h-72v234q0 11 -4.5 18.5t-9.5 15.5l-180 252h92q38 -88 75 -149t63 -94q27 33 64 94t75 149h91z" />
    <glyph glyph-name="z.sc" horiz-adv-x="525" 
d="M305 269q-27 -15 -60.5 -40.5t-64 -56.5t-52.5 -65t-25 -66q79 2 150.5 7.5t126.5 10.5q64 6 120 13v-72h-475q1 64 29.5 110.5t69 81t85 61t77.5 50.5q58 42 88.5 89t38.5 86q-81 -3 -151 -8t-122 -10q-61 -6 -112 -12v72h466q0 -54 -15.5 -92t-42 -66.5t-60.5 -50
t-71 -42.5z" />
    </font>
</defs>
</svg>
